<?xml version="1.0" standalone="no"?>
<!DOCTYPE svg PUBLIC "-//W3C//DTD SVG 1.1//EN" "http://www.w3.org/Graphics/SVG/1.1/DTD/svg11.dtd" >
<svg>
<metadata>
Created by FontForge 20120731 at Tue Jun 23 09:33:56 2015
 By ,,,
Copyright (c) 2009 by Mark Caneso /psType. All rights reserved.
</metadata>
<defs>
<font id="5443977b53c05cad6f1a8cc418923da673e0e200965c6a7acd9c5268cf441a5" horiz-adv-x="726" >
  <font-face 
    font-family="5443977b53c05cad6f1a8cc418923da673e0e200965c6a7acd9c5268cf441a55"
    font-weight="400"
    font-stretch="normal"
    units-per-em="1000"
    panose-1="2 0 5 3 0 0 0 2 0 4"
    ascent="735"
    descent="-265"
    x-height="470"
    cap-height="670"
    bbox="-164 -262 948 905"
    underline-thickness="50"
    underline-position="-50"
    unicode-range="U+0020-2122"
  />
<missing-glyph horiz-adv-x="570" 
d="M427 0h-410l125 670h410zM371 69l99 532h-272l-99 -532h272z" />
    <glyph glyph-name=".notdef" horiz-adv-x="570" 
d="M427 0h-410l125 670h410zM371 69l99 532h-272l-99 -532h272z" />
    <glyph glyph-name=".null" horiz-adv-x="0" 
 />
    <glyph glyph-name="nonmarkingreturn" horiz-adv-x="333" 
 />
    <glyph glyph-name="space" unicode=" " horiz-adv-x="250" 
 />
    <glyph glyph-name="space" unicode="&#xa0;" horiz-adv-x="250" 
 />
    <glyph glyph-name="exclam" unicode="!" horiz-adv-x="253" 
d="M143 195l-70 20l74 457h99zM120 0h-101l20 108l96 -29z" />
    <glyph glyph-name="quotedbl" unicode="&#x22;" horiz-adv-x="334" 
d="M295 467l-73 -14l38 204l73 14zM157 467l-73 -14l38 204l73 14z" />
    <glyph glyph-name="numbersign" unicode="#" horiz-adv-x="659" 
d="M432 0h-75l28 153h-162l-28 -153h-75l28 153h-113l13 67h113l27 151h-113l13 66h113l28 154h75l-28 -154h162l28 154h75l-28 -154h116l-13 -66h-116l-27 -151h116l-13 -67h-116zM398 220l27 151h-162l-27 -151h162z" />
    <glyph glyph-name="dollar" unicode="$" horiz-adv-x="475" 
d="M222 -81h-67l13 70q-62 0 -160 16l22 73q80 -19 128 -19q160 0 160 87q0 26 -23.5 46.5t-57.5 36.5t-68 34t-57.5 48t-23.5 70q0 70 52.5 114t131.5 56l16 86h67l-15 -81q60 -2 108 -17l-20 -74q-58 18 -123 18q-58 0 -98 -22t-40 -69q0 -31 24 -53.5t58.5 -38t69 -31.5
t58.5 -43t24 -63q0 -62 -48 -106.5t-117 -60.5z" />
    <glyph glyph-name="percent" unicode="%" horiz-adv-x="679" 
d="M192 353q36 0 61.5 26.5t25.5 71.5q0 27 -15 42.5t-43 15.5q-37 0 -62.5 -27t-25.5 -72q0 -27 16 -42t43 -15zM99 -28l-44 39l528 568l45 -36zM340 455q0 -60 -46.5 -104.5t-110.5 -44.5q-50 0 -81 27t-31 73q0 64 47.5 107t110.5 43q49 0 80 -28t31 -73zM457 35
q36 0 61.5 26.5t25.5 71.5q0 27 -15 42.5t-43 15.5q-37 0 -62.5 -27t-25.5 -72q0 -27 16 -42t43 -15zM605 138q0 -61 -46 -105.5t-111 -44.5q-50 0 -81 27t-31 73q0 63 48 106.5t111 43.5q49 0 79.5 -27.5t30.5 -72.5z" />
    <glyph glyph-name="ampersand" unicode="&#x26;" horiz-adv-x="740" 
d="M652 334l4 -89q-90 -8 -199 -38l-7 57q120 46 202 70zM685 59l-3 -71q-141 1 -271 69q-87 -68 -190 -68q-81 0 -130.5 44.5t-49.5 121.5q0 43 17.5 83t36 61.5t47.5 49.5q-17 54 -17 106q0 111 65 169t159 58q80 0 146 -26l-25 -155h-69l15 98q-26 10 -79 10
q-23 0 -44.5 -7.5t-42.5 -23.5t-34 -47.5t-13 -74.5q0 -84 46.5 -158.5t118.5 -123.5t155.5 -79.5t161.5 -35.5zM347 95q-121 82 -179 195q-44 -49 -44 -109q0 -61 30.5 -90t79.5 -29q56 0 113 33z" />
    <glyph glyph-name="quotesingle" unicode="'" horiz-adv-x="196" 
d="M157 467l-73 -14l38 204l73 14z" />
    <glyph glyph-name="parenleft" unicode="(" horiz-adv-x="313" 
d="M223 -186l-63 -42q-61 66 -95 165.5t-34 213.5q0 183 90.5 361.5t229.5 285.5l47 -42q-140 -115 -212.5 -281.5t-72.5 -323.5q0 -206 110 -337z" />
    <glyph glyph-name="parenright" unicode=")" horiz-adv-x="317" 
d="M-31 -228l-47 42q138 115 211 281.5t73 321.5q0 206 -110 339l63 42q60 -66 94.5 -166t34.5 -214q0 -182 -91 -361t-228 -285z" />
    <glyph glyph-name="asterisk" unicode="*" horiz-adv-x="463" 
d="M376 436l-48 -31l-64 118l-108 -118l-36 31l104 114l-130 45l25 50l131 -45l27 147h53l-27 -147l147 45l7 -50l-144 -44z" />
    <glyph glyph-name="plus" unicode="+" horiz-adv-x="600" 
d="M332 30h-69v201h-200v69h200v200h69v-200h201v-69h-201v-201z" />
    <glyph glyph-name="comma" unicode="," horiz-adv-x="255" 
d="M49 -132l-39 26q46 58 71 102l-50 8l18 96h112q-9 -120 -112 -232z" />
    <glyph glyph-name="hyphen" unicode="-" horiz-adv-x="441" 
d="M361 211h-303l13 73h303z" />
    <glyph glyph-name="hyphen" unicode="&#xad;" horiz-adv-x="441" 
d="M361 211h-303l13 73h303z" />
    <glyph glyph-name="period" unicode="." horiz-adv-x="255" 
d="M143 0h-112l19 100h112z" />
    <glyph glyph-name="slash" unicode="/" horiz-adv-x="465" 
d="M53 -174h-75l415 925h79z" />
    <glyph glyph-name="zero" unicode="0" horiz-adv-x="643" 
d="M282 62q88 0 151 65t63 190q0 70 -37.5 105t-103.5 35q-88 0 -150.5 -66t-62.5 -192q0 -69 37 -103t103 -34zM268 -12q-101 0 -157 51t-56 147q0 161 90 252.5t224 91.5q101 0 157.5 -51.5t56.5 -148.5q0 -159 -91 -250.5t-224 -91.5z" />
    <glyph glyph-name="one" unicode="1" horiz-adv-x="389" 
d="M317 0h-318l13 71h130l70 374h-106l12 67h184l-82 -441h110z" />
    <glyph glyph-name="two" unicode="2" horiz-adv-x="531" 
d="M427 0h-404l1 72q61 39 179 122q103 71 143.5 111t40.5 83q0 34 -30.5 51.5t-78.5 17.5q-75 0 -160 -34v70q99 37 183 37q78 0 125.5 -31t47.5 -91q0 -40 -20.5 -77.5t-67.5 -79t-92.5 -74.5t-125.5 -87l-27 -18h300z" />
    <glyph glyph-name="three" unicode="3" horiz-adv-x="467" 
d="M-60 -149l26 73q76 -17 137 -17q84 0 133.5 38.5t49.5 110.5q0 88 -151 88q-33 0 -52 -1q14 56 14 71q27 3 53 3q38 0 77 -6q50 29 76.5 78.5t26.5 83.5q0 42 -29 63t-74 21q-75 0 -150 -25l6 72q84 26 152 26q77 0 128.5 -37t51.5 -106q0 -105 -118 -202
q33 -14 54.5 -43.5t21.5 -71.5q0 -105 -83 -170.5t-202 -65.5q-75 0 -148 17z" />
    <glyph glyph-name="four" unicode="4" horiz-adv-x="616" 
d="M392 -153l-65 -4h-14l31 166h-329q2 10 12 79l269 440h88l-273 -448h246l25 134l28 103h69l-44 -236h107l-13 -72h-107z" />
    <glyph glyph-name="five" unicode="5" horiz-adv-x="522" 
d="M-29 -142l26 74q80 -25 156 -25q84 0 139 41t55 140q0 102 -135 102h-133l59 322h361l-17 -72h-279l-33 -178h66q201 0 201 -151q0 -69 -26 -124t-69 -87t-93 -49t-103 -17q-94 0 -175 24z" />
    <glyph glyph-name="six" unicode="6" horiz-adv-x="559" 
d="M538 674l-19 -74q-40 8 -84 8q-106 0 -176 -65t-101 -175q93 38 172 38q78 0 125 -36t47 -112q0 -109 -68 -189.5t-188 -80.5q-98 0 -148 57.5t-50 162.5q0 126 49.5 234.5t140.5 174t204 65.5q58 0 96 -8zM142 301q-8 -40 -8 -81q0 -79 34 -119.5t91 -40.5
q70 0 113.5 55t43.5 125q0 94 -116 94q-75 0 -158 -33z" />
    <glyph glyph-name="seven" unicode="7" horiz-adv-x="485" 
d="M88 -154h-83l386 594h-334l9 72h424l-10 -57z" />
    <glyph glyph-name="eight" unicode="8" horiz-adv-x="560" 
d="M412 336q71 -41 71 -121q0 -94 -79 -160.5t-179 -66.5q-84 0 -136.5 38.5t-52.5 106.5q0 120 137 216q-66 44 -66 112q0 99 75 160t176 61q81 0 128 -38t47 -103q0 -106 -121 -205zM222 323q-41 -30 -68.5 -76t-27.5 -88q0 -44 30 -71.5t83 -27.5q68 0 112 41.5t44 98.5
q0 20 -9 35.5t-20 26t-38 22.5t-45.5 18.5t-60.5 20.5zM353 357q94 80 94 166q0 42 -30 64.5t-82 22.5q-57 0 -99 -33.5t-42 -95.5q0 -42 31.5 -68.5t127.5 -55.5z" />
    <glyph glyph-name="nine" unicode="9" horiz-adv-x="551" 
d="M8 -158l19 74q40 -8 84 -8q106 0 176 65t101 175q-93 -38 -172 -38q-78 0 -125 36t-47 112q0 109 68 189.5t188 80.5q98 0 148 -57.5t50 -162.5q0 -126 -49.5 -234.5t-140.5 -174t-204 -65.5q-58 0 -96 8zM404 215q8 40 8 81q0 79 -34 119.5t-91 40.5q-70 0 -113.5 -55
t-43.5 -125q0 -94 116 -94q75 0 158 33z" />
    <glyph glyph-name="colon" unicode=":" horiz-adv-x="298" 
d="M155 0h-112l19 100h112zM219 346h-112l19 100h112z" />
    <glyph glyph-name="semicolon" unicode=";" horiz-adv-x="297" 
d="M219 346h-112l19 100h112zM61 -132l-39 26q46 58 71 102l-50 8l18 96h112q-9 -120 -112 -232z" />
    <glyph glyph-name="less" unicode="&#x3c;" horiz-adv-x="600" 
d="M459 0l-404 198l22 118l477 199l-16 -85l-426 -173l362 -173z" />
    <glyph glyph-name="equal" unicode="=" horiz-adv-x="600" 
d="M532 149h-470v69h470v-69zM532 313h-470v69h470v-69z" />
    <glyph glyph-name="greater" unicode="&#x3e;" horiz-adv-x="600" 
d="M515 198l-476 -198l15 84l426 173l-362 173l16 85l403 -199z" />
    <glyph glyph-name="question" unicode="?" horiz-adv-x="434" 
d="M171 170l-75 22q-2 20 -2 28q0 107 126 176q43 24 65.5 39t41.5 43.5t19 64.5q0 64 -97 64q-60 0 -140 -23l4 74q82 24 160 24q79 0 117 -34t38 -88q0 -64 -35.5 -115t-136.5 -106q-54 -29 -70 -55t-16 -76q0 -24 1 -38zM154 0h-101l20 104l96 -25z" />
    <glyph glyph-name="at" unicode="@" horiz-adv-x="798" 
d="M497 -108l8 -61q-50 -9 -93 -9q-163 0 -268 93t-105 275q0 87 27 166.5t77 143t128 101.5t173 38q146 0 223.5 -72.5t77.5 -191.5q0 -50 -10.5 -102.5t-33.5 -106.5t-67.5 -88.5t-103.5 -34.5q-89 0 -89 31l1 27q-62 -48 -119 -48q-40 0 -68 32t-28 92q0 108 54.5 179
t165.5 71q53 0 104 -15l-47 -313h21q42 0 74 28t47.5 71.5t23 83.5t7.5 75q0 111 -61.5 165.5t-172.5 54.5q-103 0 -181 -55.5t-116.5 -143.5t-38.5 -193q0 -138 79.5 -220t219.5 -82q49 0 91 9zM445 163l31 198q-25 5 -44 5q-67 0 -101 -52t-34 -126q0 -77 46 -77
q50 0 102 52z" />
    <glyph glyph-name="A" unicode="A" horiz-adv-x="603" 
d="M540 0h-88l-21 125h-299l-58 -125h-97l326 670h116zM165 197h254l-68 404z" />
    <glyph glyph-name="B" unicode="B" horiz-adv-x="594" 
d="M536 533q0 -91 -96 -180q38 -14 63 -46t25 -79q0 -108 -83 -168t-197 -60h-194l101 670h173q208 0 208 -137zM259 74q70 0 124 36t54 107q0 40 -28 64t-71 24h-151l-35 -231h107zM198 378h170q75 61 75 135q0 42 -34 63t-93 21h-85z" />
    <glyph glyph-name="B" unicode="&#xe000;" horiz-adv-x="594" 
d="M536 533q0 -91 -96 -180q38 -14 63 -46t25 -79q0 -108 -83 -168t-197 -60h-194l101 670h173q208 0 208 -137zM259 74q70 0 124 36t54 107q0 40 -28 64t-71 24h-151l-35 -231h107zM198 378h170q75 61 75 135q0 42 -34 63t-93 21h-85z" />
    <glyph glyph-name="C" unicode="C" horiz-adv-x="621" 
d="M498 456l22 142q-42 11 -95 11q-50 0 -96.5 -20.5t-86.5 -60.5t-64 -108t-24 -155q0 -112 49.5 -157.5t140.5 -45.5q79 0 179 35l11 -73q-100 -36 -215 -36q-134 0 -196 72t-62 190q0 195 104 313.5t279 118.5q94 0 162 -26l-32 -200h-76z" />
    <glyph glyph-name="D" unicode="D" horiz-adv-x="675" 
d="M630 412q0 -82 -22.5 -154.5t-67.5 -131t-120.5 -92.5t-172.5 -34h-193l100 670h194q133 0 207.5 -64t74.5 -194zM257 74q130 0 205 90.5t75 236.5q0 100 -44.5 148t-156.5 48h-106l-78 -523h105z" />
    <glyph glyph-name="E" unicode="E" horiz-adv-x="550" 
d="M54 0l100 670h400l-20 -73h-304l-32 -216h257l-11 -73h-257l-35 -234h312l-11 -74h-399z" />
    <glyph glyph-name="E" unicode="&#xe001;" horiz-adv-x="550" 
d="M54 0l100 670h400l-20 -73h-304l-32 -216h257l-11 -73h-257l-35 -234h312l-11 -74h-399z" />
    <glyph glyph-name="F" unicode="F" horiz-adv-x="533" 
d="M54 0l100 670h400l-20 -73h-304l-34 -228h264l-12 -73h-263l-44 -296h-87z" />
    <glyph glyph-name="G" unicode="G" horiz-adv-x="672" 
d="M626 655l-22 -80q-83 34 -168 34q-53 0 -102 -20t-90 -60t-66 -107t-25 -152q0 -208 192 -208q71 0 153 33l27 175l73 11h15l-36 -242q-141 -51 -246 -51q-141 0 -206 74t-65 196q0 192 107.5 308t293.5 116q96 0 165 -27z" />
    <glyph glyph-name="H" unicode="H" horiz-adv-x="735" 
d="M597 0h-87l45 302h-369l-45 -302h-87l100 670h87l-44 -292h369l44 292h87z" />
    <glyph glyph-name="I" unicode="I" horiz-adv-x="404" 
d="M313 0h-304l9 67h108l78 535h-105l10 68h304l-10 -68h-112l-78 -535h109z" />
    <glyph glyph-name="J" unicode="J" horiz-adv-x="318" 
d="M-23 -196l-29 64q77 41 110.5 82.5t43.5 110.5l81 534h-111l11 75h197l-87 -583q-12 -85 -41.5 -138t-94.5 -99q-36 -26 -80 -46z" />
    <glyph glyph-name="K" unicode="K" horiz-adv-x="560" 
d="M509 0h-105l-216 313l-47 -313h-87l100 670h87l-50 -338l276 338h108l-293 -346z" />
    <glyph glyph-name="L" unicode="L" horiz-adv-x="464" 
d="M410 0h-356l100 670h87l-89 -596h269z" />
    <glyph glyph-name="M" unicode="M" horiz-adv-x="876" 
d="M433 0h-90l-98 469l-13 114h-6l-87 -583h-85l100 670h137l113 -570l303 570h131l-100 -670h-87l87 583h-6l-46 -114z" />
    <glyph glyph-name="N" unicode="N" horiz-adv-x="732" 
d="M594 0h-124l-197 457l-38 127h-7l-87 -584h-87l100 670h122l194 -457l41 -134h7l89 591h87z" />
    <glyph glyph-name="O" unicode="O" 
d="M320 -12q-124 0 -191 72t-67 200q0 192 102.5 307t258.5 115q123 0 190 -73t67 -198q0 -192 -101.5 -307.5t-258.5 -115.5zM331 62q103 0 179.5 89t76.5 249q0 102 -47.5 155.5t-127.5 53.5q-103 0 -180 -90t-77 -252q0 -100 47 -152.5t129 -52.5z" />
    <glyph glyph-name="P" unicode="P" horiz-adv-x="542" 
d="M154 670h180q92 0 144.5 -42t52.5 -125q0 -121 -73 -187.5t-187 -66.5h-92l-37 -249h-88zM231 597l-41 -275h93q76 0 115.5 46t39.5 126q0 103 -114 103h-93z" />
    <glyph glyph-name="Q" unicode="Q" 
d="M574 -175l-377 57l21 73l378 -54zM320 -12q-124 0 -191 72t-67 200q0 192 102.5 307t258.5 115q123 0 190 -73t67 -198q0 -192 -101.5 -307.5t-258.5 -115.5zM331 62q103 0 179.5 89t76.5 249q0 102 -47.5 155.5t-127.5 53.5q-103 0 -180 -90t-77 -252q0 -100 47 -152.5
t129 -52.5z" />
    <glyph glyph-name="R" unicode="R" horiz-adv-x="594" 
d="M544 514q0 -133 -148 -230l128 -284h-96l-111 269h-135l-40 -269h-88l100 670h191q95 0 147 -41t52 -115zM231 597l-38 -256h164q37 24 64.5 65t27.5 90q0 43 -28 72t-83 29h-107z" />
    <glyph glyph-name="S" unicode="S" horiz-adv-x="523" 
d="M333 682q78 0 154 -20l-13 -79q-82 26 -150 26q-62 0 -102 -29.5t-40 -90.5q0 -37 27.5 -62t98.5 -60q72 -35 113 -73.5t41 -96.5q0 -54 -24 -96t-64 -65.5t-84.5 -35.5t-90.5 -12q-75 0 -170 19l12 78q80 -23 148 -23q81 0 131.5 32t50.5 90q0 38 -31.5 63.5t-89.5 52.5
q-77 36 -118 78.5t-41 108.5q0 89 69 142t173 53z" />
    <glyph glyph-name="S" unicode="&#xe002;" horiz-adv-x="523" 
d="M333 682q78 0 154 -20l-13 -79q-82 26 -150 26q-62 0 -102 -29.5t-40 -90.5q0 -37 27.5 -62t98.5 -60q72 -35 113 -73.5t41 -96.5q0 -54 -24 -96t-64 -65.5t-84.5 -35.5t-90.5 -12q-75 0 -170 19l12 78q80 -23 148 -23q81 0 131.5 32t50.5 90q0 38 -31.5 63.5t-89.5 52.5
q-77 36 -118 78.5t-41 108.5q0 89 69 142t173 53z" />
    <glyph glyph-name="T" unicode="T" horiz-adv-x="521" 
d="M257 0h-87l89 597h-197l11 73h489l-21 -73h-195z" />
    <glyph glyph-name="U" unicode="U" horiz-adv-x="682" 
d="M584 226q-17 -115 -91.5 -176.5t-193.5 -61.5q-102 0 -161.5 50.5t-59.5 142.5q0 22 5 58l64 431h87l-62 -416q-7 -43 -7 -62q0 -62 41 -96t104 -34q87 0 132 48.5t56 122.5l65 437h87z" />
    <glyph glyph-name="V" unicode="V" horiz-adv-x="599" 
d="M317 -8h-116l-129 678h90l109 -609l272 609h94z" />
    <glyph glyph-name="W" unicode="W" horiz-adv-x="933" 
d="M583 670l50 -508l4 -92h7l26 92l184 508h94l-255 -676h-126l-51 500l-3 90h-4l-30 -90l-204 -500h-118l-59 676h89l40 -504v-96h7l31 93l204 507h114z" />
    <glyph glyph-name="X" unicode="X" horiz-adv-x="589" 
d="M610 670l-257 -330l171 -340h-97l-129 271l-208 -271h-103l271 342l-168 328h96l125 -262l195 262h104z" />
    <glyph glyph-name="Y" unicode="Y" horiz-adv-x="540" 
d="M269 0h-88l36 240l-151 430h92l113 -347l209 347h96l-271 -430z" />
    <glyph glyph-name="Z" unicode="Z" horiz-adv-x="565" 
d="M566 670l-12 -80l-448 -516h376l-11 -74h-459l13 89l439 508h-357l11 73h448z" />
    <glyph glyph-name="bracketleft" unicode="[" horiz-adv-x="284" 
d="M170 -239h-178l182 983h169l-12 -63h-99l-159 -857h109z" />
    <glyph glyph-name="backslash" unicode="\" horiz-adv-x="380" 
d="M256 -221h-76l-76 899h79z" />
    <glyph glyph-name="bracketright" unicode="]" horiz-adv-x="293" 
d="M111 -239h-178l12 63h108l159 857h-99l12 63h169z" />
    <glyph glyph-name="asciicircum" unicode="^" horiz-adv-x="522" 
d="M425 332h-79l-65 270h-2l-168 -270h-78l220 339h81z" />
    <glyph glyph-name="underscore" unicode="_" horiz-adv-x="426" 
d="M348 -136h-389l13 69h389z" />
    <glyph glyph-name="grave" unicode="`" horiz-adv-x="520" 
d="M262 539l-138 113l53 56l129 -119z" />
    <glyph glyph-name="a" unicode="a" horiz-adv-x="524" 
d="M351 134l41 271q-31 7 -66 7q-104 0 -154.5 -66t-50.5 -175q0 -111 74 -111q36 0 80.5 22t75.5 52zM337 0l2 53q-81 -65 -167 -65q-57 0 -96 44t-39 128q0 148 73.5 236t231.5 88q63 0 138 -21l-69 -463h-74z" />
    <glyph glyph-name="b" unicode="b" horiz-adv-x="530" 
d="M165 338l-44 -271q31 -7 65 -7q105 0 160 67t55 174q0 111 -81 111q-35 0 -77 -21.5t-78 -52.5zM31 9l109 710l71 10h10l-44 -308q79 63 166 63q62 0 101 -43t39 -129q0 -147 -77 -235.5t-236 -88.5q-64 0 -139 21z" />
    <glyph glyph-name="b" unicode="&#xe003;" horiz-adv-x="530" 
d="M165 338l-44 -271q31 -7 65 -7q105 0 160 67t55 174q0 111 -81 111q-35 0 -77 -21.5t-78 -52.5zM31 9l109 710l71 10h10l-44 -308q79 63 166 63q62 0 101 -43t39 -129q0 -147 -77 -235.5t-236 -88.5q-64 0 -139 21z" />
    <glyph glyph-name="c" unicode="c" horiz-adv-x="449" 
d="M380 87v-75q-67 -24 -149 -24q-96 0 -143.5 55.5t-47.5 150.5q0 140 70 214.5t199 74.5q59 0 114 -16l-17 -75q-59 19 -108 19q-174 0 -174 -215q0 -73 31 -104.5t93 -31.5t132 27z" />
    <glyph glyph-name="d" unicode="d" horiz-adv-x="529" 
d="M352 137l42 268q-31 7 -67 7q-104 0 -155 -66.5t-51 -175.5q0 -52 20.5 -81t58.5 -29q37 0 80 22.5t72 54.5zM405 479l41 240l69 10h10l-113 -729h-77l5 53q-81 -65 -161 -65q-64 0 -103 45.5t-39 125.5q0 148 74 236.5t232 88.5q27 0 62 -5z" />
    <glyph glyph-name="e" unicode="e" horiz-adv-x="480" 
d="M385 88v-74q-85 -26 -162 -26q-99 0 -142.5 48.5t-43.5 142.5q0 138 74 221.5t189 83.5q72 0 108 -38t36 -90q0 -39 -13.5 -68.5t-39.5 -48t-55 -30.5t-69.5 -17t-72 -7t-73.5 -2q0 -123 109 -123q69 0 155 28zM127 250q41 0 65 0.5t60.5 5.5t56.5 14t35.5 27.5
t15.5 44.5q0 38 -21 54.5t-51 16.5q-62 0 -106 -44.5t-55 -118.5z" />
    <glyph glyph-name="f" unicode="f" horiz-adv-x="360" 
d="M-164 -251l11 74q36 -12 69 -12q36 0 62 14t41 41t22.5 53t13.5 63l63 419h-72l9 54l73 15l9 54q5 33 11.5 57.5t20.5 55t34 49.5t53.5 32.5t77.5 13.5q57 0 110 -15l-19 -72q-48 16 -90 16q-55 0 -81.5 -33.5t-38.5 -113.5l-7 -44h159l-10 -69h-159l-65 -433
q-7 -49 -20.5 -86.5t-37 -71.5t-63 -52.5t-93.5 -18.5q-47 0 -83 10z" />
    <glyph glyph-name="g" unicode="g" horiz-adv-x="524" 
d="M349 134l42 272q-31 7 -66 7q-104 0 -154.5 -65.5t-50.5 -174.5q0 -113 78 -113q35 0 77 21.5t74 52.5zM325 -34l12 85q-79 -63 -158 -63q-61 0 -102 44t-41 130q0 148 73.5 235.5t231.5 87.5q63 0 138 -21l-77 -519q-14 -97 -74.5 -152t-164.5 -55q-83 0 -160 21l15 77
q80 -25 135 -25q84 0 123 41.5t49 113.5z" />
    <glyph glyph-name="h" unicode="h" horiz-adv-x="532" 
d="M222 729l-46 -305q92 61 165 61q64 0 98 -32t34 -90q0 -14 -4 -46l-48 -317h-80l44 287q6 48 6 59q0 31 -15.5 49t-55.5 18q-39 0 -83 -24t-74 -54l-50 -335h-80l107 719l72 10h10z" />
    <glyph glyph-name="i" unicode="i" horiz-adv-x="227" 
d="M112 0h-80l70 467l71 10h10zM215 624l-104 -14l15 100h101z" />
    <glyph glyph-name="j" unicode="j" horiz-adv-x="226" 
d="M-68 -257l-24 58q58 39 85.5 83.5t36.5 108.5l72 474l70 10h10l-70 -474q-6 -41 -15 -71t-28 -65.5t-53 -66.5t-84 -57zM215 624l-104 -14l15 100h101z" />
    <glyph glyph-name="k" unicode="k" horiz-adv-x="450" 
d="M400 0h-89l-160 255l-38 -255h-80l108 719l72 10h10l-71 -468q70 55 112 101.5t68 107.5h90q-30 -64 -74.5 -113t-112.5 -101z" />
    <glyph glyph-name="l" unicode="l" horiz-adv-x="229" 
d="M113 0h-80l108 719l70 10h12z" />
    <glyph glyph-name="m" unicode="m" horiz-adv-x="803" 
d="M452 335l-49 -335h-80l41 285q0 2 2.5 16.5t4 28t1.5 19.5q0 62 -55 62q-39 0 -82 -23t-73 -53l-49 -335h-80l68 463l61 9h11l-2 -52q95 63 167 63q86 0 109 -73q34 23 53 34.5t56 25t72 13.5q57 0 86.5 -32.5t29.5 -86.5q0 -15 -3 -33l-48 -331h-80l41 285q8 48 8 64
q0 62 -55 62q-39 0 -82 -23t-73 -53z" />
    <glyph glyph-name="n" unicode="n" horiz-adv-x="531" 
d="M420 0h-80l44 287q6 48 6 59q0 31 -15.5 49t-55.5 18q-39 0 -82.5 -23t-73.5 -53l-51 -337h-80l70 465l61 9h11l-2 -52q94 63 168 63q64 0 98 -32t34 -90q0 -14 -4 -46z" />
    <glyph glyph-name="o" unicode="o" horiz-adv-x="536" 
d="M237 60q85 0 124 64.5t39 161.5q0 60 -25 93t-88 33q-162 0 -162 -220q0 -132 112 -132zM233 -12q-92 0 -142 51t-50 144q0 144 62.5 222.5t187.5 78.5q93 0 143 -48.5t50 -140.5q0 -144 -63 -225.5t-188 -81.5z" />
    <glyph glyph-name="p" unicode="p" horiz-adv-x="528" 
d="M163 338l-42 -271q31 -7 65 -7q104 0 158.5 68t54.5 176t-81 108q-35 0 -77 -21.5t-78 -52.5zM109 -7l-35 -237l-71 -10h-10l109 718l71 11h6l-4 -54q79 63 166 63q62 0 101 -41.5t39 -127.5q0 -148 -76.5 -237.5t-234.5 -89.5q-26 0 -61 5z" />
    <glyph glyph-name="q" unicode="q" horiz-adv-x="522" 
d="M352 134l38 272q-31 7 -66 7q-103 0 -152.5 -65.5t-49.5 -174.5q0 -113 74 -113q36 0 80.5 22t75.5 52zM478 464l-103 -706l-71 -10h-10l46 305q-81 -65 -167 -65q-60 0 -97.5 43.5t-37.5 130.5q0 71 16.5 128.5t51 102t94 68.5t140.5 24q63 0 138 -21z" />
    <glyph glyph-name="r" unicode="r" horiz-adv-x="335" 
d="M342 477l-12 -79q-6 1 -16 1q-42 0 -79 -23.5t-78 -74.5l-44 -301h-80l69 466l61 9h11l-7 -83h3q68 87 151 87q13 0 21 -2z" />
    <glyph glyph-name="s" unicode="s" horiz-adv-x="395" 
d="M245 484q47 0 106 -13l-15 -76q-49 17 -100 17q-91 0 -91 -59q0 -25 19.5 -43t47 -31.5t55 -29.5t47 -45t19.5 -70q0 -72 -54 -109t-134 -37q-61 0 -133 18l17 74q75 -20 117 -20q104 0 104 67q0 27 -19.5 46t-47 32.5t-55 29t-47 44t-19.5 69.5q0 64 49 100t134 36z" />
    <glyph glyph-name="s" unicode="&#xe004;" horiz-adv-x="395" 
d="M245 484q47 0 106 -13l-15 -76q-49 17 -100 17q-91 0 -91 -59q0 -25 19.5 -43t47 -31.5t55 -29.5t47 -45t19.5 -70q0 -72 -54 -109t-134 -37q-61 0 -133 18l17 74q75 -20 117 -20q104 0 104 67q0 27 -19.5 46t-47 32.5t-55 29t-47 44t-19.5 69.5q0 64 49 100t134 36z" />
    <glyph glyph-name="t" unicode="t" horiz-adv-x="357" 
d="M195 401l-41 -275q-2 -10 -2 -18q0 -49 56 -49q34 0 79 17l-3 -70q-52 -18 -102 -18q-111 0 -111 103q0 18 3 40l41 270h-72l9 54l74 15l20 133l74 16h8l-22 -149h150l-11 -69h-150z" />
    <glyph glyph-name="u" unicode="u" horiz-adv-x="531" 
d="M98 467l72 10h9l-44 -291q0 -2 -2 -14.5t-3.5 -24.5t-1.5 -20q0 -31 15.5 -49t55.5 -18t83.5 23t73.5 53l50 331l72 10h9l-72 -477h-70l2 51q-95 -63 -169 -63q-64 0 -98 32t-34 90q0 14 4 46z" />
    <glyph glyph-name="v" unicode="v" horiz-adv-x="445" 
d="M127 470l60 -403h4l178 403h86l-223 -480h-109l-78 480h82z" />
    <glyph glyph-name="w" unicode="w" horiz-adv-x="699" 
d="M402 -9l-50 287l-133 -287h-104l-64 479h81l47 -399l149 320l-11 79h79l66 -398l153 398h84l-193 -479h-104z" />
    <glyph glyph-name="x" unicode="x" horiz-adv-x="470" 
d="M81 0h-91l190 254l-124 216h91l88 -161l115 161h92l-169 -223l149 -247h-93l-110 190z" />
    <glyph glyph-name="y" unicode="y" horiz-adv-x="464" 
d="M129 -253h-84l117 243h-26l-94 480h83l71 -393h7l186 393h85z" />
    <glyph glyph-name="y" unicode="&#xe006;" horiz-adv-x="464" 
d="M129 -253h-84l117 243h-26l-94 480h83l71 -393h7l186 393h85z" />
    <glyph glyph-name="z" unicode="z" horiz-adv-x="457" 
d="M74 401l11 69h347l-12 -80l-316 -320h278l-11 -70h-367l11 76l313 325h-254z" />
    <glyph glyph-name="braceleft" unicode="{" horiz-adv-x="350" 
d="M259 -169l-5 -69q-54 -6 -81 -6q-130 0 -136 109v8q0 42 33.5 146t33.5 140q0 59 -60 59h-33l13 72h33q40 0 61 25.5t26.5 66t7 90t9 99t24.5 90t61 66t112 25.5q25 0 79 -6l-21 -69q-35 8 -75 8q-46 0 -73 -29.5t-34 -74t-12 -98t-8.5 -100.5t-22 -83t-53.5 -44l-1 -4
q23 -21 33 -45t10 -51q0 -45 -35.5 -138t-35.5 -134q0 -61 73 -61q39 0 77 8z" />
    <glyph glyph-name="bar" unicode="|" horiz-adv-x="241" 
d="M62 -220h-67l183 987h67z" />
    <glyph glyph-name="braceright" unicode="}" horiz-adv-x="312" 
d="M-130 -238l21 69q35 -8 74 -8q84 0 101 84q6 31 8 90.5t5.5 99t25 84.5t63.5 71l1 4q-42 31 -42 81q0 53 35 149t35 138q0 61 -73 61q-39 0 -77 -8l5 69q54 6 81 6q136 0 136 -109q0 -35 -35.5 -139t-35.5 -151q0 -63 64 -63h33l-13 -72h-33q-39 0 -62 -21t-31 -58.5
t-10.5 -74.5t-3.5 -84.5t-6 -73.5q-28 -150 -187 -150q-25 0 -79 6z" />
    <glyph glyph-name="asciitilde" unicode="~" horiz-adv-x="611" 
d="M531 297v-65q-57 -25 -113 -25q-43 0 -118.5 19t-114.5 19q-59 0 -114 -29l4 69q68 32 138 32q45 0 120.5 -18.5t112.5 -18.5q46 0 85 17z" />
    <glyph glyph-name="exclamdown" unicode="&#xa1;" horiz-adv-x="242" 
d="M93 -173h-99l103 477l70 -20zM198 391l-96 29l15 79h101z" />
    <glyph glyph-name="cent" unicode="&#xa2;" horiz-adv-x="472" 
d="M385 87v-75q-51 -18 -120 -23l-17 -95h-62l18 96q-80 9 -119.5 63t-39.5 141q0 135 65 209t185 79l18 97h62l-18 -98q35 -4 71 -14l-17 -75q-59 19 -108 19q-174 0 -174 -215q0 -73 31 -104.5t93 -31.5t132 27z" />
    <glyph glyph-name="sterling" unicode="&#xa3;" horiz-adv-x="530" 
d="M432 0h-426l23 61q25 0 40.5 3.5t34.5 17t32.5 45.5t22.5 83l14 79h-89l12 61h89l13 71q42 226 280 256l-1 -71q-88 -9 -136.5 -49.5t-65.5 -138.5l-12 -68h171l-12 -61h-171l-15 -82q-19 -103 -74 -146h281z" />
    <glyph glyph-name="currency" unicode="&#xa4;" horiz-adv-x="520" 
d="M370 49l-61 72q-38 -19 -79 -19q-44 0 -75 20l-87 -73l-41 52l85 72q-10 20 -10 49q0 57 38 107l-58 72l62 52l59 -72q40 21 82 21q43 0 75 -20l84 71l42 -52l-84 -70q11 -25 11 -54q0 -52 -40 -105l58 -71zM242 167q39 0 67 30.5t28 71.5q0 30 -17 49t-47 19
q-39 0 -67 -31t-28 -73q0 -29 17 -47.5t47 -18.5z" />
    <glyph glyph-name="yen" unicode="&#xa5;" horiz-adv-x="618" 
d="M292 0h-87l23 122h-160l11 61h160l11 57l-4 12h-154l11 61h123l-113 357h100l98 -343l224 343h97l-246 -357h121l-11 -61h-151l-8 -12l-11 -57h157l-11 -61h-157z" />
    <glyph glyph-name="brokenbar" unicode="&#xa6;" horiz-adv-x="240" 
d="M167 363h-67l75 404h67zM59 -220h-67l75 406h67z" />
    <glyph glyph-name="section" unicode="&#xa7;" horiz-adv-x="487" 
d="M-23 -160l19 71q72 -19 135 -19q59 0 100.5 27t41.5 76q0 23 -23 41t-56 31.5t-66 30t-56 46t-23 69.5q0 93 94 143q-37 37 -37 87q0 80 67 129t161 49q71 0 124 -18l-21 -70q-61 19 -116 19q-52 0 -91.5 -22t-39.5 -70q0 -27 23 -46.5t56 -33t66 -29t56 -42.5t23 -64
q0 -46 -24 -80.5t-69 -70.5q36 -31 36 -78q0 -63 -39 -108.5t-93 -65t-115 -19.5q-69 0 -133 17zM229 144l40 -17q29 20 45 46t16 50q0 28 -23 45.5t-71 38.5l-38 16q-65 -35 -65 -92q0 -28 23 -46.5t73 -40.5z" />
    <glyph glyph-name="dieresis" unicode="&#xa8;" horiz-adv-x="474" 
d="M365 584h-97l17 88h97zM191 584h-97l17 88h97z" />
    <glyph glyph-name="copyright" unicode="&#xa9;" horiz-adv-x="800" 
d="M510 206v-48q-63 -20 -129 -20q-153 0 -153 141q0 114 67.5 185.5t172.5 71.5q42 0 100 -18l-27 -116l-46 4l16 75q-30 5 -56 5q-66 0 -116 -49t-50 -148q0 -104 110 -104q50 0 111 21zM354 45q132 0 237 104t105 238q0 101 -65.5 168.5t-169.5 67.5q-133 0 -237 -104.5
t-104 -239.5q0 -100 65.5 -167t168.5 -67zM762 397q0 -102 -57.5 -196.5t-155 -153.5t-206.5 -59q-127 0 -208 80t-81 202q0 107 60 202.5t156.5 151.5t201.5 56q127 0 208.5 -80.5t81.5 -202.5z" />
    <glyph glyph-name="ordfeminine" unicode="&#xaa;" horiz-adv-x="369" 
d="M256 627q-56 0 -88 -46t-32 -111q0 -33 9 -47.5t31 -14.5q34 0 92 41l26 174q-20 4 -38 4zM312 367h-54l4 33q-49 -40 -95 -40q-90 0 -90 101q0 91 51 153.5t149 62.5q37 0 80 -13z" />
    <glyph glyph-name="guillemotleft" unicode="&#xab;" horiz-adv-x="414" 
d="M327 89l-59 -29l-81 207l158 207l46 -29l-137 -177zM172 89l-59 -29l-81 207l158 207l46 -29l-137 -177z" />
    <glyph glyph-name="logicalnot" unicode="&#xac;" horiz-adv-x="618" 
d="M531 80h-69v151h-401v69h470v-220z" />
    <glyph glyph-name="registered" unicode="&#xae;" horiz-adv-x="800" 
d="M354 45q132 0 237 104t105 238q0 101 -65.5 168.5t-169.5 67.5q-133 0 -237 -104.5t-104 -239.5q0 -100 65.5 -167t168.5 -67zM762 397q0 -102 -57.5 -196.5t-155 -153.5t-206.5 -59q-127 0 -208 80t-81 202q0 107 60 202.5t156.5 151.5t201.5 56q127 0 208.5 -80.5
t81.5 -202.5zM542 154h-67l-64 144h-70l-27 -144h-58l70 376h123q51 0 79 -22.5t28 -62.5q0 -81 -88 -129zM350 346h86q24 13 41.5 39t17.5 53q0 45 -63 45h-57z" />
    <glyph glyph-name="macron" unicode="&#xaf;" horiz-adv-x="429" 
d="M355 567h-293l11 63h293z" />
    <glyph glyph-name="degree" unicode="&#xb0;" horiz-adv-x="303" 
d="M181 514q28 0 49.5 19.5t21.5 56.5q0 23 -13.5 35t-34.5 12q-28 0 -50 -20.5t-22 -57.5q0 -45 49 -45zM301 596q0 -50 -37.5 -87.5t-90.5 -37.5q-39 0 -64 22t-25 60q0 54 39.5 90.5t88.5 36.5q39 0 64 -23t25 -61z" />
    <glyph glyph-name="plusminus" unicode="&#xb1;" horiz-adv-x="600" 
d="M521 281h-201v-172h-69v172h-200v68h200v201h69v-201h201v-68zM521 0h-470v69h470v-69z" />
    <glyph glyph-name="twosuperior" unicode="&#xb2;" horiz-adv-x="427" 
d="M367 292h-303l3 61l141 97q57 40 91 78.5t34 84.5q0 58 -72 58q-53 0 -124 -30v62q74 27 136 27t98 -25.5t36 -76.5q0 -19 -5 -37.5t-11 -34t-19.5 -33t-22.5 -29t-29 -28.5l-30 -25.5t-34 -25t-32.5 -22t-34.5 -22t-31 -19.5h220z" />
    <glyph glyph-name="threesuperior" unicode="&#xb3;" horiz-adv-x="405" 
d="M55 292l18 59q75 -15 112 -15q53 0 82 23t29 64q0 56 -88 56q-24 0 -49 -3l11 58q21 3 45 3q36 0 60 -6q48 43 48 84q0 25 -17 41.5t-55 16.5q-52 0 -109 -22l2 59q63 21 127 21q56 0 90.5 -26t34.5 -69q0 -66 -71 -126q45 -26 45 -78q0 -72 -57.5 -113t-139.5 -41
q-52 0 -118 14z" />
    <glyph glyph-name="acute" unicode="&#xb4;" horiz-adv-x="520" 
d="M381 651l-180 -113l-26 50l173 119z" />
    <glyph glyph-name="paragraph" unicode="&#xb6;" horiz-adv-x="635" 
d="M311 -257l-23 58q60 39 89 83.5t41 108.5l112 603h-68l-111 -596h-88l46 249h-47q-92 0 -145 42.5t-53 122.5q0 125 79 190.5t197 65.5h283l-123 -667q-10 -55 -25.5 -94.5t-56.5 -85.5t-107 -80z" />
    <glyph glyph-name="periodcentered" unicode="&#xb7;" horiz-adv-x="277" 
d="M183 217h-112l19 100h112z" />
    <glyph glyph-name="cedilla" unicode="&#xb8;" horiz-adv-x="427" 
d="M128 -255l8 52q11 -1 22 -1q98 0 98 55q0 29 -53 29q-8 0 -18 -1l-23 33l64 88h72l-58 -71l2 -3q79 -1 79 -60q0 -51 -40.5 -86.5t-129.5 -35.5q-14 0 -23 1z" />
    <glyph glyph-name="onesuperior" unicode="&#xb9;" horiz-adv-x="372" 
d="M317 292h-257l11 60h108l59 313h-87l11 60h151l-70 -373h85z" />
    <glyph glyph-name="ordmasculine" unicode="&#xba;" horiz-adv-x="394" 
d="M201 356q-60 0 -92 32.5t-32 87.5q0 87 52 144t131 57q59 0 91.5 -32.5t32.5 -88.5q0 -86 -52.5 -143t-130.5 -57zM210 407q45 0 78 37t33 107q0 75 -70 75q-46 0 -78.5 -37t-32.5 -109q0 -73 70 -73z" />
    <glyph glyph-name="guillemotright" unicode="&#xbb;" horiz-adv-x="413" 
d="M65 60l-46 29l138 179l-73 177l58 29l82 -207zM220 60l-46 29l138 179l-73 177l58 29l82 -207z" />
    <glyph glyph-name="onequarter" unicode="&#xbc;" horiz-adv-x="941" 
d="M781 0h-64l20 105h-219l10 55l168 279h68l-165 -276h149l15 81l20 73h57l-28 -154h66l-11 -58h-66zM214 -101l-55 25l540 858l56 -25zM313 292h-257l11 60h108l59 313h-87l11 60h151l-70 -373h85z" />
    <glyph glyph-name="onehalf" unicode="&#xbd;" horiz-adv-x="937" 
d="M839 0h-303l4 61l141 97q57 40 90.5 79t33.5 85q0 57 -71 57q-53 0 -125 -30l1 62q74 27 136 27q61 0 97 -25t36 -76q0 -24 -7.5 -47.5t-16.5 -41.5t-29 -39.5t-32.5 -34t-40.5 -33t-40 -28.5t-43.5 -28t-38.5 -25h220zM206 -101l-55 25l540 858l56 -25zM305 292h-257
l11 60h108l59 313h-87l11 60h151l-70 -373h85z" />
    <glyph glyph-name="threequarters" unicode="&#xbe;" horiz-adv-x="942" 
d="M782 0h-64l20 105h-219l10 55l168 279h68l-165 -276h149l15 81l20 73h57l-28 -154h66l-11 -58h-66zM230 -101l-55 25l540 858l56 -25zM57 292l18 59q75 -15 112 -15q53 0 82 23t29 64q0 56 -88 56q-24 0 -49 -3l11 58q21 3 45 3q36 0 60 -6q48 43 48 84q0 25 -17 41.5
t-55 16.5q-52 0 -109 -22l2 59q63 21 127 21q56 0 90.5 -26t34.5 -69q0 -66 -71 -126q45 -26 45 -78q0 -72 -57.5 -113t-139.5 -41q-52 0 -118 14z" />
    <glyph glyph-name="questiondown" unicode="&#xbf;" horiz-adv-x="432" 
d="M323 -85l-4 -74q-82 -24 -160 -24q-79 0 -117 34t-38 88q0 64 35.5 115.5t136.5 105.5q54 29 70 55t16 76q0 24 -1 38l75 -22q2 -20 2 -31q0 -57 -29 -94t-83 -71q-7 -4 -34 -19t-40 -24.5t-31.5 -26.5t-27 -38t-8.5 -47q0 -64 98 -64q60 0 140 23zM359 395l-96 25l15 79
h101z" />
    <glyph glyph-name="Agrave" unicode="&#xc0;" horiz-adv-x="603" 
d="M371 723l-138 113l53 56l129 -119zM540 0h-88l-21 125h-299l-58 -125h-97l326 670h116zM165 197h254l-68 404z" />
    <glyph glyph-name="Aacute" unicode="&#xc1;" horiz-adv-x="603" 
d="M548 835l-180 -113l-26 50l173 119zM540 0h-88l-21 125h-299l-58 -125h-97l326 670h116zM165 197h254l-68 404z" />
    <glyph glyph-name="Acircumflex" unicode="&#xc2;" horiz-adv-x="603" 
d="M472 738l-96 90l-130 -90l-31 50l175 116l131 -116zM540 0h-88l-21 125h-299l-58 -125h-97l326 670h116zM165 197h254l-68 404z" />
    <glyph glyph-name="Atilde" unicode="&#xc3;" horiz-adv-x="603" 
d="M546 818l-1 -62q-62 -33 -110 -33q-28 0 -66 18t-62 18q-40 0 -95 -29l1 62q62 33 109 33q27 0 65.5 -18t63.5 -18q40 0 95 29zM540 0h-88l-21 125h-299l-58 -125h-97l326 670h116zM165 197h254l-68 404z" />
    <glyph glyph-name="Adieresis" unicode="&#xc4;" horiz-adv-x="603" 
d="M521 735h-97l17 88h97zM347 735h-97l17 88h97zM540 0h-88l-21 125h-299l-58 -125h-97l326 670h116zM165 197h254l-68 404z" />
    <glyph glyph-name="Aring" unicode="&#xc5;" horiz-adv-x="603" 
d="M384 752q25 0 45 19t20 47q0 20 -12.5 32t-31.5 12q-25 0 -45 -19.5t-20 -48.5q0 -19 12.5 -30.5t31.5 -11.5zM500 826q0 -47 -37 -82t-87 -35q-39 0 -62.5 21t-23.5 56q0 51 36.5 85t86.5 34q39 0 63 -22t24 -57zM540 0h-88l-21 125h-299l-58 -125h-97l326 670h116z
M165 197h254l-68 404z" />
    <glyph glyph-name="AE" unicode="&#xc6;" horiz-adv-x="895" 
d="M398 0l19 124h-274l-74 -124h-97l421 670h506l-20 -73h-304l-32 -216h257l-11 -73h-257l-35 -234h312l-11 -74h-400zM428 197l60 400h-57l-245 -400h242z" />
    <glyph glyph-name="Ccedilla" unicode="&#xc7;" horiz-adv-x="621" 
d="M498 456l22 142q-42 11 -95 11q-50 0 -96.5 -20.5t-86.5 -60.5t-64 -108t-24 -155q0 -112 49.5 -157.5t140.5 -45.5q79 0 179 35l11 -73q-91 -33 -195 -36l-47 -59l1 -3q81 -1 81 -61q0 -51 -40.5 -86t-128.5 -35q-14 0 -23 1l6 52q12 -1 23 -1q98 0 98 55q0 29 -54 29
q-8 0 -18 -1l-23 33l56 79q-109 13 -159 82.5t-50 176.5q0 195 104 313.5t279 118.5q94 0 162 -26l-32 -200h-76z" />
    <glyph glyph-name="Egrave" unicode="&#xc8;" horiz-adv-x="550" 
d="M376 723l-138 113l53 56l129 -119zM54 0l100 670h400l-20 -73h-304l-32 -216h257l-11 -73h-257l-35 -234h312l-11 -74h-399z" />
    <glyph glyph-name="Eacute" unicode="&#xc9;" horiz-adv-x="550" 
d="M520 837l-180 -113l-26 50l173 119zM54 0l100 670h400l-20 -73h-304l-32 -216h257l-11 -73h-257l-35 -234h312l-11 -74h-399z" />
    <glyph glyph-name="Ecircumflex" unicode="&#xca;" horiz-adv-x="550" 
d="M476 738l-96 90l-130 -90l-31 50l175 116l131 -116zM54 0l100 670h400l-20 -73h-304l-32 -216h257l-11 -73h-257l-35 -234h312l-11 -74h-399z" />
    <glyph glyph-name="Edieresis" unicode="&#xcb;" horiz-adv-x="550" 
d="M501 735h-97l17 88h97zM327 735h-97l17 88h97zM54 0l100 670h400l-20 -73h-304l-32 -216h257l-11 -73h-257l-35 -234h312l-11 -74h-399z" />
    <glyph glyph-name="Igrave" unicode="&#xcc;" horiz-adv-x="404" 
d="M261 723l-138 113l53 56l129 -119zM313 0h-304l9 67h108l78 535h-105l10 68h304l-10 -68h-112l-78 -535h109z" />
    <glyph glyph-name="Iacute" unicode="&#xcd;" horiz-adv-x="404" 
d="M443 835l-180 -113l-26 50l173 119zM313 0h-304l9 67h108l78 535h-105l10 68h304l-10 -68h-112l-78 -535h109z" />
    <glyph glyph-name="Icircumflex" unicode="&#xce;" horiz-adv-x="404" 
d="M382 722l-96 90l-130 -90l-31 50l175 116l131 -116zM313 0h-304l9 67h108l78 535h-105l10 68h304l-10 -68h-112l-78 -535h109z" />
    <glyph glyph-name="Idieresis" unicode="&#xcf;" horiz-adv-x="404" 
d="M407 735h-97l17 88h97zM233 735h-97l17 88h97zM313 0h-304l9 67h108l78 535h-105l10 68h304l-10 -68h-112l-78 -535h109z" />
    <glyph glyph-name="Eth" unicode="&#xd0;" horiz-adv-x="703" 
d="M658 412q0 -82 -22.5 -154.5t-67.5 -131t-120.5 -92.5t-172.5 -34h-193l44 300h-90l13 73h88l45 297h194q133 0 207.5 -64t74.5 -194zM285 74q130 0 205 90.5t75 236.5q0 100 -44.5 148t-156.5 48h-106l-34 -224h130l-14 -73h-127l-33 -226h105z" />
    <glyph glyph-name="Ntilde" unicode="&#xd1;" horiz-adv-x="732" 
d="M609 819l-1 -62q-62 -33 -110 -33q-28 0 -66 18t-62 18q-40 0 -95 -29l1 62q62 33 109 33q27 0 65.5 -18t63.5 -18q40 0 95 29zM594 0h-124l-197 457l-38 127h-7l-87 -584h-87l100 670h122l194 -457l41 -134h7l89 591h87z" />
    <glyph glyph-name="Ograve" unicode="&#xd2;" 
d="M452 723l-138 113l53 56l129 -119zM320 -12q-124 0 -191 72t-67 200q0 192 102.5 307t258.5 115q123 0 190 -73t67 -198q0 -192 -101.5 -307.5t-258.5 -115.5zM331 62q103 0 179.5 89t76.5 249q0 102 -47.5 155.5t-127.5 53.5q-103 0 -180 -90t-77 -252q0 -100 47 -152.5
t129 -52.5z" />
    <glyph glyph-name="Oacute" unicode="&#xd3;" 
d="M634 835l-180 -113l-26 50l173 119zM320 -12q-124 0 -191 72t-67 200q0 192 102.5 307t258.5 115q123 0 190 -73t67 -198q0 -192 -101.5 -307.5t-258.5 -115.5zM331 62q103 0 179.5 89t76.5 249q0 102 -47.5 155.5t-127.5 53.5q-103 0 -180 -90t-77 -252
q0 -100 47 -152.5t129 -52.5z" />
    <glyph glyph-name="Ocircumflex" unicode="&#xd4;" 
d="M556 722l-96 90l-130 -90l-31 50l175 116l131 -116zM320 -12q-124 0 -191 72t-67 200q0 192 102.5 307t258.5 115q123 0 190 -73t67 -198q0 -192 -101.5 -307.5t-258.5 -115.5zM331 62q103 0 179.5 89t76.5 249q0 102 -47.5 155.5t-127.5 53.5q-103 0 -180 -90t-77 -252
q0 -100 47 -152.5t129 -52.5z" />
    <glyph glyph-name="Otilde" unicode="&#xd5;" 
d="M623 818l-1 -62q-62 -33 -110 -33q-28 0 -66 18t-62 18q-40 0 -95 -29l1 62q62 33 109 33q27 0 65.5 -18t63.5 -18q40 0 95 29zM320 -12q-124 0 -191 72t-67 200q0 192 102.5 307t258.5 115q123 0 190 -73t67 -198q0 -192 -101.5 -307.5t-258.5 -115.5zM331 62
q103 0 179.5 89t76.5 249q0 102 -47.5 155.5t-127.5 53.5q-103 0 -180 -90t-77 -252q0 -100 47 -152.5t129 -52.5z" />
    <glyph glyph-name="Odieresis" unicode="&#xd6;" 
d="M556 735h-97l17 88h97zM382 735h-97l17 88h97zM320 -12q-124 0 -191 72t-67 200q0 192 102.5 307t258.5 115q123 0 190 -73t67 -198q0 -192 -101.5 -307.5t-258.5 -115.5zM331 62q103 0 179.5 89t76.5 249q0 102 -47.5 155.5t-127.5 53.5q-103 0 -180 -90t-77 -252
q0 -100 47 -152.5t129 -52.5z" />
    <glyph glyph-name="multiply" unicode="&#xd7;" horiz-adv-x="600" 
d="M454 61l-156 155l-156 -155l-49 49l156 155l-156 156l49 49l156 -156l156 156l49 -49l-156 -156l156 -155z" />
    <glyph glyph-name="Oslash" unicode="&#xd8;" 
d="M320 -12q-69 0 -123 23l-89 -132l-62 38l91 135q-75 72 -75 208q0 192 102.5 307t258.5 115q69 0 124 -25l74 109l63 -34l-78 -116q74 -74 74 -205q0 -192 -101.5 -307.5t-258.5 -115.5zM155 267q0 -87 35 -137l310 458q-38 21 -88 21q-103 0 -180 -90t-77 -252zM331 62
q103 0 179.5 89t76.5 249q0 85 -34 138l-309 -457q37 -19 87 -19z" />
    <glyph glyph-name="Ugrave" unicode="&#xd9;" horiz-adv-x="682" 
d="M430 723l-138 113l53 56l129 -119zM584 226q-17 -115 -91.5 -176.5t-193.5 -61.5q-102 0 -161.5 50.5t-59.5 142.5q0 22 5 58l64 431h87l-62 -416q-7 -43 -7 -62q0 -62 41 -96t104 -34q87 0 132 48.5t56 122.5l65 437h87z" />
    <glyph glyph-name="Uacute" unicode="&#xda;" horiz-adv-x="682" 
d="M552 835l-180 -113l-26 50l173 119zM584 226q-17 -115 -91.5 -176.5t-193.5 -61.5q-102 0 -161.5 50.5t-59.5 142.5q0 22 5 58l64 431h87l-62 -416q-7 -43 -7 -62q0 -62 41 -96t104 -34q87 0 132 48.5t56 122.5l65 437h87z" />
    <glyph glyph-name="Ucircumflex" unicode="&#xdb;" horiz-adv-x="682" 
d="M519 722l-96 90l-130 -90l-31 50l175 116l131 -116zM584 226q-17 -115 -91.5 -176.5t-193.5 -61.5q-102 0 -161.5 50.5t-59.5 142.5q0 22 5 58l64 431h87l-62 -416q-7 -43 -7 -62q0 -62 41 -96t104 -34q87 0 132 48.5t56 122.5l65 437h87z" />
    <glyph glyph-name="Udieresis" unicode="&#xdc;" horiz-adv-x="682" 
d="M549 735h-97l17 88h97zM375 735h-97l17 88h97zM584 226q-17 -115 -91.5 -176.5t-193.5 -61.5q-102 0 -161.5 50.5t-59.5 142.5q0 22 5 58l64 431h87l-62 -416q-7 -43 -7 -62q0 -62 41 -96t104 -34q87 0 132 48.5t56 122.5l65 437h87z" />
    <glyph glyph-name="Yacute" unicode="&#xdd;" horiz-adv-x="540" 
d="M486 835l-180 -113l-26 50l173 119zM269 0h-88l36 240l-151 430h92l113 -347l209 347h96l-271 -430z" />
    <glyph glyph-name="Thorn" unicode="&#xde;" horiz-adv-x="547" 
d="M130 0h-88l139 749h88l-30 -162h90q93 0 146.5 -40t53.5 -119q0 -123 -81 -192.5t-197 -69.5h-90zM174 239h91q77 0 123.5 48.5t46.5 129.5q0 97 -119 97h-91z" />
    <glyph glyph-name="germandbls" unicode="&#xdf;" horiz-adv-x="567" 
d="M59 -253h-79l144 784q18 99 90 152t152 53q63 0 107.5 -34t44.5 -95q0 -47 -20 -84.5t-48 -60t-56 -40.5t-48 -37t-20 -40t20 -37t48 -28t56 -26t48 -38t20 -57q0 -78 -67 -124.5t-151 -46.5q-63 0 -121 14l22 72q62 -14 110 -14q46 0 84.5 19.5t38.5 61.5q0 21 -20 36
t-48 26t-56 24t-48 37.5t-20 58.5q0 36 20.5 66t49 51.5t57.5 42.5t49.5 49.5t20.5 61.5t-27 50t-60 17q-49 0 -92 -32t-55 -94z" />
    <glyph glyph-name="agrave" unicode="&#xe0;" horiz-adv-x="524" 
d="M351 134l41 271q-31 7 -66 7q-104 0 -154.5 -66t-50.5 -175q0 -111 74 -111q36 0 80.5 22t75.5 52zM337 0l2 53q-81 -65 -167 -65q-57 0 -96 44t-39 128q0 148 73.5 236t231.5 88q63 0 138 -21l-69 -463h-74zM343 539l-138 113l53 56l129 -119z" />
    <glyph glyph-name="aacute" unicode="&#xe1;" horiz-adv-x="524" 
d="M503 651l-180 -113l-26 50l173 119zM351 134l41 271q-31 7 -66 7q-104 0 -154.5 -66t-50.5 -175q0 -111 74 -111q36 0 80.5 22t75.5 52zM337 0l2 53q-81 -65 -167 -65q-57 0 -96 44t-39 128q0 148 73.5 236t231.5 88q63 0 138 -21l-69 -463h-74z" />
    <glyph glyph-name="acircumflex" unicode="&#xe2;" horiz-adv-x="524" 
d="M442 538l-96 90l-130 -90l-31 50l175 116l131 -116zM351 134l41 271q-31 7 -66 7q-104 0 -154.5 -66t-50.5 -175q0 -111 74 -111q36 0 80.5 22t75.5 52zM337 0l2 53q-81 -65 -167 -65q-57 0 -96 44t-39 128q0 148 73.5 236t231.5 88q63 0 138 -21l-69 -463h-74z" />
    <glyph glyph-name="atilde" unicode="&#xe3;" horiz-adv-x="524" 
d="M499 652l-1 -62q-62 -33 -110 -33q-28 0 -66 18t-62 18q-40 0 -95 -29l1 62q62 33 109 33q27 0 65.5 -18t63.5 -18q40 0 95 29zM351 134l41 271q-31 7 -66 7q-104 0 -154.5 -66t-50.5 -175q0 -111 74 -111q36 0 80.5 22t75.5 52zM337 0l2 53q-81 -65 -167 -65
q-57 0 -96 44t-39 128q0 148 73.5 236t231.5 88q63 0 138 -21l-69 -463h-74z" />
    <glyph glyph-name="adieresis" unicode="&#xe4;" horiz-adv-x="524" 
d="M461 584h-97l17 88h97zM287 584h-97l17 88h97zM351 134l41 271q-31 7 -66 7q-104 0 -154.5 -66t-50.5 -175q0 -111 74 -111q36 0 80.5 22t75.5 52zM337 0l2 53q-81 -65 -167 -65q-57 0 -96 44t-39 128q0 148 73.5 236t231.5 88q63 0 138 -21l-69 -463h-74z" />
    <glyph glyph-name="aring" unicode="&#xe5;" horiz-adv-x="524" 
d="M339 584q25 0 45 19t20 47q0 20 -12.5 32t-31.5 12q-25 0 -45 -19.5t-20 -48.5q0 -19 12.5 -30.5t31.5 -11.5zM455 658q0 -47 -37 -82t-87 -35q-39 0 -62.5 21t-23.5 56q0 51 36.5 85t86.5 34q39 0 63 -22t24 -57zM351 134l41 271q-31 7 -66 7q-104 0 -154.5 -66
t-50.5 -175q0 -111 74 -111q36 0 80.5 22t75.5 52zM337 0l2 53q-81 -65 -167 -65q-57 0 -96 44t-39 128q0 148 73.5 236t231.5 88q63 0 138 -21l-69 -463h-74z" />
    <glyph glyph-name="ae" unicode="&#xe6;" horiz-adv-x="806" 
d="M711 88v-74q-85 -26 -162 -26q-131 0 -168 88q-109 -88 -209 -88q-57 0 -96 44t-39 128q0 148 73.5 236t231.5 88q63 0 138 -21l-4 -26q64 47 150 47q72 0 108 -38t36 -90q0 -39 -13.5 -68.5t-39.5 -48t-55 -30.5t-69.5 -17t-72 -7t-73.5 -2q0 -123 109 -123q69 0 155 28
zM351 134l41 271q-31 7 -66 7q-104 0 -154.5 -66t-50.5 -175q0 -111 74 -111q36 0 80.5 22t75.5 52zM453 250q41 0 65 0.5t60.5 5.5t56.5 14t35.5 27.5t15.5 44.5q0 38 -21 54.5t-51 16.5q-62 0 -106 -44.5t-55 -118.5z" />
    <glyph glyph-name="ccedilla" unicode="&#xe7;" horiz-adv-x="450" 
d="M381 87v-75q-51 -18 -120 -23l-49 -60l2 -3q80 -1 80 -62q0 -50 -41.5 -85t-129.5 -35q-14 0 -23 1l8 52q12 -1 23 -1q97 0 97 55q0 29 -53 29q-8 0 -18 -1l-23 33l58 79q-76 11 -113.5 65t-37.5 138q0 140 70 214.5t199 74.5q59 0 114 -16l-17 -75q-59 19 -108 19
q-174 0 -174 -215q0 -73 31 -104.5t93 -31.5t132 27z" />
    <glyph glyph-name="egrave" unicode="&#xe8;" horiz-adv-x="480" 
d="M385 88v-74q-85 -26 -162 -26q-99 0 -142.5 48.5t-43.5 142.5q0 138 74 221.5t189 83.5q72 0 108 -38t36 -90q0 -39 -13.5 -68.5t-39.5 -48t-55 -30.5t-69.5 -17t-72 -7t-73.5 -2q0 -123 109 -123q69 0 155 28zM127 250q41 0 65 0.5t60.5 5.5t56.5 14t35.5 27.5
t15.5 44.5q0 38 -21 54.5t-51 16.5q-62 0 -106 -44.5t-55 -118.5zM336 539l-138 113l53 56l129 -119z" />
    <glyph glyph-name="eacute" unicode="&#xe9;" horiz-adv-x="480" 
d="M470 651l-180 -113l-26 50l173 119zM385 88v-74q-85 -26 -162 -26q-99 0 -142.5 48.5t-43.5 142.5q0 138 74 221.5t189 83.5q72 0 108 -38t36 -90q0 -39 -13.5 -68.5t-39.5 -48t-55 -30.5t-69.5 -17t-72 -7t-73.5 -2q0 -123 109 -123q69 0 155 28zM127 250q41 0 65 0.5
t60.5 5.5t56.5 14t35.5 27.5t15.5 44.5q0 38 -21 54.5t-51 16.5q-62 0 -106 -44.5t-55 -118.5z" />
    <glyph glyph-name="ecircumflex" unicode="&#xea;" horiz-adv-x="480" 
d="M405 538l-96 90l-130 -90l-31 50l175 116l131 -116zM385 88v-74q-85 -26 -162 -26q-99 0 -142.5 48.5t-43.5 142.5q0 138 74 221.5t189 83.5q72 0 108 -38t36 -90q0 -39 -13.5 -68.5t-39.5 -48t-55 -30.5t-69.5 -17t-72 -7t-73.5 -2q0 -123 109 -123q69 0 155 28z
M127 250q41 0 65 0.5t60.5 5.5t56.5 14t35.5 27.5t15.5 44.5q0 38 -21 54.5t-51 16.5q-62 0 -106 -44.5t-55 -118.5z" />
    <glyph glyph-name="edieresis" unicode="&#xeb;" horiz-adv-x="480" 
d="M448 584h-97l17 88h97zM274 584h-97l17 88h97zM385 88v-74q-85 -26 -162 -26q-99 0 -142.5 48.5t-43.5 142.5q0 138 74 221.5t189 83.5q72 0 108 -38t36 -90q0 -39 -13.5 -68.5t-39.5 -48t-55 -30.5t-69.5 -17t-72 -7t-73.5 -2q0 -123 109 -123q69 0 155 28zM127 250
q41 0 65 0.5t60.5 5.5t56.5 14t35.5 27.5t15.5 44.5q0 38 -21 54.5t-51 16.5q-62 0 -106 -44.5t-55 -118.5z" />
    <glyph glyph-name="igrave" unicode="&#xec;" horiz-adv-x="229" 
d="M105 0h-80l87 469l72 15h10zM146 539l-138 113l53 56l129 -119z" />
    <glyph glyph-name="iacute" unicode="&#xed;" horiz-adv-x="229" 
d="M105 0h-80l87 469l72 15h10zM342 651l-180 -113l-26 50l173 119z" />
    <glyph glyph-name="icircumflex" unicode="&#xee;" horiz-adv-x="229" 
d="M275 538l-96 90l-130 -90l-31 50l175 116l131 -116zM105 0h-80l87 469l72 15h10z" />
    <glyph glyph-name="idieresis" unicode="&#xef;" horiz-adv-x="229" 
d="M105 0h-80l87 469l72 15h10zM299 584h-97l17 88h97zM126 584h-97l17 88h97z" />
    <glyph glyph-name="eth" unicode="&#xf0;" horiz-adv-x="553" 
d="M541 718l-84 -70q33 -48 46.5 -98.5t13.5 -122.5q0 -114 -37 -214.5t-105.5 -162.5t-151.5 -62q-93 0 -141 52t-48 133q0 118 76 196.5t183 78.5q71 0 140 -38q3 20 3 42q0 92 -43 142l-92 -78l-35 42l89 74q-45 39 -123 64l35 75q90 -30 152 -85l84 73zM429 342
q-62 34 -133 34q-75 0 -125.5 -49.5t-50.5 -144.5q0 -58 30 -90t82 -32q67 0 123 78t74 204z" />
    <glyph glyph-name="ntilde" unicode="&#xf1;" horiz-adv-x="531" 
d="M491 652l-1 -62q-62 -33 -110 -33q-28 0 -66 18t-62 18q-40 0 -95 -29l1 62q62 33 109 33q27 0 65.5 -18t63.5 -18q40 0 95 29zM420 0h-80l44 287q6 48 6 59q0 31 -15.5 49t-55.5 18q-39 0 -82.5 -23t-73.5 -53l-51 -337h-80l70 465l61 9h11l-2 -52q94 63 168 63
q64 0 98 -32t34 -90q0 -14 -4 -46z" />
    <glyph glyph-name="ograve" unicode="&#xf2;" horiz-adv-x="536" 
d="M237 60q85 0 124 64.5t39 161.5q0 60 -25 93t-88 33q-162 0 -162 -220q0 -132 112 -132zM233 -12q-92 0 -142 51t-50 144q0 144 62.5 222.5t187.5 78.5q93 0 143 -48.5t50 -140.5q0 -144 -63 -225.5t-188 -81.5zM277 539l-138 113l53 56l129 -119z" />
    <glyph glyph-name="oacute" unicode="&#xf3;" horiz-adv-x="536" 
d="M485 651l-180 -113l-26 50l173 119zM237 60q85 0 124 64.5t39 161.5q0 60 -25 93t-88 33q-162 0 -162 -220q0 -132 112 -132zM233 -12q-92 0 -142 51t-50 144q0 144 62.5 222.5t187.5 78.5q93 0 143 -48.5t50 -140.5q0 -144 -63 -225.5t-188 -81.5z" />
    <glyph glyph-name="ocircumflex" unicode="&#xf4;" horiz-adv-x="536" 
d="M422 538l-96 90l-130 -90l-31 50l175 116l131 -116zM237 60q85 0 124 64.5t39 161.5q0 60 -25 93t-88 33q-162 0 -162 -220q0 -132 112 -132zM233 -12q-92 0 -142 51t-50 144q0 144 62.5 222.5t187.5 78.5q93 0 143 -48.5t50 -140.5q0 -144 -63 -225.5t-188 -81.5z" />
    <glyph glyph-name="otilde" unicode="&#xf5;" horiz-adv-x="536" 
d="M485 652l-1 -62q-62 -33 -110 -33q-28 0 -66 18t-62 18q-40 0 -95 -29l1 62q62 33 109 33q27 0 65.5 -18t63.5 -18q40 0 95 29zM237 60q85 0 124 64.5t39 161.5q0 60 -25 93t-88 33q-162 0 -162 -220q0 -132 112 -132zM233 -12q-92 0 -142 51t-50 144q0 144 62.5 222.5
t187.5 78.5q93 0 143 -48.5t50 -140.5q0 -144 -63 -225.5t-188 -81.5z" />
    <glyph glyph-name="odieresis" unicode="&#xf6;" horiz-adv-x="536" 
d="M454 584h-97l17 88h97zM280 584h-97l17 88h97zM237 60q85 0 124 64.5t39 161.5q0 60 -25 93t-88 33q-162 0 -162 -220q0 -132 112 -132zM233 -12q-92 0 -142 51t-50 144q0 144 62.5 222.5t187.5 78.5q93 0 143 -48.5t50 -140.5q0 -144 -63 -225.5t-188 -81.5z" />
    <glyph glyph-name="divide" unicode="&#xf7;" horiz-adv-x="600" 
d="M533 233h-470v65h470v-65zM350 379h-104v93h104v-93zM350 58h-104v93h104v-93z" />
    <glyph glyph-name="oslash" unicode="&#xf8;" horiz-adv-x="555" 
d="M226 -12q-33 0 -71 9l-63 -92l-63 33l63 91q-56 47 -56 141q0 132 77.5 223t204.5 91q44 0 81 -13l58 83l61 -34l-59 -85q48 -50 48 -136q0 -131 -77.5 -221t-203.5 -90zM304 412q-76 0 -129.5 -60.5t-53.5 -170.5q0 -50 22 -80l210 304q-25 7 -49 7zM239 60
q84 0 133.5 68.5t49.5 159.5q0 44 -15 72l-205 -296q15 -4 37 -4z" />
    <glyph glyph-name="ugrave" unicode="&#xf9;" horiz-adv-x="531" 
d="M98 467l72 10h9l-44 -291q0 -2 -2 -14.5t-3.5 -24.5t-1.5 -20q0 -31 15.5 -49t55.5 -18t83.5 23t73.5 53l50 331l72 10h9l-72 -477h-70l2 51q-95 -63 -169 -63q-64 0 -98 32t-34 90q0 14 4 46zM320 539l-138 113l53 56l129 -119z" />
    <glyph glyph-name="uacute" unicode="&#xfa;" horiz-adv-x="531" 
d="M469 651l-180 -113l-26 50l173 119zM98 467l72 10h9l-44 -291q0 -2 -2 -14.5t-3.5 -24.5t-1.5 -20q0 -31 15.5 -49t55.5 -18t83.5 23t73.5 53l50 331l72 10h9l-72 -477h-70l2 51q-95 -63 -169 -63q-64 0 -98 32t-34 90q0 14 4 46z" />
    <glyph glyph-name="ucircumflex" unicode="&#xfb;" horiz-adv-x="531" 
d="M426 538l-96 90l-130 -90l-31 50l175 116l131 -116zM98 467l72 10h9l-44 -291q0 -2 -2 -14.5t-3.5 -24.5t-1.5 -20q0 -31 15.5 -49t55.5 -18t83.5 23t73.5 53l50 331l72 10h9l-72 -477h-70l2 51q-95 -63 -169 -63q-64 0 -98 32t-34 90q0 14 4 46z" />
    <glyph glyph-name="udieresis" unicode="&#xfc;" horiz-adv-x="531" 
d="M450 584h-97l17 88h97zM276 584h-97l17 88h97zM98 467l72 10h9l-44 -291q0 -2 -2 -14.5t-3.5 -24.5t-1.5 -20q0 -31 15.5 -49t55.5 -18t83.5 23t73.5 53l50 331l72 10h9l-72 -477h-70l2 51q-95 -63 -169 -63q-64 0 -98 32t-34 90q0 14 4 46z" />
    <glyph glyph-name="yacute" unicode="&#xfd;" horiz-adv-x="464" 
d="M421 651l-180 -113l-26 50l173 119zM129 -253h-84l117 243h-26l-94 480h83l71 -393h7l186 393h85z" />
    <glyph glyph-name="thorn" unicode="&#xfe;" horiz-adv-x="529" 
d="M110 -7l-35 -237l-71 -10h-10l147 975l72 15h10l-48 -313l1 -2q79 63 166 63q62 0 101 -41.5t39 -127.5q0 -148 -76.5 -237.5t-234.5 -89.5q-26 0 -61 5zM164 338l-42 -271q31 -7 65 -7q104 0 158.5 68t54.5 176t-81 108q-35 0 -77 -21.5t-78 -52.5z" />
    <glyph glyph-name="ydieresis" unicode="&#xff;" horiz-adv-x="464" 
d="M401 584h-97l17 88h97zM227 584h-97l17 88h97zM129 -253h-84l117 243h-26l-94 480h83l71 -393h7l186 393h85z" />
    <glyph glyph-name="OE" unicode="&#x152;" horiz-adv-x="933" 
d="M836 0h-400q-57 -12 -107 -12q-129 0 -198 70.5t-69 197.5q0 195 103.5 310.5t267.5 115.5q59 0 104 -12h400l-20 -73h-304l-32 -216h257l-11 -73h-257l-35 -234h312zM450 87l74 498q-36 24 -102 24q-104 0 -186 -88.5t-82 -245.5q0 -104 50.5 -158.5t135.5 -54.5
q64 0 110 25z" />
    <glyph glyph-name="oe" unicode="&#x153;" horiz-adv-x="837" 
d="M742 88v-74q-85 -26 -162 -26q-121 0 -163 76q-64 -76 -184 -76q-92 0 -142 51t-50 144q0 144 62.5 222.5t187.5 78.5q127 0 172 -89q76 90 194 90q72 0 108 -38t36 -90q0 -39 -13.5 -68.5t-39.5 -48t-55 -30.5t-69.5 -17.5t-72.5 -7.5t-73 -2q0 -123 109 -123
q69 0 155 28zM237 60q85 0 124 64.5t39 161.5q0 60 -25 93t-88 33q-162 0 -162 -220q0 -132 112 -132zM484 250q33 0 53.5 0.5t52 3t50.5 9t38.5 16t29 26t9.5 38.5q0 38 -21 54.5t-51 16.5q-62 0 -106 -45t-55 -119z" />
    <glyph glyph-name="Ydieresis" unicode="&#x178;" horiz-adv-x="540" 
d="M468 735h-97l17 88h97zM294 735h-97l17 88h97zM269 0h-88l36 240l-151 430h92l113 -347l209 347h96l-271 -430z" />
    <glyph glyph-name="tilde" unicode="&#x2dc;" horiz-adv-x="495" 
d="M426 652l-1 -62q-62 -33 -110 -33q-28 0 -66 18t-62 18q-40 0 -95 -29l1 62q62 33 109 33q27 0 65.5 -18t63.5 -18q40 0 95 29z" />
    <glyph glyph-name="endash" unicode="&#x2013;" horiz-adv-x="551" 
d="M470 217h-410l13 73h410z" />
    <glyph glyph-name="emdash" unicode="&#x2014;" horiz-adv-x="808" 
d="M727 217h-667l13 73h667z" />
    <glyph glyph-name="quoteleft" unicode="&#x2018;" horiz-adv-x="221" 
d="M206 572h-112q5 71 33.5 124.5t78.5 107.5l39 -26q-46 -58 -71 -102l50 -8z" />
    <glyph glyph-name="quoteright" unicode="&#x2019;" horiz-adv-x="207" 
d="M119 483l-39 26q46 58 71 102l-50 8l18 96h112q-9 -120 -112 -232z" />
    <glyph glyph-name="quotedblleft" unicode="&#x201c;" horiz-adv-x="378" 
d="M206 572h-112q5 71 33.5 124.5t78.5 107.5l39 -26q-46 -58 -71 -102l50 -8zM363 572h-112q5 71 33.5 124.5t78.5 107.5l39 -26q-46 -58 -71 -102l50 -8z" />
    <glyph glyph-name="quotedblright" unicode="&#x201d;" horiz-adv-x="364" 
d="M276 483l-39 26q46 58 71 102l-50 8l18 96h112q-9 -120 -112 -232zM119 483l-39 26q46 58 71 102l-50 8l18 96h112q-9 -120 -112 -232z" />
    <glyph glyph-name="quotedblbase" unicode="&#x201e;" horiz-adv-x="412" 
d="M206 -132l-39 26q46 58 71 102l-50 8l18 96h112q-9 -120 -112 -232zM49 -132l-39 26q46 58 71 102l-50 8l18 96h112q-9 -120 -112 -232z" />
    <glyph glyph-name="bullet" unicode="&#x2022;" horiz-adv-x="316" 
d="M228 245h-156l25 140h156z" />
    <glyph glyph-name="ellipsis" unicode="&#x2026;" horiz-adv-x="665" 
d="M136 0h-105l19 100h105zM344 0h-105l19 100h105zM553 0h-105l19 100h105z" />
    <glyph glyph-name="guilsinglleft" unicode="&#x2039;" horiz-adv-x="259" 
d="M172 89l-59 -29l-81 207l158 207l46 -29l-137 -177z" />
    <glyph glyph-name="guilsinglright" unicode="&#x203a;" horiz-adv-x="258" 
d="M65 60l-46 29l138 179l-73 177l58 29l82 -207z" />
    <glyph glyph-name="Euro" unicode="&#x20ac;" horiz-adv-x="699" 
d="M586 97l9 -73q-103 -36 -217 -36q-254 0 -254 242v15h-84l21 67h68l6 29q1 15 6 30h-59l21 67h61q47 113 144.5 178.5t220.5 65.5q97 0 168 -22l-27 -76q-92 25 -163 25q-78 0 -145.5 -43t-104.5 -128h328l-22 -67h-330q-5 -15 -6 -30l-6 -29h322l-21 -67h-305
q3 -183 189 -183q78 0 180 35z" />
    <glyph glyph-name="trademark" unicode="&#x2122;" horiz-adv-x="733" 
d="M183 369h-55l47 256h-89l9 45h235l-14 -45h-86zM659 369h-51l49 263h-4l-141 -265h-70l-41 265h-4l-49 -263h-51l56 301h98l35 -255l131 255h98z" />
    <glyph glyph-name="dotlessi" horiz-adv-x="229" 
d="M105 0h-80l87 469l72 15h10z" />
    <glyph glyph-name="circumflex" horiz-adv-x="462" 
d="M328 538l-96 90l-130 -90l-31 50l175 116l131 -116z" />
    <glyph glyph-name="dotaccent" horiz-adv-x="257" 
d="M168 582h-97l17 88h97z" />
    <glyph glyph-name="ring" horiz-adv-x="340" 
d="M159 584q25 0 45 19t20 47q0 20 -12.5 32t-31.5 12q-25 0 -45 -19.5t-20 -48.5q0 -19 12.5 -30.5t31.5 -11.5zM275 658q0 -47 -37 -82t-87 -35q-39 0 -62.5 21t-23.5 56q0 51 36.5 85t86.5 34q39 0 63 -22t24 -57z" />
    <glyph glyph-name="minus" horiz-adv-x="600" 
d="M532 231h-470v69h470v-69z" />
    <glyph glyph-name="glyph211" horiz-adv-x="230" 
 />
    </font>
</defs>
</svg>
