<?xml version="1.0" standalone="no"?>
<!DOCTYPE svg PUBLIC "-//W3C//DTD SVG 1.1//EN" "http://www.w3.org/Graphics/SVG/1.1/DTD/svg11.dtd" >
<svg>
<metadata>
Created by FontForge 20120731 at Tue Jun 23 09:33:56 2015
 By ,,,
Copyright (c) 2009 by Mark Caneso /psType. All rights reserved.
</metadata>
<defs>
<font id="65d44c27af0bf171a43e26cb8cb3220faccb8db2480a474b490bb339fd6fc37" horiz-adv-x="661" >
  <font-face 
    font-family="65d44c27af0bf171a43e26cb8cb3220faccb8db2480a474b490bb339fd6fc37e"
    font-weight="700"
    font-stretch="normal"
    units-per-em="1000"
    panose-1="2 0 5 3 0 0 0 2 0 4"
    ascent="735"
    descent="-265"
    x-height="479"
    cap-height="670"
    bbox="-64 -265 1017 974"
    underline-thickness="50"
    underline-position="-50"
    unicode-range="U+0020-2122"
  />
<missing-glyph horiz-adv-x="580" 
d="M501 0h-429v670h429v-670zM409 87v496h-246v-496h246z" />
    <glyph glyph-name=".notdef" horiz-adv-x="580" 
d="M501 0h-429v670h429v-670zM409 87v496h-246v-496h246z" />
    <glyph glyph-name=".null" horiz-adv-x="0" 
 />
    <glyph glyph-name="nonmarkingreturn" horiz-adv-x="333" 
 />
    <glyph glyph-name="space" unicode=" " horiz-adv-x="250" 
 />
    <glyph glyph-name="space" unicode="&#xa0;" horiz-adv-x="250" 
 />
    <glyph glyph-name="exclam" unicode="!" horiz-adv-x="276" 
d="M208 170l-141 37q-8 308 -13 463h169zM224 0h-170v139l170 -40v-99z" />
    <glyph glyph-name="quotedbl" unicode="&#x22;" horiz-adv-x="421" 
d="M185 435l-131 -23v250l131 24v-251zM372 435l-131 -23v250l131 24v-251z" />
    <glyph glyph-name="numbersign" unicode="#" horiz-adv-x="630" 
d="M501 0h-137v136h-97v-136h-136v136h-87v115h87v86h-87v116h87v138h136v-138h97v138h137v-138h85v-116h-85v-86h85v-115h-85v-136zM364 251v86h-97v-86h97z" />
    <glyph glyph-name="dollar" unicode="$" horiz-adv-x="486" 
d="M313 -81h-115v71l-31 2q-62 3 -130 14l16 120q92 -23 154 -23q103 0 103 42q0 19 -27 36t-65 33.5t-76.5 38.5t-65.5 60.5t-27 88.5q0 61 40.5 99.5t108.5 51.5v83h115v-77q65 -6 114 -21l-10 -120q-84 27 -147 27q-78 0 -78 -41q0 -23 26.5 -42.5t65 -36.5t76.5 -38
t64.5 -56.5t26.5 -82.5q0 -59 -37 -97.5t-101 -52.5v-79z" />
    <glyph glyph-name="percent" unicode="%" horiz-adv-x="765" 
d="M192 418q17 0 27.5 13.5t10.5 38.5q0 52 -38 52q-37 0 -37 -52t37 -52zM200 -29q-11 9 -40.5 30.5t-45.5 33.5l437 576l87 -63zM36 470q0 66 44.5 103.5t112.5 37.5t112 -37t44 -104t-44 -104t-112 -37t-112.5 37t-44.5 104zM536 129q0 -52 37 -52t37 52t-37 52t-37 -52z
M416 129q0 66 45 104t113 38q67 0 111.5 -37.5t44.5 -104.5t-44 -103t-112 -36t-113 36t-45 103z" />
    <glyph glyph-name="ampersand" unicode="&#x26;" horiz-adv-x="765" 
d="M754 108l-7 -119q-165 1 -299 58q-74 -58 -203 -58q-86 0 -148 49t-62 141q0 43 21 89t59 82q-35 59 -35 134q0 87 56 142.5t157 55.5q83 0 182 -33l-12 -179h-123l8 90q-19 5 -50 5q-39 0 -61.5 -21.5t-22.5 -64.5q0 -72 58.5 -149.5t144.5 -127.5q27 44 27 121v73h208
v-114h-87q-3 -68 -38 -139q90 -36 207 -36q3 0 9.5 0.5t10.5 0.5zM326 119q-86 51 -144 128q-13 -29 -13 -59q0 -41 28.5 -61.5t68.5 -20.5q31 0 60 13z" />
    <glyph glyph-name="quotesingle" unicode="'" horiz-adv-x="233" 
d="M184 435l-131 -23v250l131 24v-251z" />
    <glyph glyph-name="parenleft" unicode="(" horiz-adv-x="353" 
d="M244 798l106 -75q-177 -178 -177 -438q0 -259 177 -439l-106 -74q-97 94 -155.5 233t-58.5 280t58.5 280t155.5 233z" />
    <glyph glyph-name="parenright" unicode=")" horiz-adv-x="353" 
d="M109 -228l-106 74q177 181 177 439t-177 438l106 75q97 -94 155.5 -233t58.5 -280t-58.5 -280t-155.5 -233z" />
    <glyph glyph-name="asterisk" unicode="*" horiz-adv-x="479" 
d="M400 442l-89 -66l-71 98l-70 -98l-89 66l74 96l-120 36l34 104l115 -38l-2 118h112l-3 -120l120 40l33 -104l-119 -35z" />
    <glyph glyph-name="plus" unicode="+" horiz-adv-x="600" 
d="M370 30h-138v174h-167v123h167v173h138v-173h165v-123h-165v-174z" />
    <glyph glyph-name="comma" unicode="," horiz-adv-x="284" 
d="M134 -158q-15 8 -40 23t-35 20q45 69 60 114q-12 1 -33 4l-28 4v139h165q7 -34 7 -68q0 -107 -96 -236z" />
    <glyph glyph-name="hyphen" unicode="-" horiz-adv-x="467" 
d="M416 189h-365v137h365v-137z" />
    <glyph glyph-name="hyphen" unicode="&#xad;" horiz-adv-x="467" 
d="M416 189h-365v137h365v-137z" />
    <glyph glyph-name="period" unicode="." horiz-adv-x="286" 
d="M228 0h-170v148h170v-148z" />
    <glyph glyph-name="slash" unicode="/" horiz-adv-x="453" 
d="M174 -174h-138l245 925h139z" />
    <glyph glyph-name="zero" unicode="0" horiz-adv-x="652" 
d="M420 150q34 40 34 117t-33.5 116.5t-94.5 39.5t-95 -39.5t-34 -116.5t34 -116.5t95 -39.5t94 39zM126 63q-78 75 -78 204t78 203.5t200 74.5t200 -74.5t78 -203.5t-78 -204t-200 -75t-200 75z" />
    <glyph glyph-name="one" unicode="1" horiz-adv-x="460" 
d="M418 0h-369v121h125v290h-101v119h244v-409h101v-121z" />
    <glyph glyph-name="two" unicode="2" horiz-adv-x="548" 
d="M500 0h-437l-13 100l157 114q68 50 96.5 80t28.5 62q0 30 -27.5 46t-68.5 16q-72 0 -166 -37q-5 41 -17 123q109 40 207 40q96 0 156 -47t60 -125q0 -62 -36 -105t-116 -101l-89 -64l1 -2q118 21 195 21h69v-121z" />
    <glyph glyph-name="three" unicode="3" horiz-adv-x="505" 
d="M12 -159q2 19 8 59.5t9 61.5q92 -23 159 -23q125 0 125 93q0 97 -147 97q-20 0 -64 -4v120q42 6 81 6q41 0 69 -5q47 46 47 96q0 38 -30 58t-75 20q-77 0 -143 -31l-15 124q92 31 180 31q104 0 166.5 -50t62.5 -132q0 -40 -21.5 -85.5t-52.5 -79.5q90 -53 90 -157
t-75 -163.5t-195 -59.5q-83 0 -179 24z" />
    <glyph glyph-name="four" unicode="4" 
d="M516 -169l-112 -6h-29v182h-330l-3 93q4 22 161 446h155l-161 -419h178l2 150l11 101h128v-251h105v-120h-105v-176z" />
    <glyph glyph-name="five" unicode="5" horiz-adv-x="544" 
d="M354 47q0 99 -122 99h-151v385h395l-1 -122h-253v-141h32q125 0 186.5 -51.5t61.5 -162.5q0 -116 -78 -176.5t-194 -60.5q-92 0 -197 23l18 124q113 -25 175 -25q128 0 128 108z" />
    <glyph glyph-name="six" unicode="6" horiz-adv-x="591" 
d="M519 704l-10 -122q-60 10 -107 10q-197 0 -204 -192q76 27 147 27q93 0 153 -51.5t60 -152.5q0 -100 -70.5 -167.5t-177.5 -67.5q-123 0 -195 80.5t-72 250.5q0 185 92.5 292t255.5 107q65 0 128 -14zM412 211q0 46 -26 71.5t-77 25.5q-59 0 -118 -23q0 -87 33.5 -131
t89.5 -44q47 0 72.5 29t25.5 72z" />
    <glyph glyph-name="seven" unicode="7" horiz-adv-x="532" 
d="M228 -176h-155l269 582h-306l-8 125h475v-107z" />
    <glyph glyph-name="eight" unicode="8" horiz-adv-x="582" 
d="M451 354q86 -50 86 -150q0 -93 -72.5 -153t-173.5 -60q-107 0 -175.5 51.5t-68.5 144.5q0 47 25.5 93t60.5 79q-34 24 -56.5 67t-22.5 90q0 85 65 143.5t174 58.5t170.5 -56t61.5 -141q0 -90 -74 -167zM237 303q-41 -44 -41 -101q0 -39 27.5 -64t72.5 -25q41 0 67.5 23.5
t26.5 61.5t-37 60t-116 45zM198 513q0 -25 12 -44t35 -32.5t43 -21.5t49 -16q46 53 46 111q0 37 -25 61.5t-69 24.5q-41 0 -66 -23.5t-25 -59.5z" />
    <glyph glyph-name="nine" unicode="9" horiz-adv-x="587" 
d="M68 -172l10 122q60 -10 107 -10q95 0 147.5 47.5t56.5 144.5q-76 -27 -147 -27q-93 0 -153 52t-60 152q0 101 70.5 168t177.5 67q123 0 195 -80.5t72 -250.5q0 -185 -92 -292t-256 -107q-64 0 -128 14zM175 321q0 -45 26 -71t77 -26q54 0 118 23q0 87 -33.5 131t-89.5 44
q-47 0 -72.5 -29t-25.5 -72z" />
    <glyph glyph-name="colon" unicode=":" horiz-adv-x="309" 
d="M240 0h-170v148h170v-148zM240 330h-170v148h170v-148z" />
    <glyph glyph-name="semicolon" unicode=";" horiz-adv-x="309" 
d="M146 -158l-74 43q46 74 59 114q-12 1 -33 4l-28 4v139h166q7 -34 7 -68q0 -108 -97 -236zM240 330h-170v148h170v-148z" />
    <glyph glyph-name="less" unicode="&#x3c;" horiz-adv-x="600" 
d="M530 -5l-477 185v153l477 187v-134l-348 -129l348 -129v-133z" />
    <glyph glyph-name="equal" unicode="=" horiz-adv-x="600" 
d="M535 299h-470v126h470v-126zM535 121h-470v126h470v-126z" />
    <glyph glyph-name="greater" unicode="&#x3e;" horiz-adv-x="600" 
d="M547 181l-477 -186v133l348 129l-348 129v134l477 -186v-153z" />
    <glyph glyph-name="question" unicode="?" horiz-adv-x="471" 
d="M254 160l-135 35q-8 30 -8 56q0 45 28.5 83.5t62.5 61t62.5 50.5t28.5 54q0 27 -21.5 42.5t-61.5 15.5q-70 0 -160 -34l-12 122q99 36 189 36q109 0 159.5 -52t50.5 -124q0 -45 -20 -79t-49 -54.5t-58 -39t-49 -43.5t-20 -57q0 -34 13 -73zM272 0h-161v137l161 -35v-102z
" />
    <glyph glyph-name="at" unicode="@" horiz-adv-x="908" 
d="M614 -80l16 -101q-83 -25 -167 -25q-186 0 -308.5 116t-122.5 310q0 129 61.5 237t163.5 169t220 61q96 0 173 -31.5t123.5 -83.5t70.5 -114t24 -128q0 -138 -70.5 -218.5t-190.5 -80.5q-100 0 -112 60h-6q-50 -41 -104 -41q-52 0 -87 41t-35 113q0 112 62.5 174.5
t153.5 62.5q69 0 151 -33l-36 -274h29q119 0 119 192q0 112 -70.5 180t-194.5 68q-81 0 -144.5 -32.5t-100 -85.5t-55 -113t-18.5 -123q0 -155 90.5 -237t233.5 -82q60 0 131 19zM482 183l21 158q-23 7 -36 7q-43 0 -66 -39t-23 -94q0 -63 41 -63q29 0 63 31z" />
    <glyph glyph-name="A" unicode="A" 
d="M656 0h-164l-38 112h-248l-37 -112h-164l239 670h172zM412 239l-82 250l-81 -250h163z" />
    <glyph glyph-name="B" unicode="B" horiz-adv-x="630" 
d="M316 0h-236v670h244q233 0 233 -169q0 -66 -62 -140q45 -21 71.5 -59.5t26.5 -88.5q0 -107 -78.5 -160t-198.5 -53zM234 129h88q111 0 111 82q0 31 -24 50t-61 19h-114v-151zM234 400h131q34 34 34 79q0 30 -23.5 46.5t-61.5 16.5h-80v-142z" />
    <glyph glyph-name="B" unicode="&#xe000;" horiz-adv-x="630" 
d="M316 0h-236v670h244q233 0 233 -169q0 -66 -62 -140q45 -21 71.5 -59.5t26.5 -88.5q0 -107 -78.5 -160t-198.5 -53zM234 129h88q111 0 111 82q0 31 -24 50t-61 19h-114v-151zM234 400h131q34 34 34 79q0 30 -23.5 46.5t-61.5 16.5h-80v-142z" />
    <glyph glyph-name="C" unicode="C" horiz-adv-x="644" 
d="M575 158l34 -125q-114 -44 -245 -44q-170 0 -247.5 94t-77.5 258q0 162 97.5 250.5t260.5 88.5q88 0 193 -25l-12 -243l-137 1l5 135q-28 5 -68 5q-81 0 -131 -52t-50 -160q0 -120 49.5 -172t130.5 -52q95 0 198 41z" />
    <glyph glyph-name="D" unicode="D" horiz-adv-x="704" 
d="M320 0h-240v670h240q160 0 252 -81t92 -254t-92.5 -254t-251.5 -81zM319 129q186 0 186 206q0 207 -186 207h-85v-413h85z" />
    <glyph glyph-name="E" unicode="E" horiz-adv-x="591" 
d="M550 0h-470v670h472l-13 -129h-305v-135h260v-126h-260v-152h303z" />
    <glyph glyph-name="E" unicode="&#xe001;" horiz-adv-x="591" 
d="M550 0h-470v670h472l-13 -129h-305v-135h260v-126h-260v-152h303z" />
    <glyph glyph-name="F" unicode="F" horiz-adv-x="565" 
d="M234 0h-154v670h467l-13 -129h-300v-150h260v-126h-260v-265z" />
    <glyph glyph-name="G" unicode="G" horiz-adv-x="697" 
d="M498 134v165l114 17h41v-280q-148 -47 -276 -47q-165 0 -252.5 90.5t-87.5 256.5q0 159 102 252t269 93q109 0 211 -34l-23 -140q-102 46 -194 46q-93 0 -149.5 -54.5t-56.5 -158.5q0 -117 53.5 -170t143.5 -53q58 0 105 17z" />
    <glyph glyph-name="H" unicode="H" horiz-adv-x="769" 
d="M689 0h-155v276h-300v-276h-154v670h154v-265h300v265h155v-670z" />
    <glyph glyph-name="I" unicode="I" horiz-adv-x="469" 
d="M427 0h-385v124h115v421h-115v125h385v-125h-116v-421h116v-124z" />
    <glyph glyph-name="J" unicode="J" horiz-adv-x="365" 
d="M286 110q-1 -124 -49 -195.5t-166 -132.5l-66 114q72 44 100 85.5t28 104.5v459h-112v125h265v-560z" />
    <glyph glyph-name="K" unicode="K" horiz-adv-x="641" 
d="M648 0h-196l-218 269v-269h-154v670h154v-290l198 290h179l-238 -332z" />
    <glyph glyph-name="L" unicode="L" horiz-adv-x="510" 
d="M503 0h-423v670h155v-541h258z" />
    <glyph glyph-name="M" unicode="M" horiz-adv-x="936" 
d="M544 -3h-151l-129 325l-26 95h-6v-417h-152v670h211l178 -488l179 488h208v-670h-153v417h-5l-23 -95z" />
    <glyph glyph-name="N" unicode="N" horiz-adv-x="771" 
d="M691 0h-175l-228 333l-47 109h-8v-442h-153v670h173l220 -337l58 -121h7v458h153v-670z" />
    <glyph glyph-name="O" unicode="O" horiz-adv-x="736" 
d="M243 498q-46 -57 -46 -163t46.5 -163t124.5 -57t124 57t46 163t-46 163t-124 57t-125 -57zM38 335q0 160 88 253.5t242 93.5t242 -94t88 -253t-88 -253t-242 -94t-242 94t-88 253z" />
    <glyph glyph-name="P" unicode="P" horiz-adv-x="577" 
d="M234 542v-200h66q97 0 97 100t-97 100h-66zM80 0v670h219q114 0 185.5 -60.5t71.5 -167.5t-71.5 -167.5t-185.5 -60.5h-65v-214h-154z" />
    <glyph glyph-name="Q" unicode="Q" horiz-adv-x="735" 
d="M668 -214l-430 55l15 121l430 -57zM243 498q-46 -57 -46 -163t46.5 -163t124.5 -57t124 57t46 163t-46 163t-124 57t-125 -57zM38 335q0 160 88 253.5t242 93.5t242 -94t88 -253t-88 -253t-242 -94t-242 94t-88 253z" />
    <glyph glyph-name="R" unicode="R" horiz-adv-x="637" 
d="M625 0h-182l-130 233h-79v-233h-154v670h241q114 0 179 -55.5t65 -151.5q0 -39 -17.5 -77t-36.5 -60.5t-48 -50.5zM234 359h125q48 43 48 101q0 34 -22.5 57.5t-66.5 23.5h-84v-182z" />
    <glyph glyph-name="S" unicode="S" horiz-adv-x="557" 
d="M38 9l16 133q102 -26 182 -26q130 0 130 65q0 22 -17.5 38.5t-45.5 28t-62.5 23t-68.5 28t-62 38.5t-45.5 58.5t-17.5 84.5q0 98 75.5 149.5t196.5 51.5q89 0 175 -24l-12 -136q-99 31 -172 31q-47 0 -76 -16.5t-29 -50.5q0 -27 33 -48t79.5 -38.5t93.5 -39.5t80 -62.5
t33 -96.5q0 -107 -77.5 -159t-206.5 -52q-95 0 -202 20z" />
    <glyph glyph-name="S" unicode="&#xe002;" horiz-adv-x="557" 
d="M38 9l16 133q102 -26 182 -26q130 0 130 65q0 22 -17.5 38.5t-45.5 28t-62.5 23t-68.5 28t-62 38.5t-45.5 58.5t-17.5 84.5q0 98 75.5 149.5t196.5 51.5q89 0 175 -24l-12 -136q-99 31 -172 31q-47 0 -76 -16.5t-29 -50.5q0 -27 33 -48t79.5 -38.5t93.5 -39.5t80 -62.5
t33 -96.5q0 -107 -77.5 -159t-206.5 -52q-95 0 -202 20z" />
    <glyph glyph-name="T" unicode="T" horiz-adv-x="572" 
d="M363 0h-155v541h-194v129h553l-14 -129h-190v-541z" />
    <glyph glyph-name="U" unicode="U" horiz-adv-x="704" 
d="M633 236q0 -115 -78.5 -181.5t-202.5 -66.5q-125 0 -203 66.5t-78 181.5v434h154v-433q0 -58 37 -89t90 -31q54 0 90.5 31t36.5 89v433h154v-434z" />
    <glyph glyph-name="V" unicode="V" 
d="M412 -8h-163l-246 678h166l162 -490l162 490h165z" />
    <glyph glyph-name="W" unicode="W" horiz-adv-x="994" 
d="M804 -6h-184l-107 377l-11 81h-8l-14 -81l-109 -377h-181l-169 676h165l87 -386l12 -101h10l10 66l107 421h175l108 -421l11 -66h9l12 101l87 386h159z" />
    <glyph glyph-name="X" unicode="X" horiz-adv-x="657" 
d="M652 0h-184l-147 230l-134 -230h-176l219 347l-218 323h186l133 -217l128 217h181l-216 -331z" />
    <glyph glyph-name="Y" unicode="Y" horiz-adv-x="608" 
d="M382 0h-154v241l-226 429h176l128 -278l128 278h172l-224 -428v-242z" />
    <glyph glyph-name="Z" unicode="Z" horiz-adv-x="609" 
d="M570 0h-520l-15 117l334 424h-318v129h507l5 -119l-336 -423h335z" />
    <glyph glyph-name="bracketleft" unicode="[" horiz-adv-x="332" 
d="M305 -239h-234v983h224v-113h-92v-758h102v-112z" />
    <glyph glyph-name="backslash" unicode="\" horiz-adv-x="452" 
d="M418 -221h-138l-242 898h141z" />
    <glyph glyph-name="bracketright" unicode="]" horiz-adv-x="331" 
d="M260 -239h-228v112h96v760h-98v111h230v-983z" />
    <glyph glyph-name="asciicircum" unicode="^" horiz-adv-x="532" 
d="M484 310h-139l-85 194h-1l-86 -194h-140l170 361h115z" />
    <glyph glyph-name="underscore" unicode="_" horiz-adv-x="462" 
d="M455 -175h-448v120h448v-120z" />
    <glyph glyph-name="grave" unicode="`" horiz-adv-x="497" 
d="M300 540l-198 138l72 97l186 -149z" />
    <glyph glyph-name="a" unicode="a" horiz-adv-x="502" 
d="M302 131v71l-73 -10q-51 -8 -51 -46q0 -21 12 -32.5t32 -11.5q36 0 80 29zM447 299v-296l-123 -13h-10v58h-4q-15 -12 -29 -21t-32 -18t-40 -13.5t-46 -4.5h-4q-53 1 -91.5 37.5t-38.5 103.5q0 34 12 59.5t28.5 40t45 25t49 14.5t52.5 9l86 11v18q0 34 -15.5 48.5
t-55.5 14.5q-75 0 -161 -32l-11 120q85 32 188 32q99 0 149.5 -45.5t50.5 -147.5z" />
    <glyph glyph-name="b" unicode="b" horiz-adv-x="572" 
d="M207 328v-213q30 -5 61 -5q120 0 120 140q0 62 -21 89.5t-65 27.5q-48 0 -95 -39zM62 4v710l118 15h27v-183q0 -41 -4 -103h2q69 49 143 49q88 0 139 -58t51 -174q0 -125 -72 -198.5t-209 -73.5q-89 0 -195 16z" />
    <glyph glyph-name="b" unicode="&#xe003;" horiz-adv-x="572" 
d="M207 328v-213q30 -5 61 -5q120 0 120 140q0 62 -21 89.5t-65 27.5q-48 0 -95 -39zM62 4v710l118 15h27v-183q0 -41 -4 -103h2q69 49 143 49q88 0 139 -58t51 -174q0 -125 -72 -198.5t-209 -73.5q-89 0 -195 16z" />
    <glyph glyph-name="c" unicode="c" horiz-adv-x="479" 
d="M441 142v-127q-77 -27 -155 -27q-132 0 -192.5 64.5t-60.5 188.5q0 117 69 184t187 67q77 0 147 -24l-10 -126q-76 26 -128 26q-115 0 -115 -124q0 -131 121 -131q63 0 137 29z" />
    <glyph glyph-name="d" unicode="d" horiz-adv-x="574" 
d="M513 729v-719l-116 -22h-19v50q-27 -20 -70 -35t-76 -15q-86 0 -142 61t-56 179q0 122 66.5 193t181.5 71q29 0 86 -11v233l127 15h18zM368 153v209q-34 9 -63 9q-122 0 -122 -139q0 -117 94 -117q45 0 91 38z" />
    <glyph glyph-name="e" unicode="e" horiz-adv-x="518" 
d="M479 210h-290q1 -58 33 -78t98 -20q65 0 146 30v-124q-98 -30 -184 -30q-249 0 -249 251q0 107 62.5 180t176.5 73q57 0 99.5 -18t66.5 -49t35 -67t11 -76t-5 -72zM272 382q-72 0 -82 -82h146v7q0 33 -16 54t-48 21z" />
    <glyph glyph-name="f" unicode="f" horiz-adv-x="415" 
d="M102 478v41q-1 108 61 162t158 54q65 0 139 -19l-16 -120q-58 14 -104 14q-41 0 -68 -23.5t-27 -70.5v-37h153v-117h-151v-362h-145v363h-79v96z" />
    <glyph glyph-name="g" unicode="g" horiz-adv-x="566" 
d="M260 111q-27 0 -48 4q-16 -27 -16 -45q0 -19 48 -19q13 0 50 2.5t58 2.5q37 0 64.5 -5t55 -18t42 -40t14.5 -67q0 -81 -65 -136t-211 -55q-118 0 -165 32.5t-47 88.5q0 67 69 109q-36 22 -36 66q0 60 48 118q-79 44 -79 148q0 83 59.5 139t158.5 56q47 0 89 -13h203v-113
h-95q21 -36 21 -69q0 -92 -60.5 -139t-157.5 -47zM191 301q0 -38 18 -58.5t51 -20.5q32 0 50.5 20.5t18.5 58.5q0 37 -18.5 58t-50.5 21t-50.5 -21t-18.5 -58zM377 -96q0 17 -16.5 23t-54.5 6q-12 0 -47 -0.5t-58 -0.5q-20 -28 -20 -52q0 -41 85 -41q53 0 82 17.5t29 47.5z
" />
    <glyph glyph-name="h" unicode="h" horiz-adv-x="580" 
d="M522 0h-145v293q0 69 -58 69q-46 0 -110 -38v-324h-145v714l118 15h27v-290q82 53 154 53q69 0 114 -42t45 -134v-316z" />
    <glyph glyph-name="i" unicode="i" horiz-adv-x="271" 
d="M216 575l-164 -20v158h164v-138zM207 0h-145v475l119 14h26v-489z" />
    <glyph glyph-name="j" unicode="j" horiz-adv-x="271" 
d="M207 35q0 -87 -42 -159.5t-152 -129.5l-56 99q105 71 105 175v455l119 14h26v-454zM216 575l-163 -20v158h163v-138z" />
    <glyph glyph-name="k" unicode="k" horiz-adv-x="558" 
d="M209 729v-437l145 187h185l-185 -233l201 -246h-188l-158 200v-200h-145v714l118 15h27z" />
    <glyph glyph-name="l" unicode="l" horiz-adv-x="273" 
d="M64 714l117 15h28v-729h-145v714z" />
    <glyph glyph-name="m" unicode="m" horiz-adv-x="871" 
d="M659 492q71 0 112.5 -43.5t41.5 -127.5v-321h-145v291q0 39 -13 55t-40 16q-45 0 -105 -35v-327h-145v291q0 71 -53 71q-43 0 -105 -35v-327h-145v475l107 14h19l8 -56q93 59 160 59q94 0 131 -68l30 18q83 50 142 50z" />
    <glyph glyph-name="n" unicode="n" horiz-adv-x="578" 
d="M520 0h-145v293q0 69 -55 69q-40 0 -113 -35v-327h-145v475l107 14h18l9 -56q98 59 165 59q69 0 114 -42t45 -134v-316z" />
    <glyph glyph-name="o" unicode="o" horiz-adv-x="560" 
d="M33 241q0 116 62.5 183.5t184.5 67.5t184.5 -67.5t62.5 -183.5t-62.5 -184.5t-184.5 -68.5t-184.5 68t-62.5 185zM182 241q0 -130 98 -130t98 130q0 129 -98 129t-98 -129z" />
    <glyph glyph-name="p" unicode="p" horiz-adv-x="575" 
d="M62 -262v737l116 14h19v-48h2q74 51 147 51q86 0 140.5 -61.5t54.5 -179.5q0 -121 -65 -190.5t-174 -69.5q-43 0 -95 10v-240l-127 -23h-18zM207 327v-210q38 -7 74 -7q56 0 83.5 33t27.5 103q0 65 -22 92t-65 27q-47 0 -98 -38z" />
    <glyph glyph-name="q" unicode="q" horiz-adv-x="571" 
d="M364 151v213q-30 5 -60 5q-121 0 -121 -141q0 -61 21.5 -88.5t64.5 -27.5q50 0 95 39zM509 475v-710l-118 -27h-27v195q0 41 4 103h-2q-66 -48 -142 -48q-88 0 -139 57t-51 174q0 125 72 198.5t209 73.5h39q81 -4 155 -16z" />
    <glyph glyph-name="r" unicode="r" horiz-adv-x="390" 
d="M207 0h-145v475l108 14h18l8 -79h3q52 76 140 76q11 0 35 -2v-30q0 -14 -1 -41.5t-1 -41.5v-7.5v-6.5h-12q-56 0 -92 -21.5t-61 -65.5v-270z" />
    <glyph glyph-name="s" unicode="s" horiz-adv-x="453" 
d="M240 492q94 0 154 -18v-127h-10q-67 22 -129 22q-68 0 -68 -35q0 -14 17.5 -22.5t43.5 -12.5t56 -13t56 -22.5t43.5 -44t17.5 -73.5q0 -158 -234 -158q-74 0 -141 15v125h8q82 -17 138 -17q80 0 80 33q0 17 -24 26.5t-58.5 16.5t-69 20t-58.5 47t-24 87q0 67 55.5 109
t146.5 42z" />
    <glyph glyph-name="s" unicode="&#xe004;" horiz-adv-x="453" 
d="M240 492q94 0 154 -18v-127h-10q-67 22 -129 22q-68 0 -68 -35q0 -14 17.5 -22.5t43.5 -12.5t56 -13t56 -22.5t43.5 -44t17.5 -73.5q0 -158 -234 -158q-74 0 -141 15v125h8q82 -17 138 -17q80 0 80 33q0 17 -24 26.5t-58.5 16.5t-69 20t-58.5 47t-24 87q0 67 55.5 109
t146.5 42z" />
    <glyph glyph-name="t" unicode="t" horiz-adv-x="417" 
d="M373 127q2 -39 8 -117q-70 -22 -142 -22q-68 0 -107.5 32t-39.5 118v224h-67v99l67 16v116l122 28h23v-142h154v-117h-154v-197q0 -54 54 -54q27 0 82 16z" />
    <glyph glyph-name="u" unicode="u" horiz-adv-x="574" 
d="M214 -12q-70 0 -114.5 41.5t-44.5 133.5v312l121 14h24v-303q0 -69 58 -69q47 0 110 39v319l120 14h25v-476l-116 -25h-18v59q-98 -59 -165 -59z" />
    <glyph glyph-name="v" unicode="v" horiz-adv-x="537" 
d="M352 -10h-166l-180 489h155l107 -326h5l103 326h155z" />
    <glyph glyph-name="w" unicode="w" horiz-adv-x="815" 
d="M670 -9h-167l-82 271l-8 56h-10l-9 -56l-79 -271h-167l-130 488h152q32 -144 68 -325h9l94 325h141l96 -325h8l71 325h138z" />
    <glyph glyph-name="x" unicode="x" horiz-adv-x="564" 
d="M557 0h-178l-107 149l-95 -149h-166l179 249l-178 230h173l103 -143l90 143h168l-174 -233z" />
    <glyph glyph-name="y" unicode="y" horiz-adv-x="517" 
d="M150 -263l-80 87q44 34 70 60.5t43 60.5l23 47h-32l-166 487h156l89 -331h5l102 331h150l-170 -490q-62 -176 -190 -252z" />
    <glyph glyph-name="y" unicode="&#xe006;" horiz-adv-x="517" 
d="M150 -263l-80 87q44 34 70 60.5t43 60.5l23 47h-32l-166 487h156l89 -331h5l102 331h150l-170 -490q-62 -176 -190 -252z" />
    <glyph glyph-name="z" unicode="z" horiz-adv-x="507" 
d="M471 0h-428l-7 109l246 246h-235v124h408l10 -110l-249 -246h247z" />
    <glyph glyph-name="braceleft" unicode="{" horiz-adv-x="391" 
d="M382 -104l15 -124q-46 -9 -86 -12q-108 0 -157 39t-49 144q0 27 6.5 78.5t6.5 75.5q0 32 -9.5 62.5t-23.5 30.5h-63v127h63q6 0 6 29q26 19 26 74q0 24 -7 76t-7 78q0 174 180 174q54 0 114 -12l-15 -123q-72 15 -91 15q-56 0 -56 -52q0 -34 10 -102t10 -103
q0 -70 -55 -117q55 -50 55 -117q0 -36 -10 -103t-10 -102q0 -52 49 -52q36 0 98 16z" />
    <glyph glyph-name="bar" unicode="|" horiz-adv-x="270" 
d="M199 -230h-128v977h128v-977z" />
    <glyph glyph-name="braceright" unicode="}" horiz-adv-x="391" 
d="M-3 -228q8 87 13 124q62 -16 98 -16q49 0 49 52q0 34 -9.5 101.5t-9.5 103.5q0 71 54 116q-54 49 -54 118q0 36 9.5 103.5t9.5 101.5q0 52 -55 52q-22 0 -92 -15q-5 41 -13 123q56 12 113 12q179 0 179 -167q0 -34 -9.5 -100.5t-9.5 -99.5q0 -38 11.5 -51t50.5 -13h39
v-127h-39q-39 0 -50.5 -12.5t-11.5 -50.5q0 -33 9.5 -99t9.5 -100q0 -95 -52 -131.5t-155 -36.5q-44 3 -85 12z" />
    <glyph glyph-name="asciitilde" unicode="~" horiz-adv-x="607" 
d="M536 344l24 -122q-73 -39 -140 -39q-43 0 -115.5 16.5t-106.5 16.5q-52 0 -131 -45l-16 128q78 43 157 43q43 0 115 -16t102 -16q44 0 111 34z" />
    <glyph glyph-name="exclamdown" unicode="&#xa1;" horiz-adv-x="270" 
d="M64 343l141 -37l13 -463h-169zM48 513h170v-139l-170 40v99z" />
    <glyph glyph-name="cent" unicode="&#xa2;" horiz-adv-x="485" 
d="M327 -109h-128v106q-168 36 -168 244q0 92 44.5 154.5t123.5 84.5v110h128v-100q50 -4 107 -22l-10 -126q-76 26 -128 26q-115 0 -115 -124q0 -131 121 -131q63 0 137 29v-127q-56 -21 -112 -25v-99z" />
    <glyph glyph-name="sterling" unicode="&#xa3;" horiz-adv-x="546" 
d="M503 0h-474l21 116q26 0 40.5 2.5t31 11t24 28.5t7.5 53v57h-86v109h86v60q0 117 80 178.5t221 66.5l15 -123h-8q-79 0 -123.5 -30t-44.5 -95v-57h147v-109h-147v-58q0 -58 -31 -92h241v-118z" />
    <glyph glyph-name="currency" unicode="&#xa4;" horiz-adv-x="506" 
d="M402 42l-76 71q-35 -15 -72 -15q-41 0 -75 16l-75 -72l-64 65l72 71q-20 34 -20 75q0 36 19 72q-7 8 -36.5 37t-34.5 34l65 65l74 -72q36 18 75 18q37 0 74 -17l73 71l65 -65l-71 -69q21 -37 21 -74q0 -40 -21 -76l71 -70zM319 253q0 30 -18 51t-47 21t-47 -21t-18 -51
q0 -31 18 -51.5t47 -20.5t47 20.5t18 51.5z" />
    <glyph glyph-name="yen" unicode="&#xa5;" horiz-adv-x="673" 
d="M414 0h-154v95h-172v108h172v32h-172v108h118l-172 327h176l128 -278l128 278h172l-171 -327h119v-108h-172v-32h172v-108h-172v-95z" />
    <glyph glyph-name="brokenbar" unicode="&#xa6;" horiz-adv-x="275" 
d="M202 323h-129v424h129v-424zM202 -230h-129v427h129v-427z" />
    <glyph glyph-name="section" unicode="&#xa7;" horiz-adv-x="518" 
d="M257 261l-47 19q-20 -30 -20 -53q0 -37 69 -65l35 -15q21 26 21 57q0 20 -13.5 32t-44.5 25zM202 -85q81 0 81 54q0 23 -16 35t-66 32q-82 33 -125 74t-43 108q0 76 77 125q-49 44 -49 106q0 85 65.5 131t165.5 47q82 0 154 -29v-124h-10q-76 25 -140 25q-74 0 -74 -43
q0 -19 26.5 -35.5t64 -31.5t74.5 -34t63.5 -53.5t26.5 -79.5q0 -89 -69 -145q40 -45 40 -94q0 -53 -20 -91.5t-55.5 -59.5t-77.5 -30.5t-92 -9.5q-57 0 -141 19v125h8q101 -21 132 -21z" />
    <glyph glyph-name="dieresis" unicode="&#xa8;" horiz-adv-x="554" 
d="M241 580h-147v129h147v-129zM459 580h-148v129h148v-129z" />
    <glyph glyph-name="copyright" unicode="&#xa9;" horiz-adv-x="782" 
d="M36 336q0 145 99.5 245.5t255.5 100.5q158 0 257 -100.5t99 -245.5q0 -146 -99 -246.5t-257 -100.5q-157 0 -256 100.5t-99 246.5zM391 84q114 0 185 73t71 179t-71 179t-185 73q-113 0 -184.5 -73t-71.5 -179t71.5 -179t184.5 -73zM431 378l4 54q-22 4 -35 4
q-35 0 -60 -23.5t-25 -70.5q0 -101 85 -101q57 0 117 21l19 -75q-74 -27 -142 -27q-88 0 -133.5 50t-45.5 132q0 84 53 130t131 46q54 0 123 -24l-7 -121z" />
    <glyph glyph-name="ordfeminine" unicode="&#xaa;" horiz-adv-x="357" 
d="M213 443v44l-36 -5q-24 -3 -34 -10t-10 -22q0 -23 30 -23q22 0 50 16zM37 449q0 77 105 91l71 9v27q0 28 -45 28q-56 0 -109 -16l-5 78q61 16 125 16q68 0 97.5 -28t29.5 -84v-209l-87 -9v35q-42 -34 -90 -34q-40 0 -66 24.5t-26 71.5z" />
    <glyph glyph-name="guillemotleft" unicode="&#xab;" horiz-adv-x="490" 
d="M457 92l-105 -60l-138 236l138 233l104 -59l-111 -175zM259 86l-100 -60l-140 242l137 239l102 -59l-108 -181z" />
    <glyph glyph-name="logicalnot" unicode="&#xac;" horiz-adv-x="570" 
d="M515 65l-131 10v136h-342v116h473v-262z" />
    <glyph glyph-name="registered" unicode="&#xae;" horiz-adv-x="783" 
d="M527 404q0 -54 -52 -100l79 -130h-109l-59 105h-28v-105h-96v334h139q57 0 91.5 -28t34.5 -76zM358 427v-74h51q20 17 20 41q0 13 -9.5 23t-27.5 10h-34zM36 335q0 145 99.5 245.5t255.5 100.5q158 0 257 -100.5t99 -245.5q0 -146 -99 -246.5t-257 -100.5
q-157 0 -256 100.5t-99 246.5zM391 83q114 0 185 73t71 179t-71 179t-185 73q-113 0 -184.5 -73t-71.5 -179t71.5 -179t184.5 -73z" />
    <glyph glyph-name="macron" unicode="&#xaf;" horiz-adv-x="525" 
d="M444 556h-363v115h363v-115z" />
    <glyph glyph-name="degree" unicode="&#xb0;" horiz-adv-x="326" 
d="M163 511q15 0 25.5 11.5t10.5 31.5t-10.5 32.5t-25.5 12.5t-25 -12.5t-10 -32.5q0 -43 35 -43zM34 554q0 55 35.5 88t93.5 33t93.5 -33t35.5 -88t-35.5 -87.5t-93.5 -32.5t-93.5 32t-35.5 88z" />
    <glyph glyph-name="plusminus" unicode="&#xb1;" horiz-adv-x="600" 
d="M542 0h-485v117h485v-117zM542 310h-177v-161h-131v161h-177v118h177v171h131v-171h177v-118z" />
    <glyph glyph-name="twosuperior" unicode="&#xb2;" horiz-adv-x="447" 
d="M401 274h-347l-12 86q12 9 65.5 54t61.5 50q84 69 84 118q0 53 -69 53q-55 0 -121 -30l-16 107q74 30 155 30q79 0 129 -38t50 -107q0 -79 -105 -167q-4 -3 -32.5 -26.5t-34.5 -27.5h192v-102z" />
    <glyph glyph-name="threesuperior" unicode="&#xb3;" horiz-adv-x="412" 
d="M40 279l13 99q78 -14 121 -14q76 0 76 47q0 45 -78 45q-36 0 -73 -5v97q42 7 71 7q30 0 55 -3q17 23 17 47q0 17 -14.5 29t-46.5 12q-44 0 -114 -25l-17 101q78 26 152 26q69 0 115 -33.5t46 -94.5q0 -52 -45 -101q57 -39 57 -100q0 -71 -55 -111t-142 -40q-69 0 -138 17
z" />
    <glyph glyph-name="acute" unicode="&#xb4;" horiz-adv-x="497" 
d="M386 677l-198 -137l-61 85l186 149z" />
    <glyph glyph-name="paragraph" unicode="&#xb6;" horiz-adv-x="688" 
d="M432 -251l-63 103q59 37 85 76t26 89v525h-52v-542h-142v209q-117 4 -190 62.5t-73 169.5q0 113 73.5 171t191.5 58h334v-636q0 -87 -40 -156.5t-150 -128.5z" />
    <glyph glyph-name="periodcentered" unicode="&#xb7;" horiz-adv-x="309" 
d="M244 192h-179v159h179v-159z" />
    <glyph glyph-name="cedilla" unicode="&#xb8;" horiz-adv-x="427" 
d="M117 -255v78q16 -4 44 -4q64 0 64 27q0 20 -39 20q-15 0 -29 -5l-40 48l62 91h116l-57 -66q94 -10 94 -89q0 -47 -36 -75.5t-111 -28.5q-32 0 -68 4z" />
    <glyph glyph-name="onesuperior" unicode="&#xb9;" horiz-adv-x="404" 
d="M357 274h-310v102h104v254h-87v103h206v-357h87v-102z" />
    <glyph glyph-name="ordmasculine" unicode="&#xba;" horiz-adv-x="396" 
d="M320 387q-40 -45 -122 -45t-122 45t-40 123t40 123t122 45t122 -45t40 -123t-40 -123zM251 577q-16 22 -53 22t-53 -21.5t-16 -67.5t16 -67.5t53 -21.5t53 21.5t16 67.5t-16 67z" />
    <glyph glyph-name="guillemotright" unicode="&#xbb;" horiz-adv-x="490" 
d="M138 32l-105 60l110 175l-109 175l104 59l137 -233zM331 26l-101 60l111 181l-109 181l102 59l137 -239z" />
    <glyph glyph-name="onequarter" unicode="&#xbc;" horiz-adv-x="1048" 
d="M956 0h-120v98h-228v84l106 282h125l-101 -265h98v66l10 95h110v-161h61v-101h-61v-98zM355 -111l-102 45l384 858l102 -43zM350 274h-310v102h104v254h-87v103h206v-357h87v-102z" />
    <glyph glyph-name="onehalf" unicode="&#xbd;" horiz-adv-x="1038" 
d="M351 -111l-102 45l384 858l102 -43zM1003 0h-346l-13 86q12 8 65.5 53.5t61.5 50.5q84 68 85 119q0 52 -69 52q-56 0 -122 -30l-16 107q74 30 155 30q80 0 129.5 -38t49.5 -107q0 -79 -105 -167q-3 -2 -18.5 -15t-29.5 -24t-19 -15h192v-102zM346 274h-310v102h104v254
h-87v103h206v-357h87v-102z" />
    <glyph glyph-name="threequarters" unicode="&#xbe;" horiz-adv-x="1029" 
d="M38 279l12 99q79 -14 122 -14q76 0 76 47q0 45 -78 45q-36 0 -73 -5v97q40 7 71 7q32 0 54 -3q18 24 18 47q0 17 -14.5 29t-46.5 12q-44 0 -114 -25l-17 101q80 26 152 26q69 0 114.5 -33.5t45.5 -94.5q0 -51 -44 -101q56 -38 56 -100q0 -71 -55 -111t-141 -40
q-69 0 -138 17zM935 0h-120v98h-228v84l106 282h125l-101 -265h98v66l10 95h110v-161h61v-101h-61v-98zM334 -111l-102 45l384 858l102 -43z" />
    <glyph glyph-name="questiondown" unicode="&#xbf;" horiz-adv-x="470" 
d="M225 353l135 -35q8 -30 8 -56q0 -45 -28.5 -83.5t-62.5 -61t-62.5 -50.5t-28.5 -54q0 -27 21.5 -42.5t61.5 -15.5q70 0 160 34l12 -122q-99 -36 -189 -36q-109 0 -159.5 52t-50.5 124q1 16 3.5 30.5t8.5 28t11 23.5t16 22t17 18.5t21 18.5t21 16.5t24.5 17.5t23.5 17
q27 20 38.5 37.5t11.5 43.5q0 34 -13 73zM207 513h161v-137l-161 35v102z" />
    <glyph glyph-name="Agrave" unicode="&#xc0;" 
d="M322 722l-198 138l72 97l186 -149zM656 0h-164l-38 112h-248l-37 -112h-164l239 670h172zM412 239l-82 250l-81 -250h163z" />
    <glyph glyph-name="Aacute" unicode="&#xc1;" 
d="M514 861l-198 -137l-61 85l186 149zM656 0h-164l-38 112h-248l-37 -112h-164l239 670h172zM412 239l-82 250l-81 -250h163z" />
    <glyph glyph-name="Acircumflex" unicode="&#xc2;" 
d="M458 719l-127 99l-125 -99l-69 88l194 143l193 -143zM656 0h-164l-38 112h-248l-37 -112h-164l239 670h172zM412 239l-82 250l-81 -250h163z" />
    <glyph glyph-name="Atilde" unicode="&#xc3;" 
d="M509 884l18 -116q-52 -42 -107 -42q-26 0 -74 14t-76 14q-57 0 -118 -40l-18 118q64 41 123 41q29 0 77 -14t73 -14q53 0 102 39zM656 0h-164l-38 112h-248l-37 -112h-164l239 670h172zM412 239l-82 250l-81 -250h163z" />
    <glyph glyph-name="Adieresis" unicode="&#xc4;" 
d="M295 735h-147v129h147v-129zM513 735h-148v129h148v-129zM656 0h-164l-38 112h-248l-37 -112h-164l239 670h172zM412 239l-82 250l-81 -250h163z" />
    <glyph glyph-name="Aring" unicode="&#xc5;" 
d="M458 838q0 -52 -36.5 -83.5t-90.5 -31.5q-55 0 -91 31.5t-36 83.5q0 50 36.5 82.5t90.5 32.5t90.5 -32.5t36.5 -82.5zM331 801q14 0 24 10t10 27q0 16 -10 26t-24 10q-15 0 -25 -10t-10 -26q0 -17 10 -27t25 -10zM656 0h-164l-38 112h-248l-37 -112h-164l239 670h172z
M412 239l-82 250l-81 -250h163z" />
    <glyph glyph-name="AE" unicode="&#xc6;" horiz-adv-x="945" 
d="M903 0h-470v115h-216q-44 -98 -51 -115h-169l314 670h595q-2 -19 -4 -40.5t-4.5 -48t-3.5 -40.5h-306v-135h260v-126h-260v-152h303zM433 242v299h-25l-139 -299h164z" />
    <glyph glyph-name="Ccedilla" unicode="&#xc7;" horiz-adv-x="644" 
d="M248 -255v78q16 -4 44 -4q64 0 64 27q0 20 -39 20q-15 0 -29 -5l-40 48l57 84q-266 30 -266 348q0 162 97.5 250.5t260.5 88.5q88 0 193 -25l-12 -243l-137 1l5 135q-28 5 -68 5q-81 0 -131 -52t-50 -160q0 -120 49.5 -172t130.5 -52q95 0 198 41l34 -125
q-88 -34 -191 -42l-49 -57q94 -10 94 -89q0 -47 -36 -75.5t-111 -28.5q-32 0 -68 4z" />
    <glyph glyph-name="Egrave" unicode="&#xc8;" horiz-adv-x="591" 
d="M363 721l-198 138l72 97l186 -149zM550 0h-470v670h472l-13 -129h-305v-135h260v-126h-260v-152h303z" />
    <glyph glyph-name="Eacute" unicode="&#xc9;" horiz-adv-x="591" 
d="M472 858l-198 -137l-61 85l186 149zM550 0h-470v670h472l-13 -129h-305v-135h260v-126h-260v-152h303z" />
    <glyph glyph-name="Ecircumflex" unicode="&#xca;" horiz-adv-x="591" 
d="M437 719l-127 99l-125 -99l-69 88l194 143l193 -143zM550 0h-470v670h472l-13 -129h-305v-135h260v-126h-260v-152h303z" />
    <glyph glyph-name="Edieresis" unicode="&#xcb;" horiz-adv-x="591" 
d="M277 735h-147v129h147v-129zM495 735h-148v129h148v-129zM550 0h-470v670h472l-13 -129h-305v-135h260v-126h-260v-152h303z" />
    <glyph glyph-name="Igrave" unicode="&#xcc;" horiz-adv-x="469" 
d="M238 721l-198 138l72 97l186 -149zM427 0h-385v124h115v421h-115v125h385v-125h-116v-421h116v-124z" />
    <glyph glyph-name="Iacute" unicode="&#xcd;" horiz-adv-x="469" 
d="M433 858l-198 -137l-61 85l186 149zM427 0h-385v124h115v421h-115v125h385v-125h-116v-421h116v-124z" />
    <glyph glyph-name="Icircumflex" unicode="&#xce;" horiz-adv-x="469" 
d="M364 721l-127 99l-125 -99l-69 88l194 143l193 -143zM427 0h-385v124h115v421h-115v125h385v-125h-116v-421h116v-124z" />
    <glyph glyph-name="Idieresis" unicode="&#xcf;" horiz-adv-x="469" 
d="M201 735h-147v129h147v-129zM419 735h-148v129h148v-129zM427 0h-385v124h115v421h-115v125h385v-125h-116v-421h116v-124z" />
    <glyph glyph-name="Eth" unicode="&#xd0;" horiz-adv-x="735" 
d="M351 0h-240v270h-87v128h87v272h240q160 0 252 -81t92 -254t-92.5 -254t-251.5 -81zM350 129q186 0 186 206q0 207 -186 207h-85v-144h120v-128h-120v-141h85z" />
    <glyph glyph-name="Ntilde" unicode="&#xd1;" horiz-adv-x="771" 
d="M564 878l18 -116q-52 -42 -107 -42q-26 0 -74 14t-76 14q-57 0 -118 -40l-18 118q64 41 123 41q29 0 77 -14t73 -14q53 0 102 39zM691 0h-175l-228 333l-47 109h-8v-442h-153v670h173l220 -337l58 -121h7v458h153v-670z" />
    <glyph glyph-name="Ograve" unicode="&#xd2;" horiz-adv-x="736" 
d="M370 724l-198 138l72 97l186 -149zM243 498q-46 -57 -46 -163t46.5 -163t124.5 -57t124 57t46 163t-46 163t-124 57t-125 -57zM38 335q0 160 88 253.5t242 93.5t242 -94t88 -253t-88 -253t-242 -94t-242 94t-88 253z" />
    <glyph glyph-name="Oacute" unicode="&#xd3;" horiz-adv-x="736" 
d="M572 858l-198 -137l-61 85l186 149zM243 498q-46 -57 -46 -163t46.5 -163t124.5 -57t124 57t46 163t-46 163t-124 57t-125 -57zM38 335q0 160 88 253.5t242 93.5t242 -94t88 -253t-88 -253t-242 -94t-242 94t-88 253z" />
    <glyph glyph-name="Ocircumflex" unicode="&#xd4;" horiz-adv-x="736" 
d="M495 724l-127 99l-125 -99l-69 88l194 143l193 -143zM243 498q-46 -57 -46 -163t46.5 -163t124.5 -57t124 57t46 163t-46 163t-124 57t-125 -57zM38 335q0 160 88 253.5t242 93.5t242 -94t88 -253t-88 -253t-242 -94t-242 94t-88 253z" />
    <glyph glyph-name="Otilde" unicode="&#xd5;" horiz-adv-x="736" 
d="M546 892l18 -116q-52 -42 -107 -42q-26 0 -74 14t-76 14q-57 0 -118 -40l-18 118q64 41 123 41q29 0 77 -14t73 -14q53 0 102 39zM243 498q-46 -57 -46 -163t46.5 -163t124.5 -57t124 57t46 163t-46 163t-124 57t-125 -57zM38 335q0 160 88 253.5t242 93.5t242 -94
t88 -253t-88 -253t-242 -94t-242 94t-88 253z" />
    <glyph glyph-name="Odieresis" unicode="&#xd6;" horiz-adv-x="736" 
d="M332 736h-147v129h147v-129zM550 736h-148v129h148v-129zM243 498q-46 -57 -46 -163t46.5 -163t124.5 -57t124 57t46 163t-46 163t-124 57t-125 -57zM38 335q0 160 88 253.5t242 93.5t242 -94t88 -253t-88 -253t-242 -94t-242 94t-88 253z" />
    <glyph glyph-name="multiply" unicode="&#xd7;" horiz-adv-x="600" 
d="M441 34l-139 136l-139 -136l-88 89l140 135l-138 134l89 90l137 -135l136 136l90 -92l-139 -132l140 -136z" />
    <glyph glyph-name="Oslash" unicode="&#xd8;" horiz-adv-x="736" 
d="M38 335q0 160 88 253.5t242 93.5q57 0 102 -13l46 85l117 -59l-46 -86q111 -94 111 -274q0 -159 -88 -253t-242 -94q-56 0 -107 14l-57 -108l-119 59l59 111q-106 94 -106 271zM538 335q0 77 -27 133l-187 -348q17 -5 44 -5q78 0 124 57t46 163zM197 335q0 -77 24 -128
l185 344q-24 4 -38 4q-78 0 -124.5 -57t-46.5 -163z" />
    <glyph glyph-name="Ugrave" unicode="&#xd9;" horiz-adv-x="704" 
d="M355 724l-198 138l72 97l186 -149zM633 236q0 -115 -78.5 -181.5t-202.5 -66.5q-125 0 -203 66.5t-78 181.5v434h154v-433q0 -58 37 -89t90 -31q54 0 90.5 31t36.5 89v433h154v-434z" />
    <glyph glyph-name="Uacute" unicode="&#xda;" horiz-adv-x="704" 
d="M538 861l-198 -137l-61 85l186 149zM633 236q0 -115 -78.5 -181.5t-202.5 -66.5q-125 0 -203 66.5t-78 181.5v434h154v-433q0 -58 37 -89t90 -31q54 0 90.5 31t36.5 89v433h154v-434z" />
    <glyph glyph-name="Ucircumflex" unicode="&#xdb;" horiz-adv-x="704" 
d="M479 724l-127 99l-125 -99l-69 88l194 143l193 -143zM633 236q0 -115 -78.5 -181.5t-202.5 -66.5q-125 0 -203 66.5t-78 181.5v434h154v-433q0 -58 37 -89t90 -31q54 0 90.5 31t36.5 89v433h154v-434z" />
    <glyph glyph-name="Udieresis" unicode="&#xdc;" horiz-adv-x="704" 
d="M316 736h-147v129h147v-129zM534 736h-148v129h148v-129zM633 236q0 -115 -78.5 -181.5t-202.5 -66.5q-125 0 -203 66.5t-78 181.5v434h154v-433q0 -58 37 -89t90 -31q54 0 90.5 31t36.5 89v433h154v-434z" />
    <glyph glyph-name="Yacute" unicode="&#xdd;" horiz-adv-x="608" 
d="M433 877l-198 -137l-61 85l186 149zM382 0h-154v241l-226 429h176l128 -278l128 278h172l-224 -428v-242z" />
    <glyph glyph-name="Thorn" unicode="&#xde;" horiz-adv-x="576" 
d="M234 0h-154v723h150v-135h69q115 0 186 -59t71 -168q0 -108 -71.5 -168.5t-185.5 -60.5h-65v-132zM234 260h66q97 0 97 101q0 98 -97 98h-66v-199z" />
    <glyph glyph-name="germandbls" unicode="&#xdf;" horiz-adv-x="626" 
d="M408 361q0 -19 20.5 -33.5t49 -26.5t57.5 -27.5t49.5 -44t20.5 -68.5q0 -85 -56 -129t-143 -44q-70 0 -151 19l13 122q71 -17 113 -17q65 0 65 36q0 16 -20.5 26.5t-49 20.5t-57.5 25t-49.5 48t-20.5 82q0 34 18.5 63t40 46.5t40 41t18.5 46.5q0 27 -17.5 45.5
t-45.5 18.5q-41 0 -68.5 -32t-27.5 -86v-746h-143v748q0 113 70.5 176.5t168.5 63.5q92 0 156.5 -55t64.5 -138q0 -37 -18 -66.5t-40 -45t-40 -34t-18 -35.5z" />
    <glyph glyph-name="agrave" unicode="&#xe0;" horiz-adv-x="502" 
d="M302 131v71l-73 -10q-51 -8 -51 -46q0 -21 12 -32.5t32 -11.5q36 0 80 29zM447 299v-296l-123 -13h-10v58h-4q-15 -12 -29 -21t-32 -18t-40 -13.5t-46 -4.5h-4q-53 1 -91.5 37.5t-38.5 103.5q0 34 12 59.5t28.5 40t45 25t49 14.5t52.5 9l86 11v18q0 34 -15.5 48.5
t-55.5 14.5q-75 0 -161 -32l-11 120q85 32 188 32q99 0 149.5 -45.5t50.5 -147.5zM256 540l-198 138l72 97l186 -149z" />
    <glyph glyph-name="aacute" unicode="&#xe1;" horiz-adv-x="502" 
d="M388 677l-198 -137l-61 85l186 149zM302 131v71l-73 -10q-51 -8 -51 -46q0 -21 12 -32.5t32 -11.5q36 0 80 29zM447 299v-296l-123 -13h-10v58h-4q-15 -12 -29 -21t-32 -18t-40 -13.5t-46 -4.5h-4q-53 1 -91.5 37.5t-38.5 103.5q0 34 12 59.5t28.5 40t45 25t49 14.5
t52.5 9l86 11v18q0 34 -15.5 48.5t-55.5 14.5q-75 0 -161 -32l-11 120q85 32 188 32q99 0 149.5 -45.5t50.5 -147.5z" />
    <glyph glyph-name="acircumflex" unicode="&#xe2;" horiz-adv-x="502" 
d="M366 540l-127 99l-125 -99l-69 88l194 143l193 -143zM302 131v71l-73 -10q-51 -8 -51 -46q0 -21 12 -32.5t32 -11.5q36 0 80 29zM447 299v-296l-123 -13h-10v58h-4q-15 -12 -29 -21t-32 -18t-40 -13.5t-46 -4.5h-4q-53 1 -91.5 37.5t-38.5 103.5q0 34 12 59.5t28.5 40
t45 25t49 14.5t52.5 9l86 11v18q0 34 -15.5 48.5t-55.5 14.5q-75 0 -161 -32l-11 120q85 32 188 32q99 0 149.5 -45.5t50.5 -147.5z" />
    <glyph glyph-name="atilde" unicode="&#xe3;" horiz-adv-x="502" 
d="M438 701l18 -116q-52 -42 -107 -42q-26 0 -74 14t-76 14q-57 0 -118 -40l-18 118q64 41 123 41q29 0 77 -14t73 -14q53 0 102 39zM302 131v71l-73 -10q-51 -8 -51 -46q0 -21 12 -32.5t32 -11.5q36 0 80 29zM447 299v-296l-123 -13h-10v58h-4q-15 -12 -29 -21t-32 -18
t-40 -13.5t-46 -4.5h-4q-53 1 -91.5 37.5t-38.5 103.5q0 34 12 59.5t28.5 40t45 25t49 14.5t52.5 9l86 11v18q0 34 -15.5 48.5t-55.5 14.5q-75 0 -161 -32l-11 120q85 32 188 32q99 0 149.5 -45.5t50.5 -147.5z" />
    <glyph glyph-name="adieresis" unicode="&#xe4;" horiz-adv-x="502" 
d="M224 542h-147v129h147v-129zM442 542h-148v129h148v-129zM302 131v71l-73 -10q-51 -8 -51 -46q0 -21 12 -32.5t32 -11.5q36 0 80 29zM447 299v-296l-123 -13h-10v58h-4q-15 -12 -29 -21t-32 -18t-40 -13.5t-46 -4.5h-4q-53 1 -91.5 37.5t-38.5 103.5q0 34 12 59.5
t28.5 40t45 25t49 14.5t52.5 9l86 11v18q0 34 -15.5 48.5t-55.5 14.5q-75 0 -161 -32l-11 120q85 32 188 32q99 0 149.5 -45.5t50.5 -147.5z" />
    <glyph glyph-name="aring" unicode="&#xe5;" horiz-adv-x="502" 
d="M385 654q0 -52 -36.5 -83.5t-90.5 -31.5q-55 0 -91 31.5t-36 83.5q0 50 36.5 82.5t90.5 32.5t90.5 -32.5t36.5 -82.5zM258 617q14 0 24 10t10 27q0 16 -10 26t-24 10q-15 0 -25 -10t-10 -26q0 -17 10 -27t25 -10zM302 131v71l-73 -10q-51 -8 -51 -46q0 -21 12 -32.5
t32 -11.5q36 0 80 29zM447 299v-296l-123 -13h-10v58h-4q-15 -12 -29 -21t-32 -18t-40 -13.5t-46 -4.5h-4q-53 1 -91.5 37.5t-38.5 103.5q0 34 12 59.5t28.5 40t45 25t49 14.5t52.5 9l86 11v18q0 34 -15.5 48.5t-55.5 14.5q-75 0 -161 -32l-11 120q85 32 188 32
q99 0 149.5 -45.5t50.5 -147.5z" />
    <glyph glyph-name="ae" unicode="&#xe6;" horiz-adv-x="776" 
d="M736 210h-290q1 -58 33 -78t98 -20q64 0 147 30v-124q-99 -30 -185 -30q-128 0 -191 67q-56 -38 -94 -51t-89 -13q-57 0 -97 36t-40 104q0 37 13.5 64t39 42.5t48.5 23t56 13.5l117 15v19q0 39 -17 51t-74 12q-79 -7 -142 -31q-3 40 -11 120q90 32 188 32q93 0 143 -47
q58 47 140 47q57 0 99.5 -18t66.5 -49t35 -67t11 -76t-5 -72zM529 382q-72 0 -82 -82h147q0 82 -65 82zM302 201q-3 0 -19.5 -1.5t-26.5 -2.5t-26.5 -4.5t-26 -9t-17 -15t-7.5 -22.5q0 -21 11.5 -33t31.5 -12q34 0 80 29v71z" />
    <glyph glyph-name="ccedilla" unicode="&#xe7;" horiz-adv-x="479" 
d="M168 -255v78q16 -4 44 -4q64 0 64 27q0 20 -39 20q-15 0 -29 -5l-40 48l56 84q-191 27 -191 248q0 117 69 184t187 67q77 0 147 -24l-10 -126q-76 26 -128 26q-115 0 -115 -124q0 -131 121 -131q63 0 137 29v-127q-48 -18 -103 -24l-49 -57q94 -10 94 -89
q0 -47 -36 -75.5t-111 -28.5q-32 0 -68 4z" />
    <glyph glyph-name="egrave" unicode="&#xe8;" horiz-adv-x="518" 
d="M479 210h-290q1 -58 33 -78t98 -20q65 0 146 30v-124q-98 -30 -184 -30q-249 0 -249 251q0 107 62.5 180t176.5 73q57 0 99.5 -18t66.5 -49t35 -67t11 -76t-5 -72zM272 382q-72 0 -82 -82h146v7q0 33 -16 54t-48 21zM302 540l-198 138l72 97l186 -149z" />
    <glyph glyph-name="eacute" unicode="&#xe9;" horiz-adv-x="518" 
d="M458 677l-198 -137l-61 85l186 149zM479 210h-290q1 -58 33 -78t98 -20q65 0 146 30v-124q-98 -30 -184 -30q-249 0 -249 251q0 107 62.5 180t176.5 73q57 0 99.5 -18t66.5 -49t35 -67t11 -76t-5 -72zM272 382q-72 0 -82 -82h146v7q0 33 -16 54t-48 21z" />
    <glyph glyph-name="ecircumflex" unicode="&#xea;" horiz-adv-x="518" 
d="M399 540l-127 99l-125 -99l-69 88l194 143l193 -143zM479 210h-290q1 -58 33 -78t98 -20q65 0 146 30v-124q-98 -30 -184 -30q-249 0 -249 251q0 107 62.5 180t176.5 73q57 0 99.5 -18t66.5 -49t35 -67t11 -76t-5 -72zM272 382q-72 0 -82 -82h146v7q0 33 -16 54t-48 21z
" />
    <glyph glyph-name="edieresis" unicode="&#xeb;" horiz-adv-x="518" 
d="M238 544h-147v129h147v-129zM456 544h-148v129h148v-129zM479 210h-290q1 -58 33 -78t98 -20q65 0 146 30v-124q-98 -30 -184 -30q-249 0 -249 251q0 107 62.5 180t176.5 73q57 0 99.5 -18t66.5 -49t35 -67t11 -76t-5 -72zM272 382q-72 0 -82 -82h146v7q0 33 -16 54
t-48 21z" />
    <glyph glyph-name="igrave" unicode="&#xec;" horiz-adv-x="271" 
d="M207 0h-145v475l119 14h26v-489zM134 540l-198 138l72 97l186 -149z" />
    <glyph glyph-name="iacute" unicode="&#xed;" horiz-adv-x="271" 
d="M207 0h-145v475l119 14h26v-489zM338 677l-198 -137l-61 85l186 149z" />
    <glyph glyph-name="icircumflex" unicode="&#xee;" horiz-adv-x="271" 
d="M264 540l-127 99l-125 -99l-69 88l194 143l193 -143zM207 0h-145v475l119 14h26v-489z" />
    <glyph glyph-name="idieresis" unicode="&#xef;" horiz-adv-x="271" 
d="M207 0h-145v475l119 14h26v-489zM101 544h-147v129h147v-129zM319 544h-148v129h148v-129z" />
    <glyph glyph-name="eth" unicode="&#xf0;" horiz-adv-x="585" 
d="M519 708l-68 -64q96 -110 96 -308q0 -167 -74 -257t-193 -90q-112 0 -179.5 67t-67.5 173q0 114 69.5 176t174.5 62q56 0 117 -22q-7 63 -45 111l-45 -44l-82 79l38 34q-45 24 -106 41l41 124q94 -25 168 -72q12 11 35.5 35t35.5 35zM397 302v16q-56 21 -111 21
q-44 0 -74 -28t-30 -89q0 -57 27 -84.5t69 -27.5q53 0 86 48.5t33 143.5z" />
    <glyph glyph-name="ntilde" unicode="&#xf1;" horiz-adv-x="578" 
d="M470 701l18 -116q-52 -42 -107 -42q-26 0 -74 14t-76 14q-57 0 -118 -40l-18 118q64 41 123 41q29 0 77 -14t73 -14q53 0 102 39zM520 0h-145v293q0 69 -55 69q-40 0 -113 -35v-327h-145v475l107 14h18l9 -56q98 59 165 59q69 0 114 -42t45 -134v-316z" />
    <glyph glyph-name="ograve" unicode="&#xf2;" horiz-adv-x="560" 
d="M33 241q0 116 62.5 183.5t184.5 67.5t184.5 -67.5t62.5 -183.5t-62.5 -184.5t-184.5 -68.5t-184.5 68t-62.5 185zM182 241q0 -130 98 -130t98 130q0 129 -98 129t-98 -129zM298 540l-198 138l72 97l186 -149z" />
    <glyph glyph-name="oacute" unicode="&#xf3;" horiz-adv-x="560" 
d="M462 677l-198 -137l-61 85l186 149zM33 241q0 116 62.5 183.5t184.5 67.5t184.5 -67.5t62.5 -183.5t-62.5 -184.5t-184.5 -68.5t-184.5 68t-62.5 185zM182 241q0 -130 98 -130t98 130q0 129 -98 129t-98 -129z" />
    <glyph glyph-name="ocircumflex" unicode="&#xf4;" horiz-adv-x="560" 
d="M407 540l-127 99l-125 -99l-69 88l194 143l193 -143zM33 241q0 116 62.5 183.5t184.5 67.5t184.5 -67.5t62.5 -183.5t-62.5 -184.5t-184.5 -68.5t-184.5 68t-62.5 185zM182 241q0 -130 98 -130t98 130q0 129 -98 129t-98 -129z" />
    <glyph glyph-name="otilde" unicode="&#xf5;" horiz-adv-x="560" 
d="M460 701l18 -116q-52 -42 -107 -42q-26 0 -74 14t-76 14q-57 0 -118 -40l-18 118q64 41 123 41q29 0 77 -14t73 -14q53 0 102 39zM33 241q0 116 62.5 183.5t184.5 67.5t184.5 -67.5t62.5 -183.5t-62.5 -184.5t-184.5 -68.5t-184.5 68t-62.5 185zM182 241q0 -130 98 -130
t98 130q0 129 -98 129t-98 -129z" />
    <glyph glyph-name="odieresis" unicode="&#xf6;" horiz-adv-x="560" 
d="M244 543h-147v129h147v-129zM462 543h-148v129h148v-129zM33 241q0 116 62.5 183.5t184.5 67.5t184.5 -67.5t62.5 -183.5t-62.5 -184.5t-184.5 -68.5t-184.5 68t-62.5 185zM182 241q0 -130 98 -130t98 130q0 129 -98 129t-98 -129z" />
    <glyph glyph-name="divide" unicode="&#xf7;" horiz-adv-x="600" 
d="M373 39h-148v132h148v-132zM373 379h-148v132h148v-132zM542 216h-485v120h485v-120z" />
    <glyph glyph-name="oslash" unicode="&#xf8;" horiz-adv-x="569" 
d="M506 529l-49 -94q74 -68 74 -194q0 -116 -62.5 -184.5t-184.5 -68.5q-29 0 -59 5l-55 -103l-104 53l54 94q-83 67 -83 204q0 116 62.5 183.5t184.5 67.5q37 0 67 -6l50 96zM186 241q0 -47 12 -77l104 205q-6 1 -18 1q-98 0 -98 -129zM382 241q0 31 -7 61l-98 -191h7
q98 0 98 130z" />
    <glyph glyph-name="ugrave" unicode="&#xf9;" horiz-adv-x="574" 
d="M214 -12q-70 0 -114.5 41.5t-44.5 133.5v312l121 14h24v-303q0 -69 58 -69q47 0 110 39v319l120 14h25v-476l-116 -25h-18v59q-98 -59 -165 -59zM294 540l-198 138l72 97l186 -149z" />
    <glyph glyph-name="uacute" unicode="&#xfa;" horiz-adv-x="574" 
d="M475 677l-198 -137l-61 85l186 149zM214 -12q-70 0 -114.5 41.5t-44.5 133.5v312l121 14h24v-303q0 -69 58 -69q47 0 110 39v319l120 14h25v-476l-116 -25h-18v59q-98 -59 -165 -59z" />
    <glyph glyph-name="ucircumflex" unicode="&#xfb;" horiz-adv-x="574" 
d="M413 540l-127 99l-125 -99l-69 88l194 143l193 -143zM214 -12q-70 0 -114.5 41.5t-44.5 133.5v312l121 14h24v-303q0 -69 58 -69q47 0 110 39v319l120 14h25v-476l-116 -25h-18v59q-98 -59 -165 -59z" />
    <glyph glyph-name="udieresis" unicode="&#xfc;" horiz-adv-x="574" 
d="M250 544h-147v129h147v-129zM468 544h-148v129h148v-129zM214 -12q-70 0 -114.5 41.5t-44.5 133.5v312l121 14h24v-303q0 -69 58 -69q47 0 110 39v319l120 14h25v-476l-116 -25h-18v59q-98 -59 -165 -59z" />
    <glyph glyph-name="yacute" unicode="&#xfd;" horiz-adv-x="517" 
d="M388 677l-198 -137l-61 85l186 149zM150 -263l-80 87q44 34 70 60.5t43 60.5l23 47h-32l-166 487h156l89 -331h5l102 331h150l-170 -490q-62 -176 -190 -252z" />
    <glyph glyph-name="thorn" unicode="&#xfe;" horiz-adv-x="577" 
d="M64 -262v983l126 14h19v-289q69 46 139 46q86 0 140.5 -61.5t54.5 -179.5q0 -121 -65 -191t-174 -70q-43 0 -95 10v-239l-127 -23h-18zM209 327v-211q39 -7 74 -7q111 0 111 137q0 65 -22 92t-65 27q-47 0 -98 -38z" />
    <glyph glyph-name="ydieresis" unicode="&#xff;" horiz-adv-x="517" 
d="M224 542h-147v129h147v-129zM442 542h-148v129h148v-129zM150 -263l-80 87q44 34 70 60.5t43 60.5l23 47h-32l-166 487h156l89 -331h5l102 331h150l-170 -490q-62 -176 -190 -252z" />
    <glyph glyph-name="OE" unicode="&#x152;" horiz-adv-x="987" 
d="M369 682q58 0 106 -12h473l-14 -128h-305v-135h260v-127h-260v-151h303l13 -129h-470q-48 -12 -106 -12q-155 0 -243 93.5t-88 253.5t87.5 253.5t243.5 93.5zM197 335q0 -105 47 -162.5t125 -57.5q70 0 106 21v394q-43 25 -106 25q-77 0 -124.5 -57t-47.5 -163z" />
    <glyph glyph-name="oe" unicode="&#x153;" horiz-adv-x="859" 
d="M820 210h-291q1 -58 33 -78t98 -20q64 0 147 30v-124q-97 -30 -185 -30q-116 0 -175 55q-63 -55 -169 -55q-121 0 -183 68t-62 184q0 117 62 184.5t183 67.5q111 0 173 -59q64 59 162 59q109 0 160 -61t51 -149q0 -34 -4 -72zM278 369q-97 0 -97 -129q0 -130 97 -130
q98 0 98 130q0 65 -23.5 97t-74.5 32zM612 382q-72 0 -82 -82h147q0 82 -65 82z" />
    <glyph glyph-name="Ydieresis" unicode="&#x178;" horiz-adv-x="608" 
d="M268 735h-147v129h147v-129zM486 735h-148v129h148v-129zM382 0h-154v241l-226 429h176l128 -278l128 278h172l-224 -428v-242z" />
    <glyph glyph-name="tilde" unicode="&#x2dc;" horiz-adv-x="563" 
d="M465 701l18 -116q-52 -42 -107 -42q-26 0 -74 14t-76 14q-57 0 -118 -40l-18 118q64 41 123 41q29 0 77 -14t73 -14q53 0 102 39z" />
    <glyph glyph-name="endash" unicode="&#x2013;" horiz-adv-x="550" 
d="M500 196h-450v115h450v-115z" />
    <glyph glyph-name="emdash" unicode="&#x2014;" horiz-adv-x="767" 
d="M717 196h-667v115h667v-115z" />
    <glyph glyph-name="quoteleft" unicode="&#x2018;" horiz-adv-x="262" 
d="M216 538h-166q-7 34 -7 69q0 103 96 237l75 -44q-44 -71 -59 -113l61 -10v-139z" />
    <glyph glyph-name="quoteright" unicode="&#x2019;" horiz-adv-x="243" 
d="M117 414l-74 43q46 73 59 114q-57 9 -61 9v139h166q7 -34 7 -68q0 -109 -97 -237z" />
    <glyph glyph-name="quotedblleft" unicode="&#x201c;" horiz-adv-x="464" 
d="M216 538h-165q-8 32 -8 69q0 104 97 237q7 -4 33.5 -19.5t40.5 -24.5q-44 -71 -59 -113l61 -10v-139zM418 538h-166q-7 34 -7 69q0 103 96 237l75 -44q-44 -71 -59 -113l61 -10v-139z" />
    <glyph glyph-name="quotedblright" unicode="&#x201d;" horiz-adv-x="444" 
d="M118 414l-76 43q43 67 61 114q-6 1 -28.5 4.5t-32.5 4.5v139h165q7 -34 7 -68q0 -105 -96 -237zM320 414q-32 17 -75 43q44 68 60 114q-6 1 -28.5 4.5t-32.5 4.5v139h165q7 -34 7 -68q0 -105 -96 -237z" />
    <glyph glyph-name="quotedblbase" unicode="&#x201e;" horiz-adv-x="488" 
d="M135 -158q-10 5 -35 20t-40 23q45 69 60 114q-10 1 -31.5 4t-30.5 4v139h166q8 -32 8 -68q0 -105 -97 -236zM337 -158l-75 43q46 74 60 114q-11 1 -32 4t-29 4v139h165q8 -38 8 -68q0 -105 -97 -236z" />
    <glyph glyph-name="bullet" unicode="&#x2022;" horiz-adv-x="332" 
d="M270 218h-208v187h208v-187z" />
    <glyph glyph-name="ellipsis" unicode="&#x2026;" horiz-adv-x="765" 
d="M466 0h-167v148h167v-148zM707 0h-170v148h170v-148zM226 0h-170v148h170v-148z" />
    <glyph glyph-name="guilsinglleft" unicode="&#x2039;" horiz-adv-x="293" 
d="M259 86l-101 -60l-139 242l137 239l102 -59l-109 -181q11 -19 55.5 -91t54.5 -90z" />
    <glyph glyph-name="guilsinglright" unicode="&#x203a;" horiz-adv-x="292" 
d="M133 26l-100 60l110 181q-5 9 -50.5 84t-57.5 97l102 59l136 -239z" />
    <glyph glyph-name="Euro" unicode="&#x20ac;" horiz-adv-x="730" 
d="M558 195h-245q44 -78 149 -78q95 0 198 41l34 -125q-114 -44 -245 -44q-247 0 -306 206h-108l12 117h77v29v3h-70l12 117h75q33 106 122.5 162.5t218.5 56.5q88 0 193 -25l-21 -133q-104 29 -171 29q-131 0 -177 -90h283l-12 -117h-295v-3q0 -20 1 -29h287z" />
    <glyph glyph-name="trademark" unicode="&#x2122;" horiz-adv-x="791" 
d="M212 351h-97v238h-88v81h275l-6 -81h-84v-238zM733 351h-94v114l4 91h-5l-61 -206h-98l-60 202h-5l4 -87v-114h-93v319h137l48 -151l13 -75h7l14 74l49 152h140v-319z" />
    <glyph glyph-name="dotlessi" horiz-adv-x="271" 
d="M207 0h-145v475l119 14h26v-489z" />
    <glyph glyph-name="circumflex" horiz-adv-x="557" 
d="M406 540l-127 99l-125 -99l-69 88l194 143l193 -143z" />
    <glyph glyph-name="ring" horiz-adv-x="416" 
d="M335 654q0 -52 -36.5 -83.5t-90.5 -31.5q-55 0 -91 31.5t-36 83.5q0 50 36.5 82.5t90.5 32.5t90.5 -32.5t36.5 -82.5zM208 617q14 0 24 10t10 27q0 16 -10 26t-24 10q-15 0 -25 -10t-10 -26q0 -17 10 -27t25 -10z" />
    <glyph glyph-name="glyph209" horiz-adv-x="234" 
 />
    </font>
</defs>
</svg>
