<?xml version="1.0" standalone="no"?>
<!DOCTYPE svg PUBLIC "-//W3C//DTD SVG 1.1//EN" "http://www.w3.org/Graphics/SVG/1.1/DTD/svg11.dtd" >
<svg>
<metadata>
Created by FontForge 20120731 at Tue Jun 23 09:33:56 2015
 By ,,,
Copyright (c) 2009 by Mark Caneso /psType. All rights reserved.
</metadata>
<defs>
<font id="ab117ba552845141c39a5a065ade52558718aad284549d2d4c0d35bb6d348f2" horiz-adv-x="600" >
  <font-face 
    font-family="ab117ba552845141c39a5a065ade52558718aad284549d2d4c0d35bb6d348f2d"
    font-weight="400"
    font-stretch="normal"
    units-per-em="1000"
    panose-1="2 0 5 3 0 0 0 2 0 4"
    ascent="735"
    descent="-265"
    x-height="470"
    cap-height="670"
    bbox="-38 -265 911 905"
    underline-thickness="50"
    underline-position="-50"
    unicode-range="U+0020-2122"
  />
<missing-glyph horiz-adv-x="570" 
d="M490 0h-410v670h410v-670zM421 69v532h-272v-532h272z" />
    <glyph glyph-name=".notdef" horiz-adv-x="570" 
d="M490 0h-410v670h410v-670zM421 69v532h-272v-532h272z" />
    <glyph glyph-name=".null" horiz-adv-x="0" 
 />
    <glyph glyph-name="nonmarkingreturn" horiz-adv-x="333" 
 />
    <glyph glyph-name="space" unicode=" " horiz-adv-x="250" 
 />
    <glyph glyph-name="space" unicode="&#xa0;" horiz-adv-x="250" 
 />
    <glyph glyph-name="exclam" unicode="!" horiz-adv-x="243" 
d="M159 195l-74 20q-6 307 -11 457h99zM172 0h-101v108l101 -29v-79z" />
    <glyph glyph-name="quotedbl" unicode="&#x22;" horiz-adv-x="333" 
d="M272 467l-70 -14v204l70 14v-204zM134 467l-70 -14v204l70 14v-204z" />
    <glyph glyph-name="numbersign" unicode="#" horiz-adv-x="651" 
d="M480 0h-75v153h-162v-153h-75v153h-113v67h113v151h-113v66h113v154h75v-154h162v154h75v-154h116v-66h-116v-151h116v-67h-116v-153zM405 220v151h-162v-151h162z" />
    <glyph glyph-name="dollar" unicode="$" horiz-adv-x="467" 
d="M283 -81h-67v70q-88 0 -165 12l9 76q65 -16 138 -16q62 0 100.5 20t38.5 57q0 23 -20.5 41t-51 29.5t-66 29t-66 36.5t-51 53.5t-20.5 79.5q0 61 42.5 97.5t111.5 46.5v86h67v-81q60 -2 111 -17l-8 -76q-58 19 -127 19q-48 0 -81.5 -18t-33.5 -58q0 -30 28 -52.5
t68.5 -39.5t81 -36.5t68.5 -52t28 -77.5q0 -59 -37 -98t-98 -54v-77z" />
    <glyph glyph-name="percent" unicode="%" horiz-adv-x="689" 
d="M248 430q0 37 -19 58t-52 21t-52 -21t-19 -58q0 -36 19.5 -56.5t51.5 -20.5t51.5 20.5t19.5 56.5zM155 -28l-51 39l422 568l52 -36zM309 431q0 -56 -37.5 -90.5t-94.5 -34.5t-94.5 34.5t-37.5 90.5q0 55 38 90t94 35t94 -35t38 -90zM572 112q0 37 -19 58t-52 21t-52 -21
t-19 -58q0 -36 19.5 -56.5t51.5 -20.5t51.5 20.5t19.5 56.5zM633 113q0 -56 -37.5 -90.5t-94.5 -34.5t-94.5 34.5t-37.5 90.5q0 55 38 90t94 35t94 -35t38 -90z" />
    <glyph glyph-name="ampersand" unicode="&#x26;" horiz-adv-x="732" 
d="M717 59l-4 -71q-136 1 -276 69q-77 -68 -195 -68q-74 0 -133.5 47t-59.5 136q0 51 22.5 100t52.5 77q-36 77 -36 137q0 99 55 147.5t139 48.5q82 0 157 -28l-11 -154h-69l7 97q-37 13 -86 13q-45 0 -79.5 -28.5t-34.5 -90.5q0 -98 72.5 -190.5t182.5 -153.5q53 69 53 201
v43h153v-73h-84q0 -58 -18 -112t-44 -90q117 -57 236 -57zM367 95q-133 82 -208 195q-29 -41 -29 -108q0 -57 39 -88.5t90 -31.5q58 0 108 33z" />
    <glyph glyph-name="quotesingle" unicode="'" horiz-adv-x="195" 
d="M134 467l-70 -14v204l70 14v-204z" />
    <glyph glyph-name="parenleft" unicode="(" horiz-adv-x="317" 
d="M309 -186l-55 -42q-95 86 -153.5 225t-58.5 289t58.5 288t153.5 224l55 -42q-92 -90 -138.5 -215.5t-46.5 -255.5t46.5 -255.5t138.5 -215.5z" />
    <glyph glyph-name="parenright" unicode=")" horiz-adv-x="318" 
d="M64 -228l-55 42q92 90 138.5 215.5t46.5 255.5t-46.5 255.5t-138.5 215.5l55 42q95 -86 153.5 -224t58.5 -288t-58.5 -289t-153.5 -225z" />
    <glyph glyph-name="asterisk" unicode="*" horiz-adv-x="464" 
d="M361 436l-42 -31l-86 118l-86 -118l-42 31l83 114l-138 45l16 50l139 -45v147h53v-147l139 45l16 -50l-136 -44z" />
    <glyph glyph-name="plus" unicode="+" 
d="M334 30h-69v201h-200v69h200v200h69v-200h201v-69h-201v-201z" />
    <glyph glyph-name="comma" unicode="," horiz-adv-x="255" 
d="M114 -132l-44 26q35 57 52 102l-51 8v96h112q3 -21 3 -41q0 -94 -72 -191z" />
    <glyph glyph-name="hyphen" unicode="-" horiz-adv-x="439" 
d="M371 211h-303v73h303v-73z" />
    <glyph glyph-name="hyphen" unicode="&#xad;" horiz-adv-x="439" 
d="M371 211h-303v73h303v-73z" />
    <glyph glyph-name="period" unicode="." horiz-adv-x="254" 
d="M183 0h-112v100h112v-100z" />
    <glyph glyph-name="slash" unicode="/" horiz-adv-x="423" 
d="M127 -174h-76l245 925h79z" />
    <glyph glyph-name="zero" unicode="0" horiz-adv-x="640" 
d="M195 111q46 -49 125 -49t125 49t46 148t-46 148.5t-125 49.5t-125 -49.5t-46 -148.5t46 -148zM508 58q-68 -70 -188 -70t-188.5 70.5t-68.5 200.5t68.5 200.5t188.5 70.5t188.5 -70.5t68.5 -200.5t-69 -201z" />
    <glyph glyph-name="one" unicode="1" horiz-adv-x="395" 
d="M364 0h-318v71h130v374h-106v67h184v-441h110v-71z" />
    <glyph glyph-name="two" unicode="2" horiz-adv-x="540" 
d="M484 0h-404l-13 72q45 32 157 122q83 66 116 103.5t33 77.5q0 41 -35 61.5t-88 20.5q-75 0 -154 -34l-13 70q93 37 176 37q88 0 143.5 -39t55.5 -113q0 -57 -40 -105.5t-132 -120.5l-102 -80h300v-72z" />
    <glyph glyph-name="three" unicode="3" horiz-adv-x="476" 
d="M23 -149l13 73q79 -17 140 -17q158 0 158 127q0 110 -169 110q-33 0 -52 -1q0 2 0.5 35.5t0.5 35.5q25 3 52 3q38 0 78 -6q35 23 55.5 63.5t20.5 73.5q0 54 -34.5 81.5t-86.5 27.5q-77 0 -146 -25l-7 72q78 26 147 26q87 0 148.5 -46.5t61.5 -131.5q0 -87 -84 -167
q42 -17 71 -54t29 -93q0 -94 -66.5 -149t-177.5 -55q-75 0 -152 17z" />
    <glyph glyph-name="four" unicode="4" horiz-adv-x="616" 
d="M462 -153l-64 -4h-14v166h-330q0 14 -0.5 40t-0.5 39l187 440h88l-190 -448h246v134l9 103h69v-236h107v-72h-107v-162z" />
    <glyph glyph-name="five" unicode="5" horiz-adv-x="513" 
d="M38 -142l13 74q84 -25 161 -25q78 0 121 32.5t43 113.5q0 137 -158 137h-133v322h361l-4 -72h-279v-178h66q233 0 233 -201q0 -111 -70 -169t-174 -58q-93 0 -180 24z" />
    <glyph glyph-name="six" unicode="6" horiz-adv-x="561" 
d="M469 674l-6 -74q-42 8 -85 8q-106 0 -164.5 -65t-68.5 -175q86 38 165 38q90 0 147.5 -48.5t57.5 -152.5q0 -87 -59.5 -152t-162.5 -65q-112 0 -174.5 87t-62.5 240q0 159 84.5 263t230.5 104q58 0 98 -8zM142 301q0 -117 45 -179t116 -62q61 0 94 41.5t33 100.5
q0 132 -136 132q-76 0 -152 -33z" />
    <glyph glyph-name="seven" unicode="7" horiz-adv-x="486" 
d="M177 -154h-83l276 594h-334l-4 72h424v-57z" />
    <glyph glyph-name="eight" unicode="8" horiz-adv-x="558" 
d="M401 336q97 -48 97 -157q0 -81 -65 -136t-154 -55q-95 0 -157 48t-62 132q0 97 97 178q-87 52 -87 147q0 87 59.5 138t153.5 51q93 0 149 -48t56 -128q0 -85 -87 -170zM214 323q-30 -26 -49 -64.5t-19 -76.5q0 -52 36 -87t97 -35q60 0 96.5 34t36.5 83q0 47 -29 74.5
t-88 46.5q-57 19 -81 25zM269 382l69 -25q66 68 66 143q0 52 -35.5 81t-94.5 29q-53 0 -86.5 -27.5t-33.5 -79.5q0 -46 30.5 -74t84.5 -47z" />
    <glyph glyph-name="nine" unicode="9" horiz-adv-x="556" 
d="M87 -158l6 74q42 -8 85 -8q106 0 164.5 65t68.5 175q-86 -38 -165 -38q-90 0 -147.5 48.5t-57.5 152.5q0 87 59.5 152t162.5 65q112 0 174.5 -87t62.5 -240q0 -159 -84.5 -263t-230.5 -104q-58 0 -98 8zM414 215q0 117 -44.5 178.5t-116.5 61.5q-61 0 -94 -41t-33 -100
q0 -132 136 -132q76 0 152 33z" />
    <glyph glyph-name="colon" unicode=":" horiz-adv-x="294" 
d="M203 0h-112v100h112v-100zM203 346h-112v100h112v-100z" />
    <glyph glyph-name="semicolon" unicode=";" horiz-adv-x="294" 
d="M203 346h-112v100h112v-100zM134 -132l-44 26q35 57 52 102l-51 8v96h112q3 -21 3 -41q0 -94 -72 -191z" />
    <glyph glyph-name="less" unicode="&#x3c;" 
d="M511 0l-440 198v118l440 199v-85l-394 -173l394 -173v-84z" />
    <glyph glyph-name="equal" unicode="=" 
d="M535 149h-470v69h470v-69zM535 313h-470v69h470v-69z" />
    <glyph glyph-name="greater" unicode="&#x3e;" 
d="M528 198l-440 -198v84l394 173l-394 173v85l440 -199v-118z" />
    <glyph glyph-name="question" unicode="?" horiz-adv-x="437" 
d="M200 170l-79 22q-10 37 -10 61q0 84 96 143q38 23 55.5 37t31.5 38t14 55q0 81 -111 81q-60 0 -136 -23l-9 74q77 24 155 24q91 0 136 -44t45 -109q0 -56 -26.5 -98.5t-107.5 -91.5q-38 -23 -52.5 -42t-14.5 -47q0 -25 13 -80zM215 0h-101v104l101 -25v-79z" />
    <glyph glyph-name="at" unicode="@" horiz-adv-x="805" 
d="M539 -99l10 -61q-52 -18 -129 -18q-172 0 -272.5 99.5t-100.5 289.5q0 99 32 182t85 136.5t121 83t141 29.5q158 0 241.5 -84t83.5 -218q0 -83 -22 -148.5t-71 -107t-120 -41.5q-81 0 -82 65l-3 1q-63 -55 -120 -55q-40 0 -72 35t-32 101q0 115 54 176t143 61
q57 0 124 -26l-38 -302h45q50 0 87.5 60.5t37.5 171.5q0 123 -69 184.5t-188 61.5q-97 0 -169 -53.5t-106 -135.5t-34 -177q0 -156 81 -242t237 -86q44 0 105 18zM459 178l23 180q-31 10 -59 10q-62 0 -93.5 -49t-31.5 -124q0 -81 46 -81q50 0 115 64z" />
    <glyph glyph-name="A" unicode="A" horiz-adv-x="604" 
d="M591 0h-94l-41 125h-308l-41 -125h-94l231 670h116zM432 197l-130 404l-130 -404h260z" />
    <glyph glyph-name="B" unicode="B" horiz-adv-x="593" 
d="M295 0h-204v670h183q232 0 232 -171q0 -72 -72 -146q46 -16 78 -55t32 -97q0 -96 -70.5 -148.5t-178.5 -52.5zM178 74h117q157 0 157 128q0 46 -33 75t-80 29h-161v-232zM178 377h180q56 53 56 120q0 50 -38 75t-103 25h-95v-220z" />
    <glyph glyph-name="B" unicode="&#xe000;" horiz-adv-x="593" 
d="M295 0h-204v670h183q232 0 232 -171q0 -72 -72 -146q46 -16 78 -55t32 -97q0 -96 -70.5 -148.5t-178.5 -52.5zM178 74h117q157 0 157 128q0 46 -33 75t-80 29h-161v-232zM178 377h180q56 53 56 120q0 50 -38 75t-103 25h-95v-220z" />
    <glyph glyph-name="C" unicode="C" horiz-adv-x="614" 
d="M549 97l22 -73q-96 -36 -210 -36q-161 0 -235 94t-74 259q0 155 91.5 248t239.5 93q76 0 172 -28l-12 -201l-77 3l5 142q-53 11 -96 11q-99 0 -165 -67.5t-66 -200.5q0 -148 62.5 -213.5t168.5 -65.5q78 0 174 35z" />
    <glyph glyph-name="D" unicode="D" horiz-adv-x="695" 
d="M310 0h-219v670h219q155 0 243.5 -81.5t88.5 -253.5q0 -173 -89 -254t-243 -81zM178 74h131q241 0 241 261q0 262 -241 262h-131v-523z" />
    <glyph glyph-name="E" unicode="E" horiz-adv-x="547" 
d="M502 0h-411v670h414l-9 -73h-318v-216h268v-73h-268v-234h315z" />
    <glyph glyph-name="E" unicode="&#xe001;" horiz-adv-x="547" 
d="M502 0h-411v670h414l-9 -73h-318v-216h268v-73h-268v-234h315z" />
    <glyph glyph-name="F" unicode="F" horiz-adv-x="520" 
d="M178 0h-87v670h403l-10 -73h-306v-216h269v-73h-269v-308z" />
    <glyph glyph-name="G" unicode="G" horiz-adv-x="677" 
d="M537 95v175l72 11h15v-239q-140 -54 -254 -54q-162 0 -241 95.5t-79 257.5q0 156 95 248.5t258 92.5q105 0 179 -31l-14 -80q-82 38 -179 38q-105 0 -176 -68t-71 -200q0 -141 64 -210t173 -69q89 0 158 33z" />
    <glyph glyph-name="H" unicode="H" horiz-adv-x="725" 
d="M634 0h-87v302h-369v-302h-87v670h87v-292h369v292h87v-670z" />
    <glyph glyph-name="I" unicode="I" horiz-adv-x="397" 
d="M354 0h-310v70h110v530h-110v70h310v-70h-113v-530h113v-70z" />
    <glyph glyph-name="J" unicode="J" horiz-adv-x="311" 
d="M47 -196l-39 64q71 41 98 82.5t27 110.5v539h-110v70h197v-583q0 -85 -21 -138t-79 -99q-35 -27 -73 -46z" />
    <glyph glyph-name="K" unicode="K" horiz-adv-x="575" 
d="M574 0h-121l-275 319v-319h-87v670h87v-335l248 335h110l-258 -331z" />
    <glyph glyph-name="L" unicode="L" horiz-adv-x="465" 
d="M458 0h-367v670h87v-596h273z" />
    <glyph glyph-name="M" unicode="M" horiz-adv-x="884" 
d="M488 0h-90l-186 469l-30 114h-6v-583h-85v670h137l217 -570l217 570h131v-670h-87v583h-6l-29 -114z" />
    <glyph glyph-name="N" unicode="N" horiz-adv-x="738" 
d="M647 0h-124l-281 457l-57 127h-7v-584h-87v670h122l279 -457l61 -134h7v591h87v-670z" />
    <glyph glyph-name="O" unicode="O" horiz-adv-x="722" 
d="M361 -12q-142 0 -226 93.5t-84 253.5q0 162 83.5 254.5t226.5 92.5q144 0 227 -92.5t83 -254.5q0 -161 -83.5 -254t-226.5 -93zM579 335q0 133 -61.5 203.5t-156.5 70.5t-156.5 -70.5t-61.5 -203.5q0 -132 61 -202.5t157 -70.5t157 70.5t61 202.5z" />
    <glyph glyph-name="P" unicode="P" horiz-adv-x="533" 
d="M178 0h-87v670h177q107 0 170 -52t63 -155t-63.5 -158.5t-169.5 -55.5h-90v-249zM178 322h91q70 0 105 37t35 104q0 134 -140 134h-91v-275z" />
    <glyph glyph-name="Q" unicode="Q" horiz-adv-x="722" 
d="M635 -175l-386 57l10 73l386 -54zM361 -12q-142 0 -226 93.5t-84 253.5q0 162 83.5 254.5t226.5 92.5q144 0 227 -92.5t83 -254.5q0 -161 -83.5 -254t-226.5 -93zM579 335q0 133 -61.5 203.5t-156.5 70.5t-156.5 -70.5t-61.5 -203.5q0 -132 61 -202.5t157 -70.5t157 70.5
t61 202.5z" />
    <glyph glyph-name="R" unicode="R" 
d="M586 0h-106l-166 267h-136v-267h-87v670h201q106 0 165.5 -50.5t59.5 -139.5q0 -110 -116 -192zM178 341h170q77 52 77 136q0 49 -33 84.5t-95 35.5h-119v-256z" />
    <glyph glyph-name="S" unicode="S" horiz-adv-x="523" 
d="M50 7l8 78q83 -23 159 -23q80 0 126 30t46 88q0 38 -34 64.5t-83 44t-98 39t-83 63.5t-34 103q0 91 69.5 139.5t175.5 48.5q82 0 146 -19l-8 -80q-73 26 -148 26q-61 0 -102.5 -27t-41.5 -83q0 -39 34 -66.5t83 -46.5t98 -40.5t83 -60t34 -93.5q0 -106 -74 -155t-189 -49
q-91 0 -167 19z" />
    <glyph glyph-name="S" unicode="&#xe002;" horiz-adv-x="523" 
d="M50 7l8 78q83 -23 159 -23q80 0 126 30t46 88q0 38 -34 64.5t-83 44t-98 39t-83 63.5t-34 103q0 91 69.5 139.5t175.5 48.5q82 0 146 -19l-8 -80q-73 26 -148 26q-61 0 -102.5 -27t-41.5 -83q0 -39 34 -66.5t83 -46.5t98 -40.5t83 -60t34 -93.5q0 -106 -74 -155t-189 -49
q-91 0 -167 19z" />
    <glyph glyph-name="T" unicode="T" horiz-adv-x="518" 
d="M303 0h-87v597h-203v73h499l-10 -73h-199v-597z" />
    <glyph glyph-name="U" unicode="U" horiz-adv-x="682" 
d="M512 221v449h87v-444q0 -111 -72.5 -174.5t-184.5 -63.5q-114 0 -186 63t-72 175v444h87v-449q0 -76 50 -117.5t121 -41.5t120.5 41.5t49.5 117.5z" />
    <glyph glyph-name="V" unicode="V" 
d="M358 -8h-116l-231 678h94l195 -609l195 609h94z" />
    <glyph glyph-name="W" unicode="W" horiz-adv-x="947" 
d="M756 -6h-128l-136 500l-14 90h-4l-18 -90l-144 -500h-123l-152 676h92l111 -508l13 -92h7l20 92l141 508h114l136 -508l17 -92h7l13 92l111 508h92z" />
    <glyph glyph-name="X" unicode="X" horiz-adv-x="590" 
d="M568 0h-104l-169 273l-169 -273h-104l222 339l-220 331h108l163 -262l163 262h108l-220 -331z" />
    <glyph glyph-name="Y" unicode="Y" horiz-adv-x="539" 
d="M314 0h-87v240l-217 430h100l162 -343l160 343h97l-215 -430v-240z" />
    <glyph glyph-name="Z" unicode="Z" horiz-adv-x="572" 
d="M529 0h-480l-11 85l393 512h-372v73h457l4 -84l-390 -512h393z" />
    <glyph glyph-name="bracketleft" unicode="[" horiz-adv-x="285" 
d="M261 -239h-179v983h169v-63h-99v-857h109v-63z" />
    <glyph glyph-name="backslash" unicode="\" horiz-adv-x="419" 
d="M371 -221h-76l-243 899h79z" />
    <glyph glyph-name="bracketright" unicode="]" horiz-adv-x="285" 
d="M203 -239h-179v63h109v857h-99v63h169v-983z" />
    <glyph glyph-name="asciicircum" unicode="^" horiz-adv-x="522" 
d="M457 332h-79l-115 270h-2l-118 -270h-78l157 339h81z" />
    <glyph glyph-name="underscore" unicode="_" horiz-adv-x="423" 
d="M406 -136h-389v69h389v-69z" />
    <glyph glyph-name="grave" unicode="`" horiz-adv-x="520" 
d="M278 539l-159 113l43 56l151 -119z" />
    <glyph glyph-name="a" unicode="a" horiz-adv-x="475" 
d="M326 117v102l-129 -19q-72 -11 -72 -73q0 -29 18.5 -47.5t49.5 -18.5q55 0 133 56zM406 310v-307l-65 -13h-11v66h-2q-85 -65 -162 -65q-50 0 -87.5 34.5t-37.5 95.5q0 33 12 58.5t27.5 39t41 23t40.5 13t39 6.5l125 17v32q0 57 -26 79.5t-81 22.5q-73 0 -144 -32l-9 74
q78 30 168 30q172 0 172 -174z" />
    <glyph glyph-name="b" unicode="b" horiz-adv-x="550" 
d="M154 348v-281q65 -7 87 -7q86 0 132.5 50t46.5 138q0 84 -28.5 124t-88.5 40q-76 0 -149 -64zM74 5v709l70 15h10v-306q82 61 167 61q82 0 132.5 -56t50.5 -168q0 -123 -69.5 -197.5t-199.5 -74.5q-65 0 -161 17z" />
    <glyph glyph-name="b" unicode="&#xe003;" horiz-adv-x="550" 
d="M154 348v-281q65 -7 87 -7q86 0 132.5 50t46.5 138q0 84 -28.5 124t-88.5 40q-76 0 -149 -64zM74 5v709l70 15h10v-306q82 61 167 61q82 0 132.5 -56t50.5 -168q0 -123 -69.5 -197.5t-199.5 -74.5q-65 0 -161 17z" />
    <glyph glyph-name="c" unicode="c" horiz-adv-x="472" 
d="M431 87v-72q-77 -27 -149 -27q-121 0 -179.5 66.5t-58.5 177.5q0 117 66.5 184.5t185.5 67.5q62 0 128 -22l-6 -77q-67 27 -130 27q-71 0 -115.5 -41t-44.5 -130q0 -181 165 -181q68 0 138 27z" />
    <glyph glyph-name="d" unicode="d" horiz-adv-x="550" 
d="M476 729v-726l-70 -15h-10v61q-41 -31 -76.5 -46t-82.5 -15q-83 0 -137 56.5t-54 167.5q0 121 65 196.5t192 75.5q36 0 93 -12v242l70 15h10zM396 124v268q-44 20 -97 20q-81 0 -125 -49t-44 -139q0 -164 125 -164q68 0 141 64z" />
    <glyph glyph-name="e" unicode="e" horiz-adv-x="504" 
d="M453 214h-323q4 -85 47.5 -119t116.5 -34t148 35v-74q-76 -34 -176 -34q-98 0 -159.5 62t-61.5 192q0 99 59 170.5t160 71.5q97 0 145 -59.5t48 -142.5q0 -30 -4 -68zM261 412q-52 0 -87 -35.5t-42 -94.5h237v13q0 51 -27.5 84t-80.5 33z" />
    <glyph glyph-name="f" unicode="f" horiz-adv-x="363" 
d="M103 470v61v8q0 29 6 54t16.5 44.5t25.5 36t32 27.5t36.5 19t39.5 11.5t41 3.5q58 0 106 -13l-8 -73q-43 14 -98 14q-48 0 -83 -30.5t-35 -93.5v-69h161v-70h-160v-400h-80v400h-72v55z" />
    <glyph glyph-name="g" unicode="g" horiz-adv-x="535" 
d="M250 122q-36 0 -63 7q-26 -43 -26 -70q0 -22 49 -22q6 0 14 0.5t16.5 1l17 1t18 1t18.5 1t19 1t19 0.5q35 0 61.5 -5t51.5 -17.5t38.5 -39t13.5 -65.5q0 -77 -63 -129t-194 -52q-193 0 -193 114q0 34 19 69.5t45 57.5q-24 15 -24 57q0 56 45 118q-76 46 -76 152
q0 74 55 127.5t139 53.5q47 0 89 -14h181v-61h-109q14 -21 23 -52.5t9 -53.5q0 -84 -56 -132.5t-137 -48.5zM171 389q-32 -30 -32 -86t32 -86t79 -30t78.5 30t31.5 86t-31.5 86t-78.5 30t-79 -30zM414 -93q0 34 -28 44.5t-93 10.5q-15 0 -53.5 -0.5t-61.5 -0.5h-15
q-35 -38 -35 -91q0 -65 123 -65q71 0 117 28.5t46 73.5z" />
    <glyph glyph-name="h" unicode="h" horiz-adv-x="556" 
d="M485 0h-80v316q0 96 -79 96q-68 0 -171 -60v-352h-80v714l70 15h10v-310q58 35 97.5 50t82.5 15q67 0 108.5 -39t41.5 -123v-322z" />
    <glyph glyph-name="i" unicode="i" horiz-adv-x="229" 
d="M164 609l-101 -24v110h101v-86zM154 0h-80v469l70 15h10v-484z" />
    <glyph glyph-name="j" unicode="j" horiz-adv-x="229" 
d="M154 3q0 -86 -27.5 -148t-113.5 -112l-33 58q52 39 73 83.5t21 108.5v476l70 15h10v-481zM164 609l-101 -24v110h101v-86z" />
    <glyph glyph-name="k" unicode="k" horiz-adv-x="492" 
d="M155 729v-477l13 13l181 205h107l-199 -218l225 -252h-110l-204 233l-13 13v-246h-80v714l70 15h10z" />
    <glyph glyph-name="l" unicode="l" horiz-adv-x="231" 
d="M75 714l68 15h13v-729h-81v714z" />
    <glyph glyph-name="m" unicode="m" horiz-adv-x="845" 
d="M629 484q71 0 108 -44.5t37 -104.5v-335h-80v309q0 57 -19.5 80t-55.5 23q-67 0 -155 -60v-352h-80v309q0 57 -19.5 80t-55.5 23q-67 0 -155 -60v-352h-80v469l61 15h11l7 -65q98 65 166 65q99 0 129 -75l15 9q100 66 166 66z" />
    <glyph glyph-name="n" unicode="n" horiz-adv-x="555" 
d="M484 0h-80v316q0 96 -79 96q-68 0 -171 -60v-352h-80v469l60 15h11l8 -65q59 35 98.5 50t82.5 15q67 0 108.5 -39t41.5 -123v-322z" />
    <glyph glyph-name="o" unicode="o" horiz-adv-x="548" 
d="M444 56q-58 -68 -170 -68t-170.5 68.5t-58.5 179.5t58.5 179.5t170.5 68.5t170.5 -68.5t58.5 -179.5t-59 -180zM380 367q-38 45 -106 45t-106.5 -44.5t-38.5 -131.5t38.5 -131.5t106.5 -44.5t106.5 44.5t38.5 131.5t-39 131z" />
    <glyph glyph-name="p" unicode="p" horiz-adv-x="550" 
d="M74 -262v731l70 15h10v-61q82 61 167 61q81 0 132 -58.5t51 -170.5q0 -120 -63 -193.5t-184 -73.5q-46 0 -103 12v-247l-70 -15h-10zM154 348v-278q62 -10 106 -10q75 0 117.5 47t42.5 136q0 169 -117 169q-76 0 -149 -64z" />
    <glyph glyph-name="q" unicode="q" horiz-adv-x="550" 
d="M396 124v281q-65 7 -87 7q-86 0 -132.5 -50.5t-46.5 -138.5q0 -84 28.5 -123.5t88.5 -39.5q76 0 149 64zM476 467v-714l-70 -15h-10v311q-82 -61 -167 -61q-82 0 -132.5 55.5t-50.5 167.5q0 123 69.5 198t199.5 75q65 0 161 -17z" />
    <glyph glyph-name="r" unicode="r" horiz-adv-x="349" 
d="M154 0h-80v469l62 15h10l5 -98h3q45 88 143 88q15 0 35 -2v-16l-4 -63q-10 1 -25 1q-51 0 -86 -22t-63 -77v-295z" />
    <glyph glyph-name="s" unicode="s" horiz-adv-x="421" 
d="M50 3v74h8q80 -17 130 -17q107 0 107 68q0 27 -25 44.5t-60.5 29.5t-71.5 27t-61 45t-25 75q0 64 52 99.5t133 35.5q63 0 120 -18v-74h-8q-61 20 -113 20q-100 0 -100 -63q0 -25 25 -42t60.5 -28.5t71.5 -26t61 -44t25 -72.5q0 -79 -54 -113.5t-140 -34.5q-69 0 -135 15z
" />
    <glyph glyph-name="s" unicode="&#xe004;" horiz-adv-x="421" 
d="M50 3v74h8q80 -17 130 -17q107 0 107 68q0 27 -25 44.5t-60.5 29.5t-71.5 27t-61 45t-25 75q0 64 52 99.5t133 35.5q63 0 120 -18v-74h-8q-61 20 -113 20q-100 0 -100 -63q0 -25 25 -42t60.5 -28.5t71.5 -26t61 -44t25 -72.5q0 -79 -54 -113.5t-140 -34.5q-69 0 -135 15z
" />
    <glyph glyph-name="t" unicode="t" horiz-adv-x="355" 
d="M314 74l7 -68q-50 -18 -100 -18q-126 0 -126 124v288h-62v57l62 13v112l71 15h8v-127h154v-70h-154v-286q0 -55 63 -55q30 0 77 15z" />
    <glyph glyph-name="u" unicode="u" horiz-adv-x="552" 
d="M218 -12q-67 0 -108.5 39t-41.5 123v319l70 15h10v-328q0 -96 79 -96q68 0 171 60v349l70 15h10v-481l-68 -15h-11v65q-59 -35 -98.5 -50t-82.5 -15z" />
    <glyph glyph-name="v" unicode="v" horiz-adv-x="479" 
d="M294 -10h-109l-170 480h89l134 -404h4l136 404h86z" />
    <glyph glyph-name="w" unicode="w" horiz-adv-x="777" 
d="M623 -9h-111l-113 334q-8 28 -12 65h-3q-7 -37 -16 -66l-109 -333h-106l-122 479h86l96 -398l126 398h97l133 -397l97 397h80z" />
    <glyph glyph-name="x" unicode="x" horiz-adv-x="498" 
d="M476 0h-98l-129 178l-128 -178h-98l178 239l-173 231h98l124 -175l123 175h98l-173 -231z" />
    <glyph glyph-name="y" unicode="y" horiz-adv-x="467" 
d="M92 -262l-45 58q63 45 89.5 79.5t52.5 98.5l7 19h-14l-166 477h92l118 -378h7l129 378h91l-181 -500q-30 -87 -71.5 -138.5t-108.5 -93.5z" />
    <glyph glyph-name="y" unicode="&#xe006;" horiz-adv-x="467" 
d="M92 -262l-45 58q63 45 89.5 79.5t52.5 98.5l7 19h-14l-166 477h92l118 -378h7l129 378h91l-181 -500q-30 -87 -71.5 -138.5t-108.5 -93.5z" />
    <glyph glyph-name="z" unicode="z" horiz-adv-x="482" 
d="M436 0h-387l-8 77l297 323h-281v70h368l9 -80l-299 -320h297z" />
    <glyph glyph-name="braceleft" unicode="{" horiz-adv-x="334" 
d="M341 -169l8 -69q-54 -6 -80 -6q-160 0 -160 150q0 30 12 103.5t12 108.5q0 100 -79 100h-33v72h33q79 0 79 100q0 35 -12 108.5t-12 103.5q0 150 160 150q26 0 80 -6l-8 -69q-37 8 -76 8q-86 0 -86 -84q0 -35 11 -107.5t11 -112.5q0 -51 -14 -77t-46 -48v-4
q32 -22 46 -48t14 -77q0 -40 -11 -112.5t-11 -107.5q0 -84 86 -84q39 0 76 8z" />
    <glyph glyph-name="bar" unicode="|" horiz-adv-x="231" 
d="M149 -220h-67v987h67v-987z" />
    <glyph glyph-name="braceright" unicode="}" horiz-adv-x="334" 
d="M-15 -238l8 69q37 -8 76 -8q86 0 86 84q0 35 -11 107.5t-11 112.5q0 51 14 77t46 48v4q-32 22 -46 48t-14 77q0 40 11 112.5t11 107.5q0 84 -86 84q-39 0 -76 -8l-8 69q54 6 80 6q160 0 160 -150q0 -30 -12 -103.5t-12 -108.5q0 -100 79 -100h33v-72h-33q-79 0 -79 -100
q0 -35 12 -108.5t12 -103.5q0 -150 -160 -150q-26 0 -80 6z" />
    <glyph glyph-name="asciitilde" unicode="~" horiz-adv-x="610" 
d="M526 297l12 -65q-53 -25 -108 -25q-43 0 -122 19t-118 19q-59 0 -109 -29l-9 69q63 32 132 32q45 0 124 -18.5t116 -18.5q45 0 82 17z" />
    <glyph glyph-name="exclamdown" unicode="&#xa1;" horiz-adv-x="232" 
d="M164 -173h-99q13 460 14 477l74 -20q6 -307 11 -457zM164 391l-101 29v79h101v-108z" />
    <glyph glyph-name="cent" unicode="&#xa2;" horiz-adv-x="489" 
d="M433 87v-72q-52 -19 -113 -25v-1v-107h-62v107q-108 8 -160 73.5t-52 169.5q0 106 55.5 172t156.5 77v111h62v-109q45 -2 106 -21l-6 -77q-67 27 -130 27q-71 0 -115.5 -41t-44.5 -130q0 -181 165 -181q68 0 138 27z" />
    <glyph glyph-name="sterling" unicode="&#xa3;" horiz-adv-x="527" 
d="M475 0h-426l12 61q25 0 39.5 3.5t31 17t24 45.5t7.5 83v79h-89v61h89v71q0 226 233 256l12 -71q-86 -9 -126.5 -49t-40.5 -139v-68h171v-61h-171v-82q0 -102 -47 -146h281v-61z" />
    <glyph glyph-name="currency" unicode="&#xa4;" horiz-adv-x="512" 
d="M407 49l-74 72q-35 -19 -76 -19q-44 0 -79 20l-73 -73l-51 52l72 72q-22 35 -22 79q0 41 21 77l-71 72l52 52l72 -72q37 21 79 21q43 0 78 -20l71 71l52 -52l-71 -70q23 -38 23 -79q0 -42 -23 -80l71 -71zM200 191q22 -24 57 -24t56.5 24.5t21.5 60.5t-21.5 60.5
t-56.5 24.5t-56.5 -24.5t-21.5 -60.5t21 -61z" />
    <glyph glyph-name="yen" unicode="&#xa5;" horiz-adv-x="617" 
d="M353 0h-87v122h-160v61h160v57l-6 12h-154v61h123l-180 357h100l162 -343l160 343h97l-179 -357h121v-61h-151l-6 -12v-57h157v-61h-157v-122z" />
    <glyph glyph-name="brokenbar" unicode="&#xa6;" horiz-adv-x="235" 
d="M151 363h-67v404h67v-404zM151 -220h-67v406h67v-406z" />
    <glyph glyph-name="section" unicode="&#xa7;" horiz-adv-x="466" 
d="M47 -160l7 71q76 -19 139 -19q55 0 89.5 23t34.5 67q0 34 -26 52.5t-92 44.5q-29 11 -50.5 22.5t-47 30.5t-39 46t-13.5 61q0 76 70 117q-56 48 -56 115q0 69 56 109.5t142 40.5q70 0 127 -18l-8 -70q-66 19 -120 19q-49 0 -82 -18.5t-33 -60.5q0 -16 7.5 -29.5t16 -22.5
t28 -19t30 -14.5t35.5 -14.5q33 -13 54.5 -24t46 -29t37 -42.5t12.5 -55.5q0 -39 -16.5 -67.5t-50.5 -60.5q53 -39 53 -102q0 -83 -61 -126t-153 -43q-67 0 -137 17zM244 144l43 -17q44 35 44 85q0 32 -27.5 53t-82.5 42l-41 16q-49 -29 -49 -77q0 -35 26.5 -56.5
t86.5 -45.5z" />
    <glyph glyph-name="dieresis" unicode="&#xa8;" horiz-adv-x="474" 
d="M373 584h-97v88h97v-88zM199 584h-97v88h97v-88z" />
    <glyph glyph-name="copyright" unicode="&#xa9;" horiz-adv-x="796" 
d="M524 206l9 -48q-58 -20 -125 -20q-184 0 -184 201q0 89 53.5 143t143.5 54q43 0 103 -18l-5 -116l-47 4l2 75q-30 5 -57 5q-58 0 -95.5 -36t-37.5 -111q0 -154 133 -154q50 0 107 21zM197 130q83 -85 201 -85t200.5 85t82.5 204t-82.5 204t-200.5 85t-200.5 -85
t-82.5 -204t82 -204zM644 579q102 -101 102 -245t-102 -245t-246 -101t-246 101t-102 245t102 245t246 101t246 -101z" />
    <glyph glyph-name="ordfeminine" unicode="&#xaa;" horiz-adv-x="347" 
d="M226 436v71l-50 -6q-40 -6 -54 -16t-14 -34q0 -19 11 -31t30 -12q34 0 77 28zM283 372l-48 -6h-6v30h-3q-51 -35 -91 -35q-37 0 -61 24.5t-24 61.5q0 26 9 43.5t27 27t33.5 13.5t40.5 7l66 7v36q0 46 -66 46q-39 0 -88 -16l-4 50q52 16 96 16q66 0 92.5 -25t26.5 -77
v-203z" />
    <glyph glyph-name="guillemotleft" unicode="&#xab;" horiz-adv-x="416" 
d="M365 89l-53 -29l-120 207l120 207l52 -29l-105 -177zM210 89l-53 -29l-120 207l120 207l52 -29l-105 -177z" />
    <glyph glyph-name="logicalnot" unicode="&#xac;" horiz-adv-x="598" 
d="M529 80h-69v151h-401v69h470v-220z" />
    <glyph glyph-name="registered" unicode="&#xae;" horiz-adv-x="796" 
d="M197 130q83 -85 201 -85t200.5 85t82.5 204t-82.5 204t-200.5 85t-200.5 -85t-82.5 -204t82 -204zM644 579q102 -101 102 -245t-102 -245t-246 -101t-246 101t-102 245t102 245t246 101t246 -101zM566 154h-67l-91 144h-70v-144h-58v376h123q58 0 91.5 -29t33.5 -78
q0 -66 -66 -107zM338 346h86q44 28 44 76q0 26 -19 43.5t-54 17.5h-57v-137z" />
    <glyph glyph-name="macron" unicode="&#xaf;" horiz-adv-x="429" 
d="M361 567h-293v63h293v-63z" />
    <glyph glyph-name="degree" unicode="&#xb0;" horiz-adv-x="305" 
d="M110 529q17 -15 42 -15t42 15.5t17 45.5t-17 46t-42 16t-41.5 -16t-16.5 -46t16 -46zM259 575q0 -47 -31 -75.5t-76 -28.5q-44 0 -75 28.5t-31 75.5q0 46 31 75.5t75 29.5q45 0 76 -29.5t31 -75.5z" />
    <glyph glyph-name="plusminus" unicode="&#xb1;" 
d="M535 281h-201v-172h-69v172h-200v68h200v201h69v-201h201v-68zM535 0h-470v69h470v-69z" />
    <glyph glyph-name="twosuperior" unicode="&#xb2;" horiz-adv-x="426" 
d="M369 292h-303l-8 61l123 97q46 38 71 71.5t25 76.5q0 31 -20.5 52t-63.5 21q-53 0 -119 -30l-11 62q69 27 131 27q70 0 112.5 -33t42.5 -98q0 -55 -30.5 -97t-87.5 -88q-31 -25 -82 -62h220v-60z" />
    <glyph glyph-name="threesuperior" unicode="&#xb3;" horiz-adv-x="396" 
d="M55 292l7 59q78 -15 115 -15q96 0 96 73q0 70 -100 70q-24 0 -48 -3v58q21 3 44 3q37 0 62 -6q33 36 33 71q0 29 -20.5 50t-63.5 21q-52 0 -105 -22l-9 59q61 21 124 21q64 0 104 -32t40 -84q0 -55 -50 -105q27 -14 44 -39.5t17 -56.5q0 -66 -45.5 -101t-124.5 -35
q-52 0 -120 14z" />
    <glyph glyph-name="acute" unicode="&#xb4;" horiz-adv-x="520" 
d="M376 651l-159 -113l-35 50l151 119z" />
    <glyph glyph-name="paragraph" unicode="&#xb6;" horiz-adv-x="632" 
d="M411 -257l-33 58q52 39 73 83.5t21 108.5v603h-68v-596h-88v249h-47q-106 0 -169.5 55.5t-63.5 158.5t63 155t170 52h283v-667q0 -86 -27.5 -148t-113.5 -112z" />
    <glyph glyph-name="periodcentered" unicode="&#xb7;" horiz-adv-x="276" 
d="M194 217h-112v100h112v-100z" />
    <glyph glyph-name="cedilla" unicode="&#xb8;" horiz-adv-x="427" 
d="M152 -255l-2 52q12 -1 23 -1q88 0 88 48q0 36 -59 36q-8 0 -18 -1l-29 33l48 88h72l-45 -71l2 -3q93 -1 93 -81q0 -44 -35.5 -72.5t-114.5 -28.5q-14 0 -23 1z" />
    <glyph glyph-name="onesuperior" unicode="&#xb9;" horiz-adv-x="372" 
d="M315 292h-257v60h108v313h-87v60h151v-373h85v-60z" />
    <glyph glyph-name="ordmasculine" unicode="&#xba;" horiz-adv-x="393" 
d="M197 356q-70 0 -110 44t-40 117q0 72 40 116t110 44t109.5 -44t39.5 -116t-40 -116.5t-109 -44.5zM197 407q40 0 63.5 27t23.5 83q0 55 -23.5 82t-63.5 27q-87 0 -87 -109q0 -110 87 -110z" />
    <glyph glyph-name="guillemotright" unicode="&#xbb;" horiz-adv-x="416" 
d="M104 60l-53 29l106 179l-105 177l52 29l120 -207zM259 60l-53 29l106 179l-105 177l52 29l120 -207z" />
    <glyph glyph-name="onequarter" unicode="&#xbc;" horiz-adv-x="946" 
d="M835 0h-64v105h-219v55l116 279h68l-114 -276h149v81l7 73h57v-154h66v-58h-66v-105zM286 -101l-59 25l382 858l60 -25zM312 292h-257v60h108v313h-87v60h151v-373h85v-60z" />
    <glyph glyph-name="onehalf" unicode="&#xbd;" horiz-adv-x="947" 
d="M281 -101l-59 25l382 858l60 -25zM308 292h-257v60h108v313h-87v60h151v-373h85v-60zM896 1h-303l-8 61l123 97q46 38 71 71.5t25 76.5q0 31 -20.5 52t-63.5 21q-53 0 -119 -30l-11 62q69 27 131 27q70 0 112.5 -33t42.5 -98q0 -55 -30.5 -97t-87.5 -88q-31 -25 -82 -62
h220v-60z" />
    <glyph glyph-name="threequarters" unicode="&#xbe;" horiz-adv-x="946" 
d="M836 0h-64v105h-219v55l116 279h68l-114 -276h149v81l7 73h57v-154h66v-58h-66v-105zM302 -101l-59 25l382 858l60 -25zM56 292l7 59q78 -15 115 -15q96 0 96 73q0 70 -100 70q-24 0 -48 -3v58q21 3 44 3q37 0 62 -6q33 36 33 71q0 29 -20.5 50t-63.5 21q-52 0 -105 -22
l-9 59q61 21 124 21q64 0 104 -32t40 -84q0 -55 -50 -105q27 -14 44 -39.5t17 -56.5q0 -66 -45.5 -101t-124.5 -35q-52 0 -120 14z" />
    <glyph glyph-name="questiondown" unicode="&#xbf;" horiz-adv-x="437" 
d="M388 -85l9 -74q-77 -24 -155 -24q-91 0 -136 44t-45 109q0 56 26.5 98.5t107.5 91.5q38 23 52.5 42t14.5 47q0 25 -13 80l79 -22q10 -33 10 -62q0 -44 -21.5 -75t-62.5 -59q-8 -6 -29.5 -19t-32 -21.5t-24.5 -23.5t-20.5 -33t-6.5 -41q0 -81 111 -81q60 0 136 23z
M335 395l-101 25v79h101v-104z" />
    <glyph glyph-name="Agrave" unicode="&#xc0;" horiz-adv-x="604" 
d="M303 723l-159 113l43 56l151 -119zM591 0h-94l-41 125h-308l-41 -125h-94l231 670h116zM432 197l-130 404l-130 -404h260z" />
    <glyph glyph-name="Aacute" unicode="&#xc1;" horiz-adv-x="604" 
d="M456 835l-159 -113l-35 50l151 119zM591 0h-94l-41 125h-308l-41 -125h-94l231 670h116zM432 197l-130 404l-130 -404h260z" />
    <glyph glyph-name="Acircumflex" unicode="&#xc2;" horiz-adv-x="604" 
d="M415 738l-113 90l-113 -90l-40 50l153 116l153 -116zM591 0h-94l-41 125h-308l-41 -125h-94l231 670h116zM432 197l-130 404l-130 -404h260z" />
    <glyph glyph-name="Atilde" unicode="&#xc3;" horiz-adv-x="604" 
d="M460 818l11 -62q-57 -33 -104 -33q-28 0 -69.5 18t-65.5 18q-40 0 -89 -29l-11 62q57 33 103 33q27 0 69 -18t67 -18q40 0 89 29zM591 0h-94l-41 125h-308l-41 -125h-94l231 670h116zM432 197l-130 404l-130 -404h260z" />
    <glyph glyph-name="Adieresis" unicode="&#xc4;" horiz-adv-x="604" 
d="M438 735h-97v88h97v-88zM264 735h-97v88h97v-88zM591 0h-94l-41 125h-308l-41 -125h-94l231 670h116zM432 197l-130 404l-130 -404h260z" />
    <glyph glyph-name="Aring" unicode="&#xc5;" horiz-adv-x="604" 
d="M264 767q16 -15 38 -15t37.5 15.5t15.5 39.5t-15.5 39.5t-37.5 15.5t-37.5 -15.5t-15.5 -39.5t15 -40zM405 807q0 -44 -29 -71t-74 -27t-74 27t-29 71q0 43 29 70.5t74 27.5t74 -27.5t29 -70.5zM591 0h-94l-41 125h-308l-41 -125h-94l231 670h116zM432 197l-130 404
l-130 -404h260z" />
    <glyph glyph-name="AE" unicode="&#xc6;" horiz-adv-x="888" 
d="M843 0h-411v124h-274l-55 -124h-99l321 670h521l-9 -73h-318v-216h268v-73h-268v-234h315zM432 197v400h-57l-185 -400h242z" />
    <glyph glyph-name="Ccedilla" unicode="&#xc7;" horiz-adv-x="614" 
d="M266 -255l-2 52q12 -1 23 -1q88 0 88 48q0 36 -59 36q-8 0 -18 -1l-29 33l43 79q-260 26 -260 350q0 155 91.5 248t239.5 93q76 0 172 -28l-12 -201l-77 3l5 142q-53 11 -96 11q-99 0 -165 -67.5t-66 -200.5q0 -148 62.5 -213.5t168.5 -65.5q78 0 174 35l22 -73
q-87 -33 -190 -36l-37 -59l2 -3q93 -1 93 -81q0 -44 -35.5 -72.5t-114.5 -28.5q-14 0 -23 1z" />
    <glyph glyph-name="Egrave" unicode="&#xc8;" horiz-adv-x="547" 
d="M312 723l-159 113l43 56l151 -119zM502 0h-411v670h414l-9 -73h-318v-216h268v-73h-268v-234h315z" />
    <glyph glyph-name="Eacute" unicode="&#xc9;" horiz-adv-x="547" 
d="M432 837l-159 -113l-35 50l151 119zM502 0h-411v670h414l-9 -73h-318v-216h268v-73h-268v-234h315z" />
    <glyph glyph-name="Ecircumflex" unicode="&#xca;" horiz-adv-x="547" 
d="M403 738l-113 90l-113 -90l-40 50l153 116l153 -116zM502 0h-411v670h414l-9 -73h-318v-216h268v-73h-268v-234h315z" />
    <glyph glyph-name="Edieresis" unicode="&#xcb;" horiz-adv-x="547" 
d="M432 735h-97v88h97v-88zM258 735h-97v88h97v-88zM502 0h-411v670h414l-9 -73h-318v-216h268v-73h-268v-234h315z" />
    <glyph glyph-name="Igrave" unicode="&#xcc;" horiz-adv-x="397" 
d="M209 723l-159 113l43 56l151 -119zM354 0h-310v70h110v530h-110v70h310v-70h-113v-530h113v-70z" />
    <glyph glyph-name="Iacute" unicode="&#xcd;" horiz-adv-x="397" 
d="M356 835l-159 -113l-35 50l151 119zM354 0h-310v70h110v530h-110v70h310v-70h-113v-530h113v-70z" />
    <glyph glyph-name="Icircumflex" unicode="&#xce;" horiz-adv-x="397" 
d="M313 722l-113 90l-113 -90l-40 50l153 116l153 -116zM354 0h-310v70h110v530h-110v70h310v-70h-113v-530h113v-70z" />
    <glyph glyph-name="Idieresis" unicode="&#xcf;" horiz-adv-x="397" 
d="M335 735h-97v88h97v-88zM162 735h-97v88h97v-88zM354 0h-310v70h110v530h-110v70h310v-70h-113v-530h113v-70z" />
    <glyph glyph-name="Eth" unicode="&#xd0;" horiz-adv-x="700" 
d="M315 0h-199v300h-90v73h90v297h199q155 0 243.5 -81.5t88.5 -253.5q0 -173 -89 -254t-243 -81zM203 74h111q241 0 241 261q0 262 -241 262h-111v-224h128v-73h-128v-226z" />
    <glyph glyph-name="Ntilde" unicode="&#xd1;" horiz-adv-x="738" 
d="M527 819l11 -62q-57 -33 -104 -33q-28 0 -69.5 18t-65.5 18q-40 0 -89 -29l-11 62q57 33 103 33q27 0 69 -18t67 -18q40 0 89 29zM647 0h-124l-281 457l-57 127h-7v-584h-87v670h122l279 -457l61 -134h7v591h87v-670z" />
    <glyph glyph-name="Ograve" unicode="&#xd2;" horiz-adv-x="722" 
d="M366 723l-159 113l43 56l151 -119zM361 -12q-142 0 -226 93.5t-84 253.5q0 162 83.5 254.5t226.5 92.5q144 0 227 -92.5t83 -254.5q0 -161 -83.5 -254t-226.5 -93zM579 335q0 133 -61.5 203.5t-156.5 70.5t-156.5 -70.5t-61.5 -203.5q0 -132 61 -202.5t157 -70.5
t157 70.5t61 202.5z" />
    <glyph glyph-name="Oacute" unicode="&#xd3;" horiz-adv-x="722" 
d="M522 835l-159 -113l-35 50l151 119zM361 -12q-142 0 -226 93.5t-84 253.5q0 162 83.5 254.5t226.5 92.5q144 0 227 -92.5t83 -254.5q0 -161 -83.5 -254t-226.5 -93zM579 335q0 133 -61.5 203.5t-156.5 70.5t-156.5 -70.5t-61.5 -203.5q0 -132 61 -202.5t157 -70.5
t157 70.5t61 202.5z" />
    <glyph glyph-name="Ocircumflex" unicode="&#xd4;" horiz-adv-x="722" 
d="M474 722l-113 90l-113 -90l-40 50l153 116l153 -116zM361 -12q-142 0 -226 93.5t-84 253.5q0 162 83.5 254.5t226.5 92.5q144 0 227 -92.5t83 -254.5q0 -161 -83.5 -254t-226.5 -93zM579 335q0 133 -61.5 203.5t-156.5 70.5t-156.5 -70.5t-61.5 -203.5q0 -132 61 -202.5
t157 -70.5t157 70.5t61 202.5z" />
    <glyph glyph-name="Otilde" unicode="&#xd5;" horiz-adv-x="722" 
d="M519 818l11 -62q-57 -33 -104 -33q-28 0 -69.5 18t-65.5 18q-40 0 -89 -29l-11 62q57 33 103 33q27 0 69 -18t67 -18q40 0 89 29zM361 -12q-142 0 -226 93.5t-84 253.5q0 162 83.5 254.5t226.5 92.5q144 0 227 -92.5t83 -254.5q0 -161 -83.5 -254t-226.5 -93zM579 335
q0 133 -61.5 203.5t-156.5 70.5t-156.5 -70.5t-61.5 -203.5q0 -132 61 -202.5t157 -70.5t157 70.5t61 202.5z" />
    <glyph glyph-name="Odieresis" unicode="&#xd6;" horiz-adv-x="722" 
d="M497 735h-97v88h97v-88zM323 735h-97v88h97v-88zM361 -12q-142 0 -226 93.5t-84 253.5q0 162 83.5 254.5t226.5 92.5q144 0 227 -92.5t83 -254.5q0 -161 -83.5 -254t-226.5 -93zM579 335q0 133 -61.5 203.5t-156.5 70.5t-156.5 -70.5t-61.5 -203.5q0 -132 61 -202.5
t157 -70.5t157 70.5t61 202.5z" />
    <glyph glyph-name="multiply" unicode="&#xd7;" 
d="M456 61l-156 155l-156 -155l-49 49l156 155l-156 156l49 49l156 -156l156 156l49 -49l-156 -156l156 -155z" />
    <glyph glyph-name="Oslash" unicode="&#xd8;" horiz-adv-x="722" 
d="M179 -118l-69 33l69 128q-128 92 -128 292q0 162 83.5 254.5t226.5 92.5q75 0 137 -28l64 124l70 -33l-69 -132q108 -92 108 -278q0 -161 -83.5 -254t-226.5 -93q-62 0 -117 19zM219 121l239 458q-43 22 -97 22q-96 0 -157 -67t-61 -199q0 -146 76 -214zM520 531
l-236 -449q36 -12 77 -12q97 0 157.5 66.5t60.5 198.5q0 126 -59 196z" />
    <glyph glyph-name="Ugrave" unicode="&#xd9;" horiz-adv-x="682" 
d="M360 723l-159 113l43 56l151 -119zM512 221v449h87v-444q0 -111 -72.5 -174.5t-184.5 -63.5q-114 0 -186 63t-72 175v444h87v-449q0 -76 50 -117.5t121 -41.5t120.5 41.5t49.5 117.5z" />
    <glyph glyph-name="Uacute" unicode="&#xda;" horiz-adv-x="682" 
d="M484 835l-159 -113l-35 50l151 119zM512 221v449h87v-444q0 -111 -72.5 -174.5t-184.5 -63.5q-114 0 -186 63t-72 175v444h87v-449q0 -76 50 -117.5t121 -41.5t120.5 41.5t49.5 117.5z" />
    <glyph glyph-name="Ucircumflex" unicode="&#xdb;" horiz-adv-x="682" 
d="M454 722l-113 90l-113 -90l-40 50l153 116l153 -116zM512 221v449h87v-444q0 -111 -72.5 -174.5t-184.5 -63.5q-114 0 -186 63t-72 175v444h87v-449q0 -76 50 -117.5t121 -41.5t120.5 41.5t49.5 117.5z" />
    <glyph glyph-name="Udieresis" unicode="&#xdc;" horiz-adv-x="682" 
d="M477 735h-97v88h97v-88zM303 735h-97v88h97v-88zM512 221v449h87v-444q0 -111 -72.5 -174.5t-184.5 -63.5q-114 0 -186 63t-72 175v444h87v-449q0 -76 50 -117.5t121 -41.5t120.5 41.5t49.5 117.5z" />
    <glyph glyph-name="Yacute" unicode="&#xdd;" horiz-adv-x="539" 
d="M430 835l-159 -113l-35 50l151 119zM314 0h-87v240l-217 430h100l162 -343l160 343h97l-215 -430v-240z" />
    <glyph glyph-name="Thorn" unicode="&#xde;" horiz-adv-x="532" 
d="M179 0h-88v749h88v-162h90q107 0 170 -52t63 -155t-63.5 -158.5t-169.5 -55.5h-90v-166zM179 239h91q70 0 105 37t35 104q0 134 -140 134h-91v-275z" />
    <glyph glyph-name="germandbls" unicode="&#xdf;" horiz-adv-x="569" 
d="M155 -253h-80v784q0 99 62 152t142 53q71 0 125 -43t54 -117q0 -37 -15 -67.5t-37 -50.5t-44 -36t-37 -33t-15 -34q0 -25 23.5 -43.5t57.5 -31.5t68 -28.5t57.5 -45t23.5 -70.5q0 -69 -55.5 -108.5t-133.5 -39.5q-63 0 -123 14l9 72q64 -14 112 -14q44 0 76.5 17t32.5 54
q0 26 -23.5 43.5t-57 29.5t-67 26.5t-57 44.5t-23.5 74q0 29 15.5 54.5t37.5 44l44 37t37.5 43t15.5 52.5q0 40 -32 60.5t-69 20.5q-49 0 -86.5 -32t-37.5 -94v-788z" />
    <glyph glyph-name="agrave" unicode="&#xe0;" horiz-adv-x="475" 
d="M326 117v102l-129 -19q-72 -11 -72 -73q0 -29 18.5 -47.5t49.5 -18.5q55 0 133 56zM406 310v-307l-65 -13h-11v66h-2q-85 -65 -162 -65q-50 0 -87.5 34.5t-37.5 95.5q0 33 12 58.5t27.5 39t41 23t40.5 13t39 6.5l125 17v32q0 57 -26 79.5t-81 22.5q-73 0 -144 -32l-9 74
q78 30 168 30q172 0 172 -174zM261 539l-159 113l43 56l151 -119z" />
    <glyph glyph-name="aacute" unicode="&#xe1;" horiz-adv-x="475" 
d="M341 651l-159 -113l-35 50l151 119zM326 117v102l-129 -19q-72 -11 -72 -73q0 -29 18.5 -47.5t49.5 -18.5q55 0 133 56zM406 310v-307l-65 -13h-11v66h-2q-85 -65 -162 -65q-50 0 -87.5 34.5t-37.5 95.5q0 33 12 58.5t27.5 39t41 23t40.5 13t39 6.5l125 17v32
q0 57 -26 79.5t-81 22.5q-73 0 -144 -32l-9 74q78 30 168 30q172 0 172 -174z" />
    <glyph glyph-name="acircumflex" unicode="&#xe2;" horiz-adv-x="475" 
d="M355 538l-113 90l-113 -90l-40 50l153 116l153 -116zM326 117v102l-129 -19q-72 -11 -72 -73q0 -29 18.5 -47.5t49.5 -18.5q55 0 133 56zM406 310v-307l-65 -13h-11v66h-2q-85 -65 -162 -65q-50 0 -87.5 34.5t-37.5 95.5q0 33 12 58.5t27.5 39t41 23t40.5 13t39 6.5
l125 17v32q0 57 -26 79.5t-81 22.5q-73 0 -144 -32l-9 74q78 30 168 30q172 0 172 -174z" />
    <glyph glyph-name="atilde" unicode="&#xe3;" horiz-adv-x="475" 
d="M402 652l11 -62q-57 -33 -104 -33q-28 0 -69.5 18t-65.5 18q-40 0 -89 -29l-11 62q57 33 103 33q27 0 69 -18t67 -18q40 0 89 29zM326 117v102l-129 -19q-72 -11 -72 -73q0 -29 18.5 -47.5t49.5 -18.5q55 0 133 56zM406 310v-307l-65 -13h-11v66h-2q-85 -65 -162 -65
q-50 0 -87.5 34.5t-37.5 95.5q0 33 12 58.5t27.5 39t41 23t40.5 13t39 6.5l125 17v32q0 57 -26 79.5t-81 22.5q-73 0 -144 -32l-9 74q78 30 168 30q172 0 172 -174z" />
    <glyph glyph-name="adieresis" unicode="&#xe4;" horiz-adv-x="475" 
d="M366 584h-97v88h97v-88zM192 584h-97v88h97v-88zM326 117v102l-129 -19q-72 -11 -72 -73q0 -29 18.5 -47.5t49.5 -18.5q55 0 133 56zM406 310v-307l-65 -13h-11v66h-2q-85 -65 -162 -65q-50 0 -87.5 34.5t-37.5 95.5q0 33 12 58.5t27.5 39t41 23t40.5 13t39 6.5l125 17
v32q0 57 -26 79.5t-81 22.5q-73 0 -144 -32l-9 74q78 30 168 30q172 0 172 -174z" />
    <glyph glyph-name="aring" unicode="&#xe5;" horiz-adv-x="475" 
d="M204 599q16 -15 38 -15t37.5 15.5t15.5 39.5t-15.5 39.5t-37.5 15.5t-37.5 -15.5t-15.5 -39.5t15 -40zM345 639q0 -44 -29 -71t-74 -27t-74 27t-29 71q0 43 29 70.5t74 27.5t74 -27.5t29 -70.5zM326 117v102l-129 -19q-72 -11 -72 -73q0 -29 18.5 -47.5t49.5 -18.5
q55 0 133 56zM406 310v-307l-65 -13h-11v66h-2q-85 -65 -162 -65q-50 0 -87.5 34.5t-37.5 95.5q0 33 12 58.5t27.5 39t41 23t40.5 13t39 6.5l125 17v32q0 57 -26 79.5t-81 22.5q-73 0 -144 -32l-9 74q78 30 168 30q172 0 172 -174z" />
    <glyph glyph-name="ae" unicode="&#xe6;" horiz-adv-x="775" 
d="M724 214h-323q4 -85 47.5 -119t116.5 -34t148 35v-74q-76 -34 -176 -34q-120 0 -177 84h-5q-48 -47 -91 -64t-98 -17q-50 0 -87.5 34t-37.5 95q0 33 12 58.5t27.5 39t41 23t40.5 13t39 6.5l125 15v35q0 57 -26 79.5t-81 22.5q-73 0 -144 -32l-9 74q78 30 168 30
q107 0 147 -66q61 66 154 66q97 0 145 -59.5t48 -142.5q0 -30 -4 -68zM532 412q-52 0 -87 -35.5t-42 -94.5h237v6.5v6.5q0 33 -11 58.5t-36 42t-61 16.5zM326 218l-130 -17q-70 -10 -70 -74q0 -30 18 -48t48 -18q56 0 134 56v101z" />
    <glyph glyph-name="ccedilla" unicode="&#xe7;" horiz-adv-x="473" 
d="M188 -255l-2 52q12 -1 23 -1q88 0 88 48q0 36 -59 36q-8 0 -18 -1l-29 33l43 79q-96 14 -142.5 78.5t-46.5 162.5q0 117 66.5 184.5t185.5 67.5q62 0 128 -22l-6 -77q-67 27 -130 27q-71 0 -115.5 -41t-44.5 -130q0 -181 165 -181q68 0 138 27v-72q-66 -23 -128 -26
l-38 -60l2 -3q93 -1 93 -81q0 -44 -35.5 -72.5t-114.5 -28.5q-14 0 -23 1z" />
    <glyph glyph-name="egrave" unicode="&#xe8;" horiz-adv-x="504" 
d="M453 214h-323q4 -85 47.5 -119t116.5 -34t148 35v-74q-76 -34 -176 -34q-98 0 -159.5 62t-61.5 192q0 99 59 170.5t160 71.5q97 0 145 -59.5t48 -142.5q0 -30 -4 -68zM261 412q-52 0 -87 -35.5t-42 -94.5h237v13q0 51 -27.5 84t-80.5 33zM292 539l-159 113l43 56
l151 -119z" />
    <glyph glyph-name="eacute" unicode="&#xe9;" horiz-adv-x="504" 
d="M405 651l-159 -113l-35 50l151 119zM453 214h-323q4 -85 47.5 -119t116.5 -34t148 35v-74q-76 -34 -176 -34q-98 0 -159.5 62t-61.5 192q0 99 59 170.5t160 71.5q97 0 145 -59.5t48 -142.5q0 -30 -4 -68zM261 412q-52 0 -87 -35.5t-42 -94.5h237v13q0 51 -27.5 84
t-80.5 33z" />
    <glyph glyph-name="ecircumflex" unicode="&#xea;" horiz-adv-x="504" 
d="M373 538l-113 90l-113 -90l-40 50l153 116l153 -116zM453 214h-323q4 -85 47.5 -119t116.5 -34t148 35v-74q-76 -34 -176 -34q-98 0 -159.5 62t-61.5 192q0 99 59 170.5t160 71.5q97 0 145 -59.5t48 -142.5q0 -30 -4 -68zM261 412q-52 0 -87 -35.5t-42 -94.5h237v13
q0 51 -27.5 84t-80.5 33z" />
    <glyph glyph-name="edieresis" unicode="&#xeb;" horiz-adv-x="504" 
d="M395 584h-97v88h97v-88zM221 584h-97v88h97v-88zM453 214h-323q4 -85 47.5 -119t116.5 -34t148 35v-74q-76 -34 -176 -34q-98 0 -159.5 62t-61.5 192q0 99 59 170.5t160 71.5q97 0 145 -59.5t48 -142.5q0 -30 -4 -68zM261 412q-52 0 -87 -35.5t-42 -94.5h237v13
q0 51 -27.5 84t-80.5 33z" />
    <glyph glyph-name="igrave" unicode="&#xec;" horiz-adv-x="229" 
d="M154 0h-80v469l70 15h10v-484zM123 539l-159 113l43 56l151 -119z" />
    <glyph glyph-name="iacute" unicode="&#xed;" horiz-adv-x="229" 
d="M154 0h-80v469l70 15h10v-484zM265 651l-159 -113l-35 50l151 119z" />
    <glyph glyph-name="icircumflex" unicode="&#xee;" horiz-adv-x="229" 
d="M228 538l-113 90l-113 -90l-40 50l153 116l153 -116zM154 0h-80v469l70 15h10v-484z" />
    <glyph glyph-name="idieresis" unicode="&#xef;" horiz-adv-x="229" 
d="M154 0h-80v469l70 15h10v-484zM250 584h-97v88h97v-88zM77 584h-97v88h97v-88z" />
    <glyph glyph-name="eth" unicode="&#xf0;" horiz-adv-x="551" 
d="M477 721l-76 -73q99 -107 99 -326q0 -151 -63 -242.5t-171 -91.5q-106 0 -163 66.5t-57 163.5q0 110 65 170.5t159 60.5q30 0 72 -11t71 -28q0 106 -70 183l-79 -76l-40 36l79 76q-53 40 -134 65l24 75q101 -32 167 -84l74 72zM415 314v31q-74 33 -149 33
q-55 0 -95 -41.5t-40 -117.5q0 -74 36.5 -116t96.5 -42q69 0 110 62.5t41 190.5z" />
    <glyph glyph-name="ntilde" unicode="&#xf1;" horiz-adv-x="555" 
d="M437 652l11 -62q-57 -33 -104 -33q-28 0 -69.5 18t-65.5 18q-40 0 -89 -29l-11 62q57 33 103 33q27 0 69 -18t67 -18q40 0 89 29zM484 0h-80v316q0 96 -79 96q-68 0 -171 -60v-352h-80v469l60 15h11l8 -65q59 35 98.5 50t82.5 15q67 0 108.5 -39t41.5 -123v-322z" />
    <glyph glyph-name="ograve" unicode="&#xf2;" horiz-adv-x="548" 
d="M444 56q-58 -68 -170 -68t-170.5 68.5t-58.5 179.5t58.5 179.5t170.5 68.5t170.5 -68.5t58.5 -179.5t-59 -180zM380 367q-38 45 -106 45t-106.5 -44.5t-38.5 -131.5t38.5 -131.5t106.5 -44.5t106.5 44.5t38.5 131.5t-39 131zM288 539l-159 113l43 56l151 -119z" />
    <glyph glyph-name="oacute" unicode="&#xf3;" horiz-adv-x="548" 
d="M414 651l-159 -113l-35 50l151 119zM444 56q-58 -68 -170 -68t-170.5 68.5t-58.5 179.5t58.5 179.5t170.5 68.5t170.5 -68.5t58.5 -179.5t-59 -180zM380 367q-38 45 -106 45t-106.5 -44.5t-38.5 -131.5t38.5 -131.5t106.5 -44.5t106.5 44.5t38.5 131.5t-39 131z" />
    <glyph glyph-name="ocircumflex" unicode="&#xf4;" horiz-adv-x="548" 
d="M387 538l-113 90l-113 -90l-40 50l153 116l153 -116zM444 56q-58 -68 -170 -68t-170.5 68.5t-58.5 179.5t58.5 179.5t170.5 68.5t170.5 -68.5t58.5 -179.5t-59 -180zM380 367q-38 45 -106 45t-106.5 -44.5t-38.5 -131.5t38.5 -131.5t106.5 -44.5t106.5 44.5t38.5 131.5
t-39 131z" />
    <glyph glyph-name="otilde" unicode="&#xf5;" horiz-adv-x="548" 
d="M432 652l11 -62q-57 -33 -104 -33q-28 0 -69.5 18t-65.5 18q-40 0 -89 -29l-11 62q57 33 103 33q27 0 69 -18t67 -18q40 0 89 29zM444 56q-58 -68 -170 -68t-170.5 68.5t-58.5 179.5t58.5 179.5t170.5 68.5t170.5 -68.5t58.5 -179.5t-59 -180zM380 367q-38 45 -106 45
t-106.5 -44.5t-38.5 -131.5t38.5 -131.5t106.5 -44.5t106.5 44.5t38.5 131.5t-39 131z" />
    <glyph glyph-name="odieresis" unicode="&#xf6;" horiz-adv-x="548" 
d="M410 584h-97v88h97v-88zM236 584h-97v88h97v-88zM444 56q-58 -68 -170 -68t-170.5 68.5t-58.5 179.5t58.5 179.5t170.5 68.5t170.5 -68.5t58.5 -179.5t-59 -180zM380 367q-38 45 -106 45t-106.5 -44.5t-38.5 -131.5t38.5 -131.5t106.5 -44.5t106.5 44.5t38.5 131.5
t-39 131z" />
    <glyph glyph-name="divide" unicode="&#xf7;" 
d="M535 233h-470v65h470v-65zM352 379h-104v93h104v-93zM352 58h-104v93h104v-93z" />
    <glyph glyph-name="oslash" unicode="&#xf8;" horiz-adv-x="555" 
d="M277 -12q-32 0 -72 9l-46 -92l-69 33l46 91q-88 66 -88 207q0 111 58.5 179.5t170.5 68.5q43 0 84 -13l42 83l68 -34l-44 -85q79 -67 79 -199q0 -111 -58.5 -179.5t-170.5 -68.5zM277 412q-68 0 -106.5 -44.5t-38.5 -131.5q0 -89 41 -135l154 304q-26 7 -50 7zM422 236
q0 78 -33 124l-150 -296q16 -4 38 -4q68 0 106.5 44.5t38.5 131.5z" />
    <glyph glyph-name="ugrave" unicode="&#xf9;" horiz-adv-x="552" 
d="M218 -12q-67 0 -108.5 39t-41.5 123v319l70 15h10v-328q0 -96 79 -96q68 0 171 60v349l70 15h10v-481l-68 -15h-11v65q-59 -35 -98.5 -50t-82.5 -15zM300 539l-159 113l43 56l151 -119z" />
    <glyph glyph-name="uacute" unicode="&#xfa;" horiz-adv-x="552" 
d="M410 651l-159 -113l-35 50l151 119zM218 -12q-67 0 -108.5 39t-41.5 123v319l70 15h10v-328q0 -96 79 -96q68 0 171 60v349l70 15h10v-481l-68 -15h-11v65q-59 -35 -98.5 -50t-82.5 -15z" />
    <glyph glyph-name="ucircumflex" unicode="&#xfb;" horiz-adv-x="552" 
d="M388 538l-113 90l-113 -90l-40 50l153 116l153 -116zM218 -12q-67 0 -108.5 39t-41.5 123v319l70 15h10v-328q0 -96 79 -96q68 0 171 60v349l70 15h10v-481l-68 -15h-11v65q-59 -35 -98.5 -50t-82.5 -15z" />
    <glyph glyph-name="udieresis" unicode="&#xfc;" horiz-adv-x="552" 
d="M411 584h-97v88h97v-88zM237 584h-97v88h97v-88zM218 -12q-67 0 -108.5 39t-41.5 123v319l70 15h10v-328q0 -96 79 -96q68 0 171 60v349l70 15h10v-481l-68 -15h-11v65q-59 -35 -98.5 -50t-82.5 -15z" />
    <glyph glyph-name="yacute" unicode="&#xfd;" horiz-adv-x="467" 
d="M386 651l-159 -113l-35 50l151 119zM92 -262l-45 58q63 45 89.5 79.5t52.5 98.5l7 19h-14l-166 477h92l118 -378h7l129 378h91l-181 -500q-30 -87 -71.5 -138.5t-108.5 -93.5z" />
    <glyph glyph-name="thorn" unicode="&#xfe;" horiz-adv-x="551" 
d="M75 -262v983l70 15h10v-313q82 61 167 61q81 0 132 -58.5t51 -170.5q0 -120 -63 -193.5t-184 -73.5q-46 0 -103 12v-247l-70 -15h-10zM155 348v-278q62 -10 106 -10q75 0 117.5 47t42.5 136q0 169 -117 169q-76 0 -149 -64z" />
    <glyph glyph-name="ydieresis" unicode="&#xff;" horiz-adv-x="467" 
d="M369 584h-97v88h97v-88zM195 584h-97v88h97v-88zM92 -262l-45 58q63 45 89.5 79.5t52.5 98.5l7 19h-14l-166 477h92l118 -378h7l129 378h91l-181 -500q-30 -87 -71.5 -138.5t-108.5 -93.5z" />
    <glyph glyph-name="OE" unicode="&#x152;" horiz-adv-x="927" 
d="M882 0h-411q-55 -12 -106 -12q-148 0 -231 92.5t-83 254.5q0 163 82.5 255t231.5 92q59 0 106 -12h414l-10 -73h-317v-215h268v-73h-268v-235h313zM471 87v498q-39 24 -106 24q-96 0 -159 -71t-63 -203t62.5 -202.5t159.5 -70.5q64 0 106 25z" />
    <glyph glyph-name="oe" unicode="&#x153;" horiz-adv-x="872" 
d="M820 214h-323q4 -85 47.5 -119t116.5 -34t148 35v-74q-76 -34 -176 -34q-120 0 -177 83q-62 -83 -182 -83q-112 0 -170.5 68.5t-58.5 179.5t58.5 179.5t170.5 68.5q124 0 185 -87q62 87 172 87q97 0 145 -59.5t48 -142.5q0 -30 -4 -68zM380 367q-38 45 -106 45
t-106.5 -44.5t-38.5 -131.5t38.5 -131.5t106.5 -44.5t106.5 44.5t38.5 131.5t-39 131zM628 412q-52 0 -87 -35.5t-42 -94.5h237v6.5v6.5q0 33 -11 58.5t-36 42t-61 16.5z" />
    <glyph glyph-name="Ydieresis" unicode="&#x178;" horiz-adv-x="539" 
d="M406 735h-97v88h97v-88zM232 735h-97v88h97v-88zM314 0h-87v240l-217 430h100l162 -343l160 343h97l-215 -430v-240z" />
    <glyph glyph-name="tilde" unicode="&#x2dc;" horiz-adv-x="495" 
d="M418 652l11 -62q-57 -33 -104 -33q-28 0 -69.5 18t-65.5 18q-40 0 -89 -29l-11 62q57 33 103 33q27 0 69 -18t67 -18q40 0 89 29z" />
    <glyph glyph-name="endash" unicode="&#x2013;" horiz-adv-x="548" 
d="M479 217h-410v73h410v-73z" />
    <glyph glyph-name="emdash" unicode="&#x2014;" horiz-adv-x="805" 
d="M736 217h-667v73h667v-73z" />
    <glyph glyph-name="quoteleft" unicode="&#x2018;" horiz-adv-x="223" 
d="M168 572h-112q-3 21 -3 41q0 94 72 191l44 -26q-35 -57 -52 -102l51 -8v-96z" />
    <glyph glyph-name="quoteright" unicode="&#x2019;" horiz-adv-x="207" 
d="M97 483l-44 26q35 57 52 102l-51 8v96h112q3 -21 3 -41q0 -94 -72 -191z" />
    <glyph glyph-name="quotedblleft" unicode="&#x201c;" horiz-adv-x="380" 
d="M168 572h-112q-3 21 -3 41q0 94 72 191l44 -26q-35 -57 -52 -102l51 -8v-96zM325 572h-112q-3 21 -3 41q0 94 72 191l44 -26q-35 -57 -52 -102l51 -8v-96z" />
    <glyph glyph-name="quotedblright" unicode="&#x201d;" horiz-adv-x="364" 
d="M253 483l-44 26q35 57 52 102l-51 8v96h112q3 -21 3 -41q0 -94 -72 -191zM97 483l-44 26q35 57 52 102l-51 8v96h112q3 -21 3 -41q0 -94 -72 -191z" />
    <glyph glyph-name="quotedblbase" unicode="&#x201e;" horiz-adv-x="412" 
d="M271 -132l-44 26q35 57 52 102l-51 8v96h112q3 -21 3 -41q0 -94 -72 -191zM114 -132l-44 26q35 57 52 102l-51 8v96h112q3 -21 3 -41q0 -94 -72 -191z" />
    <glyph glyph-name="bullet" unicode="&#x2022;" horiz-adv-x="314" 
d="M235 245h-156v140h156v-140z" />
    <glyph glyph-name="ellipsis" unicode="&#x2026;" horiz-adv-x="664" 
d="M176 0h-105v100h105v-100zM384 0h-105v100h105v-100zM593 0h-105v100h105v-100z" />
    <glyph glyph-name="guilsinglleft" unicode="&#x2039;" horiz-adv-x="261" 
d="M210 89l-53 -29l-120 207l120 207l52 -29l-105 -177z" />
    <glyph glyph-name="guilsinglright" unicode="&#x203a;" horiz-adv-x="261" 
d="M104 60l-53 29l106 179l-105 177l52 29l120 -207z" />
    <glyph glyph-name="Euro" unicode="&#x20ac;" horiz-adv-x="697" 
d="M621 97l22 -73q-96 -36 -210 -36q-262 0 -302 257h-85l9 67h69v29q0 20 1 30h-60l9 67h61q26 113 111.5 178.5t208.5 65.5q96 0 172 -22l-13 -76q-95 25 -167 25q-78 0 -137.5 -43t-81.5 -128h328l-9 -67h-330q-1 -10 -1 -30v-29h322l-9 -67h-305q37 -183 223 -183
q78 0 174 35z" />
    <glyph glyph-name="trademark" unicode="&#x2122;" horiz-adv-x="732" 
d="M180 369h-55v256h-89v45h235l-5 -45h-86v-256zM656 369h-51v263h-4l-91 -265h-70l-91 265h-4v-263h-51v301h98l83 -255l83 255h98v-301z" />
    <glyph glyph-name="dotlessi" horiz-adv-x="229" 
d="M154 0h-80v469l70 15h10v-484z" />
    <glyph glyph-name="circumflex" horiz-adv-x="462" 
d="M344 538l-113 90l-113 -90l-40 50l153 116l153 -116z" />
    <glyph glyph-name="dotaccent" horiz-adv-x="257" 
d="M177 582h-97v88h97v-88z" />
    <glyph glyph-name="ring" horiz-adv-x="340" 
d="M132 599q16 -15 38 -15t37.5 15.5t15.5 39.5t-15.5 39.5t-37.5 15.5t-37.5 -15.5t-15.5 -39.5t15 -40zM273 639q0 -44 -29 -71t-74 -27t-74 27t-29 71q0 43 29 70.5t74 27.5t74 -27.5t29 -70.5z" />
    <glyph glyph-name="fraction" horiz-adv-x="386" 
d="M34 -101l-59 25l382 858l60 -25z" />
    <glyph glyph-name="minus" 
d="M535 231h-470v69h470v-69z" />
    <glyph glyph-name="glyph212" horiz-adv-x="230" 
 />
    </font>
</defs>
</svg>
